<svg xmlns="http://www.w3.org/2000/svg" viewBox="0 0 1024 1024"><path fill="#252a40" d="m740.5 127.3-16.3 33-1.2 1.7-36 71.6-.4 1-.2 1L646 316l-2 3.4-2 3.8-15 29.8-.1.3-.4.6-.5.7v1.4l-.8-1 .2 1.2.1.3.4.1 11.8.2 10.4.1h114.7l7-.1 6.8-.1 4 .3 1.7.4 1.4.5 1.4.8 2.3 1.8 2 2.2 1.1 2.6.7 2.5.2 2.5v2.4l-.8 3.3-1.5 3.2-1.8 2.4-12.4 13-45.2 45.7-5.5 5.5-.7.4L619.9 550l-.4.6-.1.5-26.1 26.2h-.2l-.6.3-113 112.7-5.6 5.8-12.3 12.3-9.5 9.3-10 9.9-55.7 56-1.5 1.3-1.7 1.1-1.7.7-2 .5-2.6.2-2.7-.2-2.3-.6-1.8-1-2-1.7-1.6-2-1-1.6-.7-1.8-.5-2-.3-2 .1-1.4.5-1.8 2-5.1 7.4-17 34.2-80.5 7.8-18.4 47.3-113 6.2-15.5v-.3l-.3-.2-3-.2H294l-9-.2-3.4-.5-3.2-.7-3-1.1-2.9-1.5-2.4-1.6-2.3-2-2.1-2.1-2-2.5-1.3-3.2-.4-1.6-.2-1.7.1-3.3.6-3.3 1-3.4 1.5-3.5 133.7-267.3 1-2.2 1.4-3 1.4-2.5 1.6-3.7 1.6-3.5 37.4-75 4.5-8.5 3.2-4.7 3.4-4.2 3.8-3.9 4.1-3.3 1.8-1.3 2.8-1.7 3-1.4 3.3-1.1 3.6-1 2.4-.3 3.4-.2 9.4-.2 76.7.2h159l2.8.1 2.6.4 2.3.7 2 .9 1.5 1 1.3 1 1.1 1.3 1 1.3.8 1.4.6 1.6.4 1.7.2 1.8v4.6l-.2 1.6-.4 1.3zm-266.7-.8-1.5 1.2-1.3 1.2-1.2 1.5-2.3 3.4-2.1 3.5-1.9 3.6-1.6 3.7-4.3 8-4 8-4.3 9.5-20.2 40.6v.2l.1.8.8.3h159l.8-.4.7-.6.5-.8 40.8-87.6v-.4l-.4-.2H491.8l-4.7.1-3.5.3-1 .2-2.3.6-2.2.8-2.2 1.2zm141.2 306 .1-5.7.4-3.6-.1-1.7-.4-1.5h-17l-.3-.3-.3.5v33.1l.2 1.5v.9l-2.1 3.8-6.3 9.1-7.2 9.5.2-7.3.4-50v-.6l-.4-.4-.4-.4H469.2l-.4-.2-.1-.3v-91.3l-.1-.6-.3-.4-.5-.3-.5-.2-43 .1h-51.8l-1 .2-.6.4v.3l-3.1 6.6-4.3 8-.2.5v.4l.4.2h86.5l.5.1.4.4.1.5v90.8l.1.5.3.4.4.3.6.1H566v63.6l-.6 1.8-1.5 2.4-6.5 9.4-6.5 8.2-.4-68.3.1-1.2-.3-.7-.8-.2-112.2-.1-.5-1-.1-1.3V440l.3-36.2v-36.3l-.2-3.4-.3-3.2.4-1.6-.1-1.4-.3-.5-.6-.2-14.5.1-14.4-.1h-.2v.4h-.8l-.1-.2-.4-.1-.7.2h-.8l-.5-.3h-.4l-.4.2h-.5l-45.3-.2-.9.3-.6.7-6.3 13-.2 1.1h-.3l-.3.6.2.6.5.3h69.4l.9.1.6.3V466l.1.4.4.3.8.2h1.2l1.3-.5 4 .5 4.3.1h15.3l84.2-.2 2-.4v.1l.6.7.2 1.1.2 18v35.2l-.1 19.8.2 1.6-.1 1.4-.7 1.5-12.8 19-.9.8-1.1.8-.2-.6.1-.5.4-.3.3-19 .1-19.1-.1-19.1-.3-19-.1-5.3-.5-1-.4-.4-.4-.1H373.4l.3-61-.1-.7-.3-.5-.5-.3H326l-1 .2-.6.7-3.2 6-3 6.4v.4l.1.1-.3.6-.6.3-.2.4v.6l.3.5.5.2h38l.3.2.2.4.3 45.4-6 .3-6-.1h-1l-1.3.5-.5-1.7-.2-2.4v-27.3l-.2-.6-.6-.2h-30.5l-.7.2-.6.5-2.1 3.6-2 3.8-1.8 4-1.7 4.2 23 .3.3.2.1.3v30.3l-.2.5.2.3.7.3h176.7l.3.7.2 89 .4.4-2 3.4-7 10-7.1 9.8-.2-1.4.3-1 .7-14.2v-10.4l-.3-24.5-.1-17.5v-5h-.4l-.6.5-.2.6v.6L477 563l-3.1 7-2.8 7.3-.6 1.8-.2 1.1.1 52.4.2.9-.1.7-.6 1.5-.8 1.4-6.9 9.7-7.2 9.4v-37.8l-.2-.3-.3.1-.4.6-1.3 2.5-1 2.7-11 26.4-24 57.6-4.8 10.5-4.7 10.7-.2.3v.4h.5l28.8-28.9 14.1-14.1 44.6-44.1 62-62 105.2-105.3 55-55.5 40.5-41 .1-.1v-.3l-.3-.2-67.3-.2H637l-26.6-.1-2.2-.2-2-.5-1.9-.7-1.6-1-1.7-1.5-1.5-1.8-1.4-2.5-.7-2.6-.2-2v-2l.4-1.4.6-1.9 2.2-4.7 12.6-24.5 17.5-34.6 12.3-24.4 57.3-113.5 17.8-35.7v-.4l-.4-.2h-59.7l-.8.2-.5.7-131.2 281.3v.4h109l.5.3-.2.5zM418 233.1l-2.1 4.5-1.1 1.3-.7 1.3-.4 1.2-.1 1.3h1.9l132.3.1 7.7.3h.1l.9.6v8.2l-.5 30.7v1l.2.4.4-.3.4-.9 23.1-49.4 2.5-5.3v-.6l-.6-.2h-4.2l-142.5-.1-12.6-.2-1 .1-.9.5-.4.6-.7 1.2-1 2zM405.8 258l-6.8 13.6-.6.5-.1.5.3.4h-.3v.5l.4.2h124.6l.8.4.6 1v.7l-.3 1.2-.2 20 .5 20-.6 12.7v12.8l.6 3.4.1.5-.1.5-.3 1v.8l.2.4v.9l-.3 1v1.4l.1.4.4-.3 2.2-4.2 2.1-4.5 4-8.7 6.2-12.6 1.1-2.6.4-2.5.4-11.1v-47l-.4-1-1-.3zM390 289.5l-7.7 15.7-2.4 4.8-.5.4v.7l.5.3h.2l102.9.3V404l.4.4.7.4 1.9.2 22.5-.2.9-.3.3-1v-114l-.4-1-.8-.3h-117l-1 .3-.3.4zm-50 100-7 14 .2.5v-.1l-.5.1-.1.2v.4l.4.3h54.3l.5.4.4.5v.6l.4 25.4v8.8l-.2.2-.1.2v7.6l-.1 16.3v.2l.2.3.1.6.3.4.9.2h15l.4-.2.3-.4-.1-.4-.3-.2v-76l.3-.3-.5-.6-.8-.2-19.7-.1-14.2.2-12.9-.2-15.8.1-1 .3zm-54.2 108.8 10.4.6 10.4-.2 3.4-.2v-15.9l-.3-.4-.5-.2H295l-.7.4-.6.4-.4.6z"/><path fill="#fabf57" d="m416.9 708 38-51.8 7.3-9.4 7-9.7.7-1.4.6-1.5.1-.7.3-.9.5.2.3-.2.3-.6.8-1.3 1.5-1.7 1-1.2 5.7-8 6.1-7.6 7.2-9.7 6.9-10 2-3.5 15.8-22.6 1.1-.8.9-.9 12.8-19 .7-1.4v-1.4l-.1-1.6.1-19.8v-35.1l-.2-18-.2-1.2-.5-.7h-.1.6l.4.5.3 2.3.2 52.5.1 20.6.1.3.3-.2 15.4-21.2 6.5-8.2 6.5-9.4 1.5-2.4.7-1.8 15.9-21.4 7.2-9.5 6.3-9.1 2-3.8.2-.4v-.5l-.3-1.5v-33.1l.3-.5.3.3.1 34.7v.1h.2l16.7-22.4 19.6-27 .2-.5-.5-.2H525.6l-.2-.1-.1-.3 131.2-281.4.5-.7.8-.2h59.7l.4.2v.4l-17.8 35.7-57.3 113.5-12.3 24.4-17.5 34.6-12.6 24.5-2.2 4.7-.6 1.9-.3 1.5-.1 2 .2 1.9.7 2.6 1.4 2.5 1.5 1.8 1.7 1.5 1.6 1 1.9.7 2 .5 2.2.2h79.9l67.3.3.3.2v.3L717.2 420l-55 55.5L557 580.9l-62 61.9-44.6 44-14.1 14.2-28.8 29h-.4l-.2-.3v-.2l.3-.3 4.7-10.7z"/><path fill="#9d9f9e" d="m473.8 126.5-4 4 1.2-1.6 1.3-1.2zm266.7.8-16.3 33z"/><path fill="#252a40" d="m585.4 137-.3 15H474.5v-15z"/><path fill="#9d9f9e" d="m585.1 152 .3-15 .7 7v7.4l-.2.4-.4.1zm-110.6-15v15l-.6-4.8v-5zm-12.6 7.6-12.6 25.5 4.3-9.5 4-8zm262.3 15.7-37.8 75.2.2-1 .4-1 36-71.5z"/><rect width="94.1" height="15" x="475" y="168" fill="#252a40" rx=".8"/><path fill="#9d9f9e" d="m580.1 233.5 1.8-4.4v-.5l-.4-.3-2.8-.7h-3.4l-4.6.3-70 .2-77-.1h-1.4l-1 .4-.7.6-.6 1-1.7 2.8-.2.4.6-1.7 1-2 .7-1.2.4-.7.8-.4h13.7l142.5.2h4.2l.6.2v.6zm-164.2 4.2-1 2.5-1.3 2.6v-1.3l.5-1.2.7-1.3zm140.6 6.1v8.2zM405.7 258l-6.8 13.6zm-7.2 15h119l3.6.1 3 .4.5.2.2.4v.3l-.2.6-.6-.9-.7-.3H398.7l-.4-.2-.2-.4.1-.2zm126.1 2.8.2.6v.4l.3 20-.5 20.2-.5-20 .2-20zM483 404h25l.7-.3.2-.6V289.7l-.2-.5-.5-.2H391.8l-1.8.5.2-.6.4-.4.9-.3h117l.8.4.4.8v114.2l-.3.9-1 .3-22.4.2-2-.2-.6-.4zm-93-114.5-7.7 15.7z"/><path fill="#9d9f9e" d="m379.9 310 .2.6.3.3h.4l101.3.1.4.1.4.2v.4l-102.8-.3h-.2l-.5-.3v-.7zm202.3 160.8-.2-50.5-.3-.3H468.1v-92.7l-.4-.3h-96.9l.1-.2.6-.4 1-.1 51.8-.1h43.5l.5.4.3.4.1.6v91.3l.1.3.4.1h112l.6.1.4.4.3.4.1.6z"/><path fill="#9d9f9e" d="m367.8 333.8-3.6 7.8v.3l.3.1H450l.8.1.6.5.4.6.2.8v90.5l.1.4.4.1h112.8l.4.1.3.4v.4H452l-.4-.4-.3-.4v-91.3l-.4-.7-.6-.3h-86.6l-.3-.2v-.4l.1-.5zM626 356l145.5-.2 6 .3 5 .8 1.7.6 1.5.8 2.1 1.9 1.7 2.5-2-2.2-2.4-1.8-1.4-.8-1.4-.5-1.7-.4-4-.3-6.8.1-7 .1H648.1l-10.4-.1-11.8-.2h-.4l-.1-.4-.2-1.3z"/><path fill="#9d9f9e" d="m404 357.5-.3.2h-.4l-.6-.3.4-.3h.4zm32.5 3.4-.7-2.2-.2-.4-.5-.2-28.4-.5.1-.4h.2l14.4.1 14.5-.1.6.2.3.5v1.4zm-34.3-3.5-3.2.3-3.2.2h-.9l-.1-.1h-.4l-17.3.3-18.4-.2-1.6.2-1.3.7-.8 1-5.9 11.4 6.3-13 .6-.7 1-.3zm3.8.2-.8.2-.4-.3.6-.2.5.1zm383.1 21.6 1.5-3.2.7-3.3.1-2.4-.2-2.5-.7-2.5-1-2.6 1 1.9.9 1.8.5 1.9.2 1.8-.1 2.3-.5 2.2-1 2.3zm-440.2-6.9.1.3.5.3.8.2h62.3l6.1.3.7.2.5.5-.6-.2-1-.1H349l-.5-.3-.2-.5v-.1l.3-.5zm438.4 9.3-12.4 13zM405 389.5l-.8-.4-1.4-.2-29.2.1h-32.3l-1.3.5.4-.9 1-.3H370l14.1-.1 19.8.1.8.2.5.6zm-65 0-7 14zm-6.8 14.5 54.3.2h.5l.5.4.3.4.1.6-.3 26.1-.3-25.3-.1-.6-.4-.5-.5-.3-.5-.1H333l-.4-.3v-.4l.1-.2.5-.1z"/><path fill="#9d9f9e" d="m373.4 482-.3-1.4-.2-2.3.1-57.3-.3-.8-.7-.3h-45.2l-.8.1-.8.4-.7.5-.4.7-5.9 11.7-.1-.1v-.4l3-6.4 3.2-6 .7-.7 1-.2h46.8l.5.3.3.5v.6zm241.7-55.2V420l.3 1.5.1 1.7z"/><path fill="#9d9f9e" d="m317.9 434 .1.5.3.4.4.1h36.4l.9.3.6.7.3 1-.2 44.9-.3-45.4-.2-.4-.4-.2H318l-.5-.2-.3-.5v-.6l.1-.4zm119.4 16.8h-.9l-.2-.4-.2-3v-3l.7-4.4v8.5l.1 1.3zm292.4-10.5-5.5 5.5zm-341 .3v.4l.2.5v4l.1 9.6-.2 9.5-.4.8-.1-.3v-.1l-.1-.1.1-16.2v-7.9zm335.5 5.2L619.4 551l.1-.5.4-.6 103.6-103.7z"/><path fill="#9d9f9e" d="m342.4 482.6-.7-.1-.5-.7-.2-1.3-.1-14 .2-14.6-.2-.6-.7-.3h-29.4l-1 .3-.8.8-7.5 14.6 1.7-4.2 1.8-4 2-3.8 2.1-3.6.6-.5.7-.2H341l.6.2.2.6v27.3l.2 2.4zM550.5 453l-1-2h.8l.4.8zM420 460.5v4.6l.2.4.4.3 3 .6-1.2.5h-1.2l-.8-.2-.4-.2-.1-.5zm-15 5 .3.1v.4l-.2.4-.5.2h-15l14.4-.6.4-.1.4-.2zM519.3 565l-.4-20.3-.1-20.3V504l.4-20.3v-.3 5.2l.4 19 .1 19.2v19zM325 497.8l177.5.2.3.1.1.3v90.1l-.3-89-.2-.4-.5-.2H325.6l-.7-.3-.2-.3zm-15 .7-3.4.2-10.4.2-10.4-.6 6.2-.3 6.1-.1 6 .2z"/><path fill="#9d9f9e" d="m487.2 609.9-.4-31.9.3-31.7v-2.4l-.8-4v-.6l.2-.6.6-.4h.3l.1.3v22.1l.5 24.5-.1 10.4zM477 563l-4.6 12-.8 2.6-.4 2.6-.2 5.3v47.1l-.4.9-.2-.9-.1-52.4.2-1.2.6-1.7 2.8-7.2zm116.3 14.2-113.7 113 112.9-112.7.6-.4zM474 696l-6 6.4-6.4 6zm284.2 124.6-23.4-.1 5.2-.5 5.1-.2h5.2l5 .4zm142.6 0h-28l8.6-.7h9.6zm-748.8-.1-1.6.3H148l-.6.3-.5.5-.2.6-14.3 60.5 14-61.3.3-.7.8-.5h.1l2.2-.2z"/><path fill="#252a40" d="M162.3 833h-.2l-.3.5-9 39v.9l-4 17-3 12.6-1 1.7-.3.3-.4.1-15.3.2h-.4l-.6-.3-.5-.5v-.2l.1-1.4.5-1.5 4.3-17.8v-.4l.1-.5 14.3-60.5.2-.6.5-.5.6-.2.7-.1h1.8l1.7-.3 8 .1.8.3.7-.2.3-.1h.1l1.1-.1 1.1-.4h.2l.6.2.1.6z"/><path fill="#9d9f9e" d="m580 820.6-48.2.4.5-.6.7-.3.8-.1h1.3l22.4-.1zm14-.1-2.5.3-2.3-.2 1.4-.4 1.3-.1h1.1zm236 .1h-16.8l5.1-.6h5.8zm-668.1 0-.3.1-.7.1-.9-.2.8-.3h.6z"/><path fill="#252a40" d="M213.5 872v.2l-.1.9.3.3h.5v-.2l.6-1 .1-1-.3-1.3 1-6.1 4.6-20.2 4.2-19.6 1.2-3.3.3-.4h.5l1.8.5 11.1.1h.4l1.3-.3.7-.3h.8l.6.1.2.6v.8L228.1 885l-.5 1-.6 2.5-.3 2.6-.1.3-2.4 11-.7 3-16.9-.5h-.4l-.2-.4-14.8-50.3-.6-1.2-.3-1.2-.4 1.1-5 20.9-.2.7-.8 2.6-.3 2.7v.5l-.2.6-.5.9-.2 1.2v1.3l-.2.1-.5 1.4-.3 1.3v1.4l-1.2 5.5-1.2 3.7-.6 3.6-.8 4.2-8-.4-8 .3h-.5l-.5-.4v-.3l1.7-8.2.2-1.5.5-1.3 14.2-61.7 2.3-10 .4-.7.6-.2 9.3-.2 1.7-.4.8-.1h1l1.7.4h1.3l.8.2.5.6 2 5.6 1.7 5.5 3.4 11 4.8 15.4 2.3 7.8zm212.9-24.9-.2 3.5.3 2.3.6 2.2 4.3 42.6.3 6.5-.3.8-.7.3h-15.9l-.5-.1-.5-.3-.3-.5-.1-.5-.4-5.4-.5-4.7.2-1.9-.1-1.8-.4-1.5-.6-.4-.2-.1-.5-.1H386l-1.6.3-.6.4-.6.7-4.2 7.4-3.8 8.4-20 .1 27.5-49.2 9.4-17.2 9.2-17.4.3-.4.5-.1h9.3l4-.2h5.4l1-.1.8-.3.7.1.4.6zm-20.4-1.6-9.2 17.5v.1l.1.3-4.6 9v.3l.3.3h17.1l.5-.1.4-.4.3-.4v-.7l-.3-2.3-.5-7.8-1.3-20.8v-.5l-.4.4zm86.4 24.3-.1.3v1.4l.6 1.6.1.2.2-.1v-.4l.2.1.2.1v-.1l.9-5.7 1.3-6.8 8.8-38.6v-.2l.4-.6.6-.5h1.5l.2.2 1.7.3 2-.3 1-.1 2.5.3h2.6l2.8-.1 2.9-.5-2 10-12.9 55.2-4.7 18.6-.5.8-1 .3h-15.2l-.5-.1-.4-.2-.6-.4-.1-.5-.2-1.3-1.5-6.4-5.2-17.5-5.2-17-1.3-4.6-1.2-4.8-.5-1.4-.3-.4-.2.5v.9l-3.3 15-3.2 13.5-2 9-.8 1.9-.2 2-1.8 7.7-.6 1.6v2l-.8.5-.7.1h-16l.4-2.8 9.3-38.5 9.6-42.5v-.2l.8-.2 15.8-.6.5.2h.1l1 1.7.9 2.2 2 6.3z"/><path fill="#9d9f9e" d="m520.8 830.3 2-10-.2 2.4-.4 2.5-.6 2.5z"/><path fill="#252a40" d="m679 896-1.9 1.4-1.6 1.6-.5.6-6 3.2-5.8 1.9-5.6.4-6.2.2-14.1-.2h-5.9l-9.9.3h-.4l-.5-.5-.3-.7v-.5l.2-.3.1-.1 7.6-31.8.1-.4.4-2.5.5-2.8 4.9-19.5 4.7-20.7.7-2.5.9-2 .5-.6.5-.3h.8l.8.3.4.2h.5l35.6.3 2.6.1 2.4.5 2.3.8 2 1 1.7 1.2 1.4 1.3 1.4 1.6 1.2 1.8.8 1.7.5 2 .4 2.5v2.8l-.3 6.7-.8 5.9-2.5 11.6-3.3 13.3-2.4 7.2-2.1 4.9-2.7 4.4zm-24.5-58.8-.4.1-.2.4-5 22-6.8 28v.3l.6.3-.3.3.1.2.3.1 8 .3 5.7-.2 2.6-.5 2.4-.7 2-1 1.7-1.5.5-.6 1.8-2.4 1.5-2.7 1.3-3.1 1.1-3.6 3-12 2.4-11.6.3-3.2-.2-2.8-.8-2.2-1.2-1.7-1.3-1-1.7-.6-3.4-.7-4-.3H660z"/><path fill="#9d9f9e" d="M845.4 826.1v-.1l-.1-1.3.6-1.6.2-.7v-.6l-.4-.6-.6-.3-1-.3.7-.3h.7l.8.4.2.8v.1zm60.6-5.5-1.1.2-1-.1-.1-.1.9-.3h.8z"/><path fill="#252a40" d="m907.2 833-1.5 4-26.7-.2h-1.9l-1.8.4-3 1.1h-.1l-1.2 1-.8 1.6-.2.5-1.2 3.5-.7 2.6-.1 2.3.4 2 .3 1.2.6.9 1 .5h1.3l1.4.3 1.5.2 5-.1 5 .1 4.8.4 4.6.6 2.2 1.5 1.7 1.6 1.2 1.6.7 1.6.5 3v3l-.2 3.5-.5 3.8-1.2 5.4-1.2 4.7-1.6 4.4-2.4 4.7-.2.3v.3l-.1.5-2.3 2.6-2.4 2.1-2.5 1.8-2.7 1.2-3.3 1-3.5.6-3.8.3h-4l-10.8-.3h-19.3l-.5-.4-.1-.4 2.5-13.5.3-.7.5-.5.6-.4.7-.1h30.5l1.8-.3 2-1 1.8-1.7 1.3-2.4.9-2.4.8-4 .1-4.1-.1-.8-.4-.7v-.2l-.8-.8-.7-.4h-1.5l-1.2-.4-18.5-.9-.7-.2-5-2.3-1.4-1.5-1-1.7-.9-2.2-.4-2.5v-5.1l.5-4.5 2.2-9.2 1-3.2 1.1-3 1.3-2.6 1.8-3 2-2 2-1.6 2-1.3 2.4-1 2.4-.8 2.6-.5 2.7-.3 28 .1h3l.2.1.9.1 1-.2 1.2.2h1.1l1.3-.5h.4l.3.3v.1zM581 820.6l.3.2h.5l.5-.2h6.9l2.3.2 2.6-.3-1.9 9.5-1 2.6-.3 2.5v.1l-.3.8-.5.6-.8.3h-.8l-2.9-.2-2.6.1-12.8.2-.9.3-.4.7-14.2 59.4-1.2 3.1-.4 3.4-.2.5-.3.5-.5.3h-.5L535 905v-1.2l.5-.7.3-.9 15-64.2v-.6l-.6-.3-.3.5-.6-.3-.5-.2H529l-.4-.2v-.4l3.3-15.4 48.2-.4z"/><path fill="#9d9f9e" d="m582.3 820.6-.5.2h-.5l-.4-.2.6-.1z"/><path fill="#252a40" d="M734.8 820.5h23.4l4 .7 3.6 1.3 1.7.8 1.5 1 1.3 1.2 1.2 1.4 1.7 2.5 1.2 2.9.6 3.1.1 3.4-.4 5.3-1 5.7-3.9 16.9-3.8 13.8-2 5.3-2.6 5.4-1.5 2.6-1.8 2.4-2 2-2 1.8-2.2 1.5-2.2 1.3-2.5 1-2.5.9-2.6.6-2.8.3H725l-5.9-.2-5-.4-2.4-.5-2.5-.9-2.5-1.3-2.5-1.7-.8-.7-.5-.8-.3-.6-.1-.7-.3-.5-.6-.3v-.2l-.8-3.4-.4-3.4-.1-3.3.2-3.2.4-2.7 3.3-15.3 4.1-16.7 1.7-5.5 1.8-5.6 1.7-3.5 2-3 2.4-2.8 2.6-2.4 3-2 3.5-1.6 3.8-1.2zm2.8 16.4-2.2.5-1.5.6-1.4.8-1 .5-.6.6-.8 1.4-1 1.8-1.8 3.6-1.2 3.8-4 17-3.4 16.7.5 1.5.7 1.2.8 1 1 .6 1.5.6 5.7.6h3.2l3.2-.2 2.4-.3 2.1-.6 1.8-.9 1.5-1.1 1.8-2.4 1-1.5 1-1.7 1.7-4.2 2.7-9.5 2-9.3 1.6-9 .9-8.7-1.2-1.2-1.3-1-2-.9-2.5-.3-3.9-.7h-3.6zm75.6-16.4 16.8.1h14.2l1 .3.5.3.3.6.1.6-.1.6v.1l-.7 1.6v1.3l.1.1-2.5 10.2-.4.6-.7.2-20.8-.1-5.3.4-5 1.1-.6.5-2.3 2.2-2 2.7-1.6 3.1-1.2 3.6-3.1 12.7-2 8.6-1.6 8.7-.2 1.6.1 1.5.3 1.3.6 1.2.5.6 1.2 1.2 1.3.6 1.4.3 14.4.2h14.5l.6.1v.6l-.2 1.5-.6 1.5-3.2 11.8-.4.5-.5.2-32.6-.1-2-.2-2-.3-5-1.6-.3-.2-1.4-1.1-.4-.6-.9-.5-.2-.7-.7-.3-2.6-6-.3-3.8v-6.7l.4-3 2.3-11.2 3.6-15 5.9-18.3 1.8-3 2-2.8 2.3-2.4 2.5-2 3.2-2 3.5-1.4 3.9-1zM267.4 851v.7l.2.7 1 .7.9.6-.1.1.6.4 3.1.5h5.2l.9.1h3l3-.2 3.8.3 3.6.6 2.4.8 2 1.4 1.1 1.3 1 1.7.6 2 .5 2 .1 3.3-.6 5.8-1 5.5-1.3 5.4-1.8 5.1-1.5 3.4-1.9 3-2.1 2.5-2.5 2.2-2.7 1.8-3 1.3-3.5 1-3.6.5-37.9-.1 1-5.1 1.8-7.5.2-1.4.4-1.2.7-.8 1-.2 29.5-.2 2-.3 1.8-.7 1.1-.8 1-1 .9-1.4.7-1.5 1-2.7.6-2.5.3-2.4.1-2.2-.3-1.3-.6-.7-.7-.6-1.8-.5-3.3-.2-12.5-.4-3.5-.4-3-.9-2.6-1.3-2-1.8-1.5-2.3-1-3-.4-3.3.3-4 .9-5.7 1.2-5.4 1.6-5 1.8-4.7 1.6-2.9 2-2.4 1.9-1.7 2.1-1.3 2.4-1.2 2.6-.8 2-.3 2.8-.3 8.5-.1h29.8l.3.1v.4l-3.3 14-.3.6-.4.5-.6.3-.7.1h-28.6l-2.3.3-1.4.6-1.3 1-1 1.7-1.4 3.5-.7 3.3zm72.6 49.1-.3.7-.6 1.7-.2 2-.5.5-.4.1-.3.2h-16.9l.2-1 4.6-20.8 10.5-45.4-.1-.5-.5-.3-2.3-.3-2.2-.1h-16.3l-.4-.1v-.4l3.3-14.2.5-.9 1-.3h60.3l.5.3.1.6-3.3 13.8-.6.9-1 .3h-18.6l-1.1.4-.6 1z"/><path fill="#9d9f9e" d="m592.2 830-1.3 6.3-.2.4-.4.1H583l2.6-.1 2.9.3h.8l.8-.4.5-.6.3-.8v-.1l.4-2.5zm-428.8 63.7 14.2-61.7zm-1.1-60.7-9.6 40.4v-1l9-38.9.4-.5zm744.9 0-.2 3.2-.2.4-.4.3h-.7zM784 854l1-5.6 1.7-5.3 1.4-3.7 1.8-3.7zm-35.2-17.1h-11.2l3.7-.6h3.6zM535 903.7l15-63.7v-2.5l.3-.5.5.3.1.6-15 64.2-.3 1zm119.6-66.5-12 51-.5-.2v-.3l6.8-28 5-22 .2-.4.4-.2zm57.1.5-1.8 5.6-1.6 5.5-4.2 16.7-3.3 15.3-.4 2.7-.2 3.2.1 3.3.4 3.4.7 3.4-.9-3-.5-2.8-.3-4.5.5-4.5 2.2-10.5 3-13 3.2-12.9.6-1.9 1.1-3zm99.1.8-2.4 2.6-2 3.1-1.7 3.6-1.3 4-3.5 13.8-2.6 11.7-.3 2.3v2.3l.1 2.4.5 2.5-.5-.6-.6-1.2-.3-1.3v-1.5l.1-1.6 1.7-8.7 1.9-8.6 3.1-12.7 1.2-3.6 1.6-3.1 2-2.7 2.3-2.2zm-78.3.3-2.4 2.5.8-1.4.7-.6zm12.4 45.5 2.8-6.7 1.3-3.8 1-3.9 3.5-14.1 1-6 1.3-9.5-1 8.7-1.4 9-2.1 9.3-2.7 9.5-1.7 4.2-1 1.7zM406 845.5l-9 18-.2-.3v-.1zm20.4 1.6.7 8-.6-2.2-.3-2.3zm58.5 56.9-4.4-15.7-3.4-11-5.5-18-2-6.7-.2-.5-.2-.1v-.9l.3-.5.3.4.5 1.4 1.2 4.8 1.3 4.6 5.2 17 5.2 17.5 1.4 6.4zm-217.5-53 1.2 2.1-1-.7-.2-.7zm601 .8 1 1 1 1 1.2.7-1.3-.1-1-.5-.6-.9zm-598.9 1.9 15.7.9-3 .3h-3l-.9-.1h-4.1l-1-.1-3.2-.5-.6-.4m-45.8 51.5-4.1.6-4.2.3H211l-4.5-.3-.3-.2-.3-.4-6.2-21.4-6.5-21.4-1.1-4.1-.8-4.2 14.8 50.3.2.3.4.1zm669.2-9.5v-.5l.1-.3.2-.3 2.4-4.7 1.6-4.4 1.2-4.7 1.2-5.4.5-3.7.3-3.5-.1-3.2-.5-2.9-.7-1.6-1.2-1.6-1.7-1.6-2.2-1.5 1.6.8 1.5 1 1.1 1 1 1.3.8 1.6.8 3.6.2 3.3-.7 5.3-1 5.4-1.6 5.5-2 5.7-1.4 3.1zm-482.2-26.7-.6-3.4-.1-2.2.2-2.2zm29.7 33.4 9.3-38.5zm417.3-33.7-1.6-.3-1.4-.5-2.1-1.5zM466 867l-3.2 13.5zm410.7 2.9-6 .1-6.9-.1-3-.3-2.6-.6zm-384.3-.1.8 3v.3l-.2.2-.1-.2-.7-1.6v-1.4zM213.5 872l1.1-2 .3 1.1v1.1l-.7 1v.1h-.5l-.3-.2v-1M878.3 886l1.8-4.4.7-1.8.4-1.8.1-1.7-.1-1.7-.7-2.2-1.1-2.1.7.4.7.8.1.1.4.8.1.8v4.1l-.9 4-1 2.4zm-257.7 17.3 7.6-31.8zm-467.9-29.9-4 17zm32.3.4-1.3 6 .3-2.7.8-2.6zm-1.5 7.1-.7 3.4V883l.2-1.2zM128 901.4l4.2-17.8zm193 2.8 4.6-20.7zm-138.4-19.8v1.4l-.3 1.3-.6 1.4v-1.4l.4-1.3zm536.1-.2 1.3 2 1.2 1.3 1.3.9 1.3.4 6.5.4 5.5-.1 1.8-.2 1.8-.5 1.8-.8 1.9-1-1.5 1.1-1.8.9-2.1.6-2.4.3-3.2.2h-3.2l-5.7-.6-1.5-.6-1-.7-.8-1-.7-1.1zm-490.5.8-1.4 6.1.3-2.6.6-2.5zm279.8.5-4.3 19-.2.6-.5.5-.5.4h-16.7l-.8-.4v-1.1l.6.4.4.2h15.8l1-.2.4-.8zm-95.5 8.3-.4-1.5-.1-1.8.2-1.9.4 1.5v1.8zm48.3-4.3-1 4 .2-2.1zm-234.1 1.9-2.4 11zm11.3 8.9 1.7-7.5zm592.2-7.5-2.6 11.4-.3.8-.5.6-.7.4-.8.1h-15l-14.8-.3-3.2-.3-3.1-.7-2.4-.7-2.3-1 5 1.6 2 .3 2 .2 32.6.1.5-.2.4-.5zm-49.6 6.9-.8-1-1.2-2.3-.6-2.7zm-600-5.7-1.8 7.3.5-3.6zm712.2 1.8-2 2.9-2.4 2.2-1.8 1.2-2 1-4.3 1.3-4.6 1-5 .5-5.2.3-15.7-.1-11.5-.3-.5-.1-.3-.4-.1-.4.2-.6.1.4.5.3.8.1h18.5l10.8.3h4l3.8-.3 3.5-.6 3.3-1 2.7-1.2 2.5-1.7 2.4-2.2zM679 896l-1.9 2-2 1.6.4-.6 1.6-1.6zm-518 8.7.4-3.6.5-2.3.8-2.3zm541.5-6.1-.6-.7-.4-1 .6.4.3.5zm-147.8-1.2-1.8 7.9-.4.6-.6.2-16.4-.1-.4-.2-.2-.4.1-.5 16.6.4.5-.1.5-.3.3-.5.2-.5.4-3.4zm-123.3.4.6 7v.5l-.3.4-.3.3H414l-.4-.4-.4-.5-.1-.6-.2-6 .4 5.4.1.5.3.5.5.3h16.5l.6-.2.3-.8zm243.6 1.8-2.6 1.7-1.7.9-1.8.6zm106.5 1.2-.7-.5-.2-.6.7.3zm-441.5-.7-.2 2-.6 1.7-.3.7.2-2 .6-1.7zm399.3 5.5-7.6.6h-3.3l-6-.2-4.5-.3-4-.6-4-.8-2.4-1-2-1.3-1.4-1.4 2.5 1.7 2.5 1.3 2.5 1 2.5.4 5 .4 5.8.2zm43.5-3.8-1-.7-.3-.4.9.5zm-324.8-.7v.5l-.2 1.6-.5 1.5.1-2zM145.9 903v1.3l-.4 1-1 .6-1.5.3-15-.2-.7-.4-.2-.7v-.1l.2-.3.5.5.6.3h.4l15.3-.1.4-.2.3-.3zm517.3 1.7-6.9 1-5.3.4h-15l-15.4-.2-.5-.2-.1-.6.3-.9.4.7.4.4h.4l9.9-.2h5.9l14.1.2 6.2-.2zm-288 .5-4.8.8-5 .3-5-.2-5.1-.8zm82.1-.5-.4.8-.6.4-.8.1-4.2.1H444l-2.1-.2-2-.6h16.7zM161 905l.5.3.6.1 7.9-.2 8 .3-4 .4-4 .3h-4l-4.2-.2-.6-.2-.4-.4zm76 .4 37.8.1-14.3.6-17.5-.1-3.7-.2zm83.8-.1h16.9l.3-.1.4-.2v.5l-.3.3h-.6l-4.4.3h-4.4l-6.9-.4-.7-.2z"/></svg>