<?xml version="1.0" encoding="UTF-8" standalone="no"?>
<!DOCTYPE svg PUBLIC "-//W3C//DTD SVG 1.1//EN" "http://www.w3.org/Graphics/SVG/1.1/DTD/svg11.dtd">
<svg xmlns="http://www.w3.org/2000/svg" version="1.1" viewBox="0.00 0.00 1024.00 1024.00">
<path fill="#ffffff" d="
  M 626.12 354.91
  L 626.12 355.55
  L 626.62 355.95
  L 626.78 355.97
  L 769.00 355.94
  L 770.69 355.93
  L 776.93 356.04
  L 781.32 356.64
  L 783.21 357.18
  L 784.77 357.84
  L 786.12 358.66
  L 787.29 359.68
  L 788.94 361.64
  L 790.25 363.67
  L 791.23 365.78
  L 791.89 367.96
  L 791.89 367.96
  L 792.09 369.10
  L 792.11 369.24
  L 792.11 369.24
  L 792.15 371.56
  L 791.71 373.94
  L 790.78 376.39
  L 789.36 378.89
  L 785.68 383.67
  L 780.32 389.32
  L 745.06 424.41
  L 730.28 439.69
  L 714.87 455.62
  L 496.13 674.42
  L 485.61 684.70
  L 477.22 692.88
  L 471.05 699.21
  L 465.59 704.72
  L 457.17 712.70
  L 447.98 721.48
  L 385.58 784.08
  L 383.62 785.69
  L 381.47 786.71
  L 380.10 787.05
  L 377.70 787.32
  L 375.63 787.31
  L 373.71 787.02
  L 371.89 786.43
  L 369.50 785.03
  L 367.27 782.89
  L 365.59 780.44
  L 364.55 777.82
  L 364.55 777.82
  L 364.55 777.82
  L 364.55 777.82
  L 364.19 775.62
  L 364.24 773.31
  L 364.70 770.89
  L 365.56 768.37
  L 370.50 756.87
  L 419.95 640.83
  L 427.67 622.37
  L 469.44 522.16
  L 469.57 521.67
  L 469.49 521.33
  L 469.49 521.33
  L 469.49 521.33
  L 469.20 521.11
  L 468.70 521.04
  L 289.46 521.12
  L 286.50 521.03
  L 283.60 520.72
  L 280.88 520.22
  L 278.24 519.51
  L 275.78 518.62
  L 273.43 517.52
  L 271.27 516.25
  L 269.23 514.78
  L 266.83 512.61
  L 264.64 510.08
  L 263.31 508.02
  L 262.38 505.82
  L 262.38 505.82
  L 262.38 505.82
  L 261.74 502.61
  L 261.84 499.15
  L 262.86 494.33
  L 263.62 492.10
  L 264.55 490.00
  L 398.35 222.10
  L 404.27 209.68
  L 410.27 197.30
  L 444.00 129.74
  L 447.08 124.05
  L 450.51 118.83
  L 454.17 114.23
  L 458.10 110.21
  L 462.27 106.82
  L 466.62 104.10
  L 471.13 102.06
  L 475.76 100.70
  L 476.16 100.62
  L 478.76 100.30
  L 482.91 100.07
  L 495.89 99.91
  L 614.12 100.02
  L 723.02 99.88
  L 723.25 99.88
  L 728.24 99.95
  L 731.93 100.28
  L 734.78 100.91
  L 736.92 101.88
  L 738.87 103.24
  L 740.44 104.61
  L 741.71 106.05
  L 742.75 107.67
  L 743.45 109.27
  L 743.95 111.06
  L 744.33 114.16
  L 744.21 117.19
  L 744.21 117.19
  L 743.68 119.88
  L 742.74 122.52
  L 741.65 125.02
  L 737.03 135.17
  L 693.41 222.39
  L 688.23 232.31
  L 682.44 243.40
  L 653.62 300.95
  L 644.50 318.74
  L 635.46 336.17
  L 626.12 354.91
  Z
  M 589.48 211.97
  L 589.90 211.85
  L 590.19 211.52
  L 631.71 123.02
  L 631.79 122.24
  L 631.05 121.98
  L 493.80 122.08
  L 488.86 122.17
  L 484.80 122.45
  L 481.63 122.89
  L 479.34 123.52
  L 475.94 125.18
  L 473.61 126.78
  L 471.46 128.70
  L 469.50 130.92
  L 467.72 133.46
  L 465.03 138.12
  L 462.55 143.16
  L 458.21 152.68
  L 441.29 186.80
  L 434.73 199.81
  L 429.11 210.81
  L 429.05 210.98
  L 429.21 211.67
  L 429.84 211.97
  L 589.48 211.97
  Z
  M 556.86 244.53
  L 556.04 264.47
  L 555.93 274.20
  L 556.03 283.78
  L 556.16 284.28
  L 556.49 283.88
  L 560.76 275.50
  L 574.20 245.82
  L 576.10 241.82
  L 579.65 234.25
  L 581.85 228.84
  L 581.84 228.52
  L 581.60 228.30
  L 581.59 228.30
  L 578.54 227.64
  L 575.64 227.60
  L 571.84 227.89
  L 565.51 227.98
  L 423.03 227.98
  L 421.74 228.23
  L 421.74 228.23
  L 420.76 228.87
  L 419.94 229.92
  L 416.75 235.90
  L 414.22 241.85
  L 414.28 242.55
  L 414.85 242.96
  L 414.85 242.96
  L 415.00 242.97
  L 552.00 242.99
  L 554.57 243.18
  L 556.42 243.75
  L 556.77 244.07
  L 556.86 244.53
  Z
  M 524.76 274.54
  L 524.79 277.47
  L 524.87 278.51
  L 525.10 290.96
  L 525.06 302.99
  L 524.77 314.60
  L 524.22 325.78
  L 523.95 335.60
  L 524.37 344.87
  L 524.45 348.69
  L 524.10 352.50
  L 524.16 353.21
  L 524.61 352.67
  L 526.93 348.17
  L 529.97 341.58
  L 532.16 336.82
  L 539.07 322.79
  L 540.13 320.03
  L 540.74 317.09
  L 540.97 291.12
  L 540.93 258.97
  L 540.65 258.30
  L 539.97 258.02
  L 407.84 258.02
  L 406.99 258.14
  L 406.21 258.48
  L 405.55 259.03
  L 405.06 259.73
  L 398.67 272.48
  L 398.62 272.86
  L 398.99 272.99
  L 523.49 272.99
  L 523.62 273.00
  L 524.13 273.16
  L 524.53 273.51
  L 524.75 274.00
  L 524.76 274.54
  Z
  M 380.15 309.68
  L 380.06 310.12
  L 380.19 310.55
  L 380.52 310.87
  L 380.96 310.98
  L 482.10 310.98
  L 482.55 311.10
  L 482.88 311.43
  L 483.00 311.88
  L 483.00 403.10
  L 483.26 403.74
  L 483.90 404.00
  L 508.02 404.00
  L 508.06 404.00
  L 508.67 403.72
  L 508.92 403.10
  L 508.92 289.91
  L 508.77 289.41
  L 508.36 289.08
  L 508.02 289.01
  L 391.07 289.01
  L 390.59 289.14
  L 390.26 289.51
  L 380.15 309.68
  Z
  M 565.27 434.99
  L 565.84 435.18
  L 566.03 435.75
  L 566.03 497.51
  L 566.10 498.29
  L 566.33 498.62
  L 566.33 498.62
  L 566.70 498.49
  L 567.23 497.90
  L 581.09 479.12
  L 581.73 477.88
  L 581.95 476.50
  L 581.95 420.90
  L 581.73 420.23
  L 581.06 420.01
  L 468.88 420.01
  L 468.88 420.01
  L 468.26 419.75
  L 468.00 419.12
  L 468.00 327.75
  L 467.78 327.21
  L 467.24 326.99
  L 376.45 327.05
  L 372.55 327.07
  L 371.27 327.55
  L 370.21 328.51
  L 369.43 329.94
  L 367.04 335.75
  L 364.50 341.15
  L 364.42 341.76
  L 365.01 341.97
  L 449.47 341.97
  L 450.58 342.13
  L 451.37 342.60
  L 451.37 342.60
  L 451.37 342.60
  L 451.84 343.39
  L 452.00 344.50
  L 452.00 433.73
  L 452.37 434.62
  L 453.26 434.99
  L 565.27 434.99
  Z
  M 533.34 466.56
  L 534.07 466.61
  L 534.60 466.88
  L 534.60 466.88
  L 534.91 467.39
  L 535.02 468.12
  L 535.02 542.30
  L 535.19 542.99
  L 535.71 542.51
  L 539.92 536.39
  L 544.58 530.27
  L 546.61 527.46
  L 548.53 524.53
  L 549.81 522.55
  L 550.58 520.09
  L 550.81 517.02
  L 550.95 462.02
  L 550.82 457.42
  L 550.41 452.77
  L 550.21 452.00
  L 549.81 451.45
  L 549.81 451.45
  L 549.22 451.12
  L 548.42 451.01
  L 436.82 451.01
  L 436.81 451.01
  L 436.30 450.78
  L 436.10 450.26
  L 436.71 428.71
  L 437.02 407.05
  L 437.03 385.26
  L 436.74 363.35
  L 436.58 361.06
  L 436.19 358.93
  L 435.75 358.25
  L 434.99 357.99
  L 357.79 357.99
  L 356.99 358.10
  L 356.26 358.42
  L 355.64 358.94
  L 355.18 359.60
  L 349.22 371.48
  L 349.11 371.93
  L 349.21 372.37
  L 349.50 372.73
  L 349.91 372.93
  L 350.14 372.96
  L 418.19 372.96
  L 418.89 373.10
  L 419.48 373.49
  L 419.88 374.08
  L 420.02 374.78
  L 420.02 374.78
  L 420.02 465.16
  L 420.18 465.68
  L 420.66 465.93
  L 426.67 466.71
  L 433.75 466.97
  L 523.00 466.96
  L 533.34 466.56
  Z
  M 388.89 405.31
  L 388.89 464.11
  L 388.82 464.62
  L 388.67 465.01
  L 388.49 465.62
  L 388.49 465.66
  L 388.59 465.97
  L 388.89 466.07
  L 404.10 466.07
  L 404.71 465.82
  L 404.96 465.21
  L 404.96 390.10
  L 404.70 389.31
  L 403.91 389.05
  L 342.03 389.05
  L 340.70 389.43
  L 339.77 390.45
  L 333.37 403.23
  L 333.30 403.79
  L 333.83 403.98
  L 387.56 403.98
  L 388.07 404.08
  L 388.50 404.37
  L 388.79 404.80
  L 388.89 405.31
  Z
  M 372.98 481.34
  L 372.98 420.99
  L 372.69 420.29
  L 371.99 420.00
  L 326.78 420.00
  L 325.98 420.11
  L 325.25 420.44
  L 324.63 420.95
  L 324.18 421.61
  L 318.35 433.23
  L 318.09 433.99
  L 318.18 434.54
  L 318.18 434.54
  L 318.63 434.86
  L 319.42 434.97
  L 354.89 434.97
  L 355.82 435.10
  L 356.48 435.50
  L 356.48 435.50
  L 356.48 435.50
  L 356.88 436.16
  L 357.01 437.08
  L 357.01 481.36
  L 356.77 481.93
  L 356.19 482.17
  L 342.27 482.17
  L 341.63 482.00
  L 341.16 481.53
  L 340.99 480.89
  L 340.99 452.24
  L 340.68 451.30
  L 339.73 450.98
  L 311.08 450.98
  L 309.73 451.36
  L 308.78 452.40
  L 302.35 465.24
  L 302.09 465.99
  L 302.19 466.53
  L 302.19 466.53
  L 302.19 466.53
  L 302.63 466.85
  L 303.42 466.96
  L 323.84 466.96
  L 324.67 467.30
  L 325.01 468.13
  L 325.01 497.24
  L 325.22 497.76
  L 325.73 497.97
  L 502.25 497.97
  L 502.80 498.20
  L 503.03 498.75
  L 503.03 588.73
  L 503.12 589.09
  L 503.41 588.85
  L 517.38 568.89
  L 518.02 567.77
  L 518.49 566.50
  L 518.86 563.50
  L 519.02 482.74
  L 518.80 482.22
  L 518.28 482.00
  L 373.64 482.00
  L 373.15 481.84
  L 372.98 481.34
  Z
  M 598.88 454.21
  L 601.72 449.98
  L 613.72 433.71
  L 614.46 432.55
  L 614.76 431.73
  L 614.98 429.48
  L 615.12 424.99
  L 614.87 420.46
  L 614.70 420.12
  L 614.35 419.98
  L 598.77 419.98
  L 598.21 420.17
  L 598.02 420.73
  L 598.02 453.97
  L 598.23 454.83
  L 598.88 454.21
  Z
  M 286.36 497.23
  L 286.28 497.80
  L 286.81 497.98
  L 309.25 497.98
  L 309.25 497.98
  L 309.77 497.76
  L 309.99 497.23
  L 309.99 483.22
  L 309.91 482.64
  L 309.66 482.23
  L 309.66 482.23
  L 309.66 482.23
  L 309.26 481.99
  L 308.69 481.91
  L 295.94 481.91
  L 295.10 482.03
  L 294.32 482.37
  L 293.66 482.92
  L 293.18 483.62
  L 286.36 497.23
  Z
  M 486.81 612.10
  L 486.88 611.90
  L 486.88 540.05
  L 486.68 539.73
  L 486.31 539.80
  L 486.22 539.92
  L 471.12 578.36
  L 471.10 578.48
  L 471.10 632.38
  L 471.18 632.60
  L 471.45 632.72
  L 471.71 632.58
  L 486.81 612.10
  Z
  M 454.97 619.38
  L 454.92 618.55
  L 454.68 617.89
  L 454.21 618.57
  L 417.55 706.33
  L 417.19 707.70
  L 418.23 706.71
  L 422.97 700.12
  L 427.70 693.51
  L 439.80 677.03
  L 453.18 658.31
  L 454.34 656.25
  L 454.85 654.26
  L 455.07 650.83
  L 455.09 646.81
  L 454.96 631.79
  L 455.05 621.25
  L 454.97 619.38
  Z"
/>
<rect fill="#ffffff" x="473.86" y="136.98" width="112.16" height="15.02" rx="1.14"/>
<rect fill="#ffffff" x="474.97" y="167.98" width="94.02" height="15.02" rx="0.68"/>
<path fill="#ffffff" d="
  M 550.02 838.53
  L 549.92 837.86
  L 549.63 837.39
  L 549.16 837.10
  L 548.49 837.01
  L 528.75 837.01
  L 528.31 836.86
  L 528.27 836.40
  L 531.96 820.91
  L 532.42 820.19
  L 533.22 819.91
  L 564.07 819.96
  L 586.85 820.53
  L 589.37 820.47
  L 593.15 820.12
  L 593.64 820.17
  L 594.07 820.43
  L 594.34 820.84
  L 594.42 821.32
  L 594.39 821.52
  L 590.98 835.81
  L 590.45 836.73
  L 589.44 837.03
  L 571.08 837.03
  L 570.27 837.14
  L 569.63 837.47
  L 569.17 838.01
  L 568.87 838.77
  L 553.02 905.21
  L 552.63 905.82
  L 551.95 906.06
  L 535.83 906.06
  L 535.72 906.05
  L 534.98 905.62
  L 534.81 904.79
  L 549.66 841.03
  L 550.02 838.53
  Z"
/>
<path fill="#ffffff" d="
  M 758.62 895.61
  L 756.68 897.85
  L 754.36 899.88
  L 751.65 901.71
  L 748.56 903.33
  L 746.40 904.21
  L 744.16 904.91
  L 739.12 905.85
  L 733.14 906.24
  L 724.74 906.17
  L 716.90 905.74
  L 713.96 905.32
  L 711.36 904.72
  L 708.97 903.91
  L 706.95 902.93
  L 705.17 901.72
  L 703.60 900.24
  L 702.20 898.35
  L 701.09 896.10
  L 700.32 893.58
  L 699.85 890.67
  L 699.76 887.98
  L 699.95 884.78
  L 700.43 881.07
  L 701.16 877.18
  L 704.50 862.19
  L 708.14 847.13
  L 709.20 843.40
  L 710.45 839.97
  L 711.92 836.73
  L 713.55 833.82
  L 715.35 831.21
  L 717.40 828.80
  L 719.60 826.72
  L 722.04 824.86
  L 724.03 823.64
  L 727.22 822.18
  L 730.97 821.07
  L 735.25 820.29
  L 740.09 819.85
  L 749.01 819.75
  L 757.82 820.39
  L 761.31 820.96
  L 764.33 821.81
  L 766.89 822.92
  L 768.99 824.31
  L 770.98 826.21
  L 772.53 828.28
  L 773.60 830.28
  L 774.37 832.39
  L 774.88 834.64
  L 775.15 837.18
  L 775.16 839.83
  L 774.94 842.74
  L 773.71 849.74
  L 772.94 853.26
  L 770.25 865.16
  L 767.92 874.11
  L 765.45 881.95
  L 762.86 888.60
  L 761.10 891.96
  L 758.62 895.61
  Z
  M 720.19 875.24
  L 719.23 879.85
  L 719.00 882.75
  L 719.19 884.12
  L 719.54 885.32
  L 720.07 886.34
  L 720.76 887.20
  L 720.76 887.20
  L 720.76 887.20
  L 721.57 887.84
  L 722.51 888.34
  L 724.85 888.88
  L 730.37 889.16
  L 736.47 888.98
  L 739.17 888.51
  L 741.53 887.47
  L 741.53 887.47
  L 741.53 887.47
  L 741.53 887.47
  L 742.79 886.55
  L 743.93 885.43
  L 744.93 884.09
  L 745.81 882.54
  L 748.02 876.97
  L 750.23 869.26
  L 752.51 859.87
  L 754.35 851.40
  L 754.95 846.69
  L 755.01 841.33
  L 754.67 839.30
  L 754.67 839.29
  L 754.15 838.50
  L 753.11 837.85
  L 751.63 837.40
  L 749.82 837.15
  L 740.08 836.86
  L 736.29 837.19
  L 734.83 837.60
  L 733.68 838.19
  L 733.05 838.63
  L 730.71 840.80
  L 728.78 843.54
  L 727.20 846.95
  L 725.99 851.00
  L 720.19 875.24
  Z"
/>
<path fill="#ffffff" d="
  M 907.00 820.71
  L 908.00 820.77
  L 908.99 820.54
  L 909.53 820.41
  L 909.89 820.51
  L 909.89 820.51
  L 909.89 820.51
  L 910.09 820.94
  L 910.01 821.73
  L 906.66 836.48
  L 906.31 837.04
  L 906.06 837.10
  L 876.56 837.06
  L 875.11 837.20
  L 873.75 837.58
  L 872.58 838.16
  L 871.55 838.98
  L 870.71 840.01
  L 870.07 841.29
  L 868.55 845.87
  L 867.99 849.06
  L 868.20 851.06
  L 868.92 852.54
  L 869.99 853.52
  L 871.35 854.18
  L 873.14 854.60
  L 875.36 854.78
  L 886.78 854.97
  L 890.43 855.12
  L 893.53 855.77
  L 896.10 856.92
  L 898.12 858.57
  L 898.12 858.57
  L 899.60 860.72
  L 900.55 863.36
  L 900.95 866.50
  L 900.82 870.13
  L 900.23 874.59
  L 899.38 878.96
  L 898.27 883.24
  L 896.90 887.43
  L 896.90 887.43
  L 894.89 892.38
  L 893.77 894.59
  L 892.50 896.58
  L 891.06 898.36
  L 889.46 899.93
  L 887.57 901.37
  L 885.48 902.59
  L 883.17 903.61
  L 880.63 904.42
  L 877.46 905.16
  L 874.16 905.69
  L 870.72 906.01
  L 867.14 906.12
  L 838.54 905.91
  L 837.82 905.79
  L 837.36 905.47
  L 837.36 905.47
  L 837.36 905.47
  L 837.17 904.96
  L 837.24 904.24
  L 840.58 890.21
  L 841.13 889.34
  L 842.10 889.00
  L 872.53 888.96
  L 874.31 888.76
  L 875.86 888.15
  L 875.86 888.15
  L 875.86 888.15
  L 877.34 886.97
  L 878.52 885.27
  L 880.03 881.68
  L 880.90 877.99
  L 881.02 874.65
  L 880.81 873.12
  L 880.40 871.66
  L 879.79 870.95
  L 878.32 870.31
  L 877.15 870.10
  L 864.77 870.00
  L 860.21 869.61
  L 856.46 868.70
  L 854.93 868.06
  L 853.52 867.25
  L 852.33 866.33
  L 851.28 865.23
  L 850.42 863.99
  L 849.72 862.57
  L 849.23 861.04
  L 848.91 859.33
  L 848.70 856.86
  L 848.69 854.31
  L 849.29 849.01
  L 850.76 842.35
  L 852.59 836.08
  L 853.84 832.93
  L 855.43 829.95
  L 857.14 827.51
  L 858.98 825.61
  L 862.21 823.36
  L 864.02 822.46
  L 865.92 821.74
  L 870.03 820.83
  L 876.76 820.13
  L 883.50 819.77
  L 883.50 819.77
  L 883.50 819.77
  L 892.26 819.82
  L 901.03 820.45
  L 903.41 820.50
  L 905.46 820.52
  L 907.00 820.71
  Z"
/>
<path fill="#ffffff" d="
  M 163.01 820.41
  L 163.95 820.17
  L 164.65 820.26
  L 165.12 820.55
  L 165.32 820.90
  L 165.32 820.90
  L 165.31 821.13
  L 145.51 904.76
  L 144.91 905.69
  L 143.87 906.05
  L 127.67 906.05
  L 127.56 906.04
  L 126.86 905.63
  L 126.71 904.83
  L 146.70 821.03
  L 147.08 820.42
  L 147.75 820.16
  L 150.45 820.21
  L 153.27 820.60
  L 156.36 820.78
  L 161.30 820.49
  L 162.03 820.47
  L 162.78 820.48
  L 163.01 820.41
  Z"
/>
<path fill="#ffffff" d="
  M 797.74 886.60
  L 798.31 887.58
  L 798.31 887.58
  L 799.63 888.47
  L 801.57 888.83
  L 813.30 889.03
  L 829.46 888.89
  L 830.20 888.98
  L 830.67 889.29
  L 830.67 889.29
  L 830.88 889.82
  L 830.81 890.56
  L 827.41 904.80
  L 826.86 905.67
  L 825.89 906.02
  L 804.12 906.05
  L 802.68 906.04
  L 794.32 905.74
  L 791.20 905.34
  L 788.42 904.72
  L 785.92 903.86
  L 783.81 902.79
  L 782.01 901.48
  L 780.47 899.85
  L 779.56 898.49
  L 778.82 896.94
  L 778.28 895.30
  L 777.91 893.47
  L 777.59 889.83
  L 777.62 885.90
  L 778.00 881.69
  L 778.74 877.20
  L 781.08 866.19
  L 784.64 850.59
  L 785.86 845.81
  L 787.12 841.82
  L 788.54 838.32
  L 790.15 835.13
  L 793.13 830.63
  L 795.12 828.31
  L 797.28 826.36
  L 799.21 824.97
  L 801.23 823.80
  L 803.47 822.78
  L 805.80 821.95
  L 811.07 820.73
  L 817.54 820.05
  L 821.11 819.95
  L 824.97 820.09
  L 826.65 820.20
  L 836.21 820.68
  L 842.92 820.54
  L 845.62 820.30
  L 846.32 820.53
  L 846.59 821.22
  L 846.57 821.37
  L 842.97 836.46
  L 842.66 836.95
  L 842.10 837.14
  L 821.00 836.93
  L 817.90 837.07
  L 814.32 837.54
  L 812.31 838.09
  L 810.57 839.02
  L 809.34 840.08
  L 806.75 843.32
  L 804.89 846.85
  L 804.18 848.93
  L 800.55 862.82
  L 797.49 876.76
  L 797.07 879.60
  L 796.97 882.18
  L 797.19 884.52
  L 797.74 886.60
  Z"
/>
<path fill="#ffffff" d="
  M 190.91 853.21
  L 190.59 852.49
  L 190.25 853.21
  L 177.84 905.23
  L 177.46 905.81
  L 176.81 906.04
  L 161.80 906.04
  L 161.20 905.95
  L 160.81 905.69
  L 160.64 905.26
  L 160.69 904.65
  L 179.76 821.75
  L 180.20 821.16
  L 181.02 820.94
  L 192.67 820.55
  L 194.28 820.60
  L 196.49 820.92
  L 196.87 820.98
  L 197.37 821.16
  L 197.76 821.51
  L 198.43 822.67
  L 199.06 824.37
  L 206.63 848.17
  L 210.26 859.91
  L 213.39 871.44
  L 213.68 872.03
  L 213.96 871.44
  L 224.96 821.74
  L 225.19 821.12
  L 225.57 820.70
  L 225.57 820.70
  L 226.09 820.49
  L 226.75 820.49
  L 230.51 820.85
  L 234.38 820.94
  L 238.33 820.76
  L 242.39 820.32
  L 242.86 820.45
  L 243.07 820.89
  L 243.07 820.89
  L 243.07 820.96
  L 242.76 823.75
  L 236.75 850.33
  L 232.15 869.78
  L 227.75 887.68
  L 224.12 904.03
  L 223.80 904.83
  L 223.24 905.48
  L 222.48 905.90
  L 221.63 906.05
  L 207.06 906.05
  L 206.31 905.80
  L 205.86 905.15
  L 199.68 883.84
  L 192.98 861.55
  L 190.91 853.21
  Z"
/>
<path fill="#ffffff" d="
  M 411.88 889.00
  L 411.54 888.32
  L 410.83 888.04
  L 386.53 887.97
  L 385.29 888.08
  L 384.30 888.45
  L 383.50 889.09
  L 382.77 890.08
  L 379.15 896.63
  L 375.22 904.90
  L 374.46 905.78
  L 373.34 906.09
  L 360.26 906.14
  L 358.21 906.13
  L 356.63 905.86
  L 356.01 905.58
  L 355.68 905.19
  L 355.68 905.19
  L 355.68 905.19
  L 355.64 904.68
  L 355.88 904.06
  L 384.15 853.55
  L 392.73 837.48
  L 401.46 821.28
  L 401.83 820.91
  L 402.34 820.77
  L 422.67 820.77
  L 423.60 821.07
  L 424.00 821.98
  L 432.20 904.45
  L 432.21 904.52
  L 432.12 905.09
  L 431.81 905.58
  L 431.34 905.91
  L 430.77 906.03
  L 414.92 906.03
  L 413.92 905.65
  L 413.44 904.69
  L 411.88 889.00
  Z
  M 408.68 840.89
  L 408.52 840.28
  L 408.16 840.81
  L 404.60 848.82
  L 399.66 858.82
  L 397.35 862.90
  L 394.09 868.66
  L 392.40 872.44
  L 392.40 872.85
  L 392.79 872.99
  L 409.60 872.99
  L 410.40 872.72
  L 410.62 871.90
  L 408.68 840.89
  Z"
/>
<path fill="#ffffff" d="
  M 493.22 872.51
  L 504.42 821.88
  L 504.69 821.27
  L 505.19 820.80
  L 505.85 820.52
  L 506.58 820.48
  L 510.50 820.78
  L 514.48 820.85
  L 518.49 820.70
  L 522.56 820.33
  L 523.07 820.50
  L 523.28 820.99
  L 523.28 820.99
  L 523.26 821.10
  L 503.26 904.90
  L 502.73 905.74
  L 501.79 906.07
  L 486.13 906.07
  L 485.66 905.90
  L 485.37 905.46
  L 469.93 853.21
  L 469.69 852.80
  L 469.48 853.23
  L 457.10 905.11
  L 456.67 905.79
  L 455.90 906.06
  L 440.58 906.06
  L 440.54 906.06
  L 440.06 905.81
  L 439.91 905.29
  L 440.04 904.23
  L 440.77 899.59
  L 459.44 821.31
  L 459.70 820.86
  L 460.19 820.71
  L 475.88 820.71
  L 476.26 820.81
  L 476.52 821.08
  L 477.87 823.62
  L 478.68 825.61
  L 493.15 872.55
  L 493.18 872.60
  L 493.22 872.51
  Z"
/>
<path fill="#ffffff" d="
  M 644.33 820.55
  L 649.75 820.69
  L 671.74 820.94
  L 681.97 821.24
  L 685.09 821.77
  L 687.92 822.87
  L 687.92 822.87
  L 690.13 824.29
  L 692.13 826.14
  L 693.90 828.42
  L 695.45 831.13
  L 695.81 832.23
  L 696.05 833.87
  L 696.20 838.75
  L 696.05 842.67
  L 695.69 846.63
  L 694.37 854.65
  L 691.31 867.99
  L 688.33 878.82
  L 686.24 884.62
  L 683.72 889.69
  L 680.78 894.04
  L 677.34 897.77
  L 675.16 899.56
  L 672.76 901.10
  L 670.04 902.49
  L 667.17 903.63
  L 664.04 904.57
  L 660.66 905.29
  L 657.19 905.75
  L 653.78 905.95
  L 638.28 906.12
  L 621.00 906.04
  L 620.25 905.69
  L 620.01 904.90
  L 620.03 904.79
  L 640.04 820.92
  L 641.03 820.34
  L 641.76 820.17
  L 642.73 820.26
  L 644.33 820.55
  Z
  M 655.43 837.32
  L 654.87 837.58
  L 654.56 838.11
  L 642.57 888.33
  L 642.60 888.64
  L 642.87 888.77
  L 648.47 889.11
  L 656.24 888.95
  L 659.51 888.46
  L 662.45 887.28
  L 664.96 885.46
  L 667.13 882.95
  L 668.98 879.69
  L 670.50 875.72
  L 672.27 869.69
  L 673.89 863.35
  L 675.35 856.70
  L 676.66 849.73
  L 676.94 847.52
  L 677.00 845.46
  L 676.83 843.56
  L 676.43 841.82
  L 675.56 839.96
  L 674.29 838.74
  L 674.29 838.74
  L 673.16 838.26
  L 668.28 837.29
  L 668.28 837.29
  L 665.12 836.96
  L 661.92 836.86
  L 658.69 836.98
  L 655.43 837.32
  Z"
/>
<path fill="#ffffff" d="
  M 276.59 854.16
  L 281.82 854.23
  L 286.34 854.50
  L 290.16 854.96
  L 293.28 855.61
  L 295.08 856.29
  L 296.56 857.26
  L 297.85 858.58
  L 298.84 860.14
  L 299.58 861.97
  L 300.09 864.16
  L 300.33 866.61
  L 300.33 869.31
  L 300.06 872.34
  L 299.54 875.53
  L 297.62 883.83
  L 296.55 887.33
  L 295.41 890.38
  L 294.10 893.14
  L 292.56 895.64
  L 290.79 897.88
  L 288.79 899.86
  L 288.79 899.86
  L 288.79 899.86
  L 286.93 901.33
  L 284.90 902.61
  L 282.70 903.70
  L 280.35 904.61
  L 276.15 905.51
  L 270.32 905.96
  L 256.67 906.12
  L 237.59 905.89
  L 236.93 905.58
  L 236.72 904.90
  L 236.74 904.80
  L 240.07 890.83
  L 240.39 890.08
  L 240.94 889.47
  L 241.65 889.08
  L 242.46 888.95
  L 270.25 889.02
  L 272.08 888.91
  L 273.73 888.56
  L 275.19 887.97
  L 276.45 887.15
  L 277.39 886.25
  L 278.58 884.42
  L 279.60 881.89
  L 280.45 878.57
  L 281.01 874.97
  L 280.94 873.05
  L 280.27 871.64
  L 280.27 871.64
  L 279.66 871.09
  L 278.86 870.68
  L 276.73 870.32
  L 261.07 869.81
  L 257.87 869.39
  L 255.10 868.56
  L 252.77 867.34
  L 250.87 865.71
  L 250.87 865.71
  L 250.87 865.71
  L 249.51 863.85
  L 248.52 861.64
  L 248.00 859.26
  L 247.86 856.28
  L 248.09 852.72
  L 248.70 848.57
  L 249.69 843.73
  L 250.83 839.37
  L 252.13 835.50
  L 253.57 832.11
  L 254.87 829.77
  L 256.36 827.70
  L 258.04 825.91
  L 259.92 824.40
  L 259.92 824.40
  L 259.92 824.40
  L 262.31 823.01
  L 264.97 821.99
  L 267.88 821.34
  L 271.04 821.05
  L 290.04 820.79
  L 309.24 821.15
  L 309.56 821.27
  L 309.59 821.60
  L 306.15 836.01
  L 305.60 836.86
  L 304.64 837.19
  L 275.26 837.05
  L 273.51 837.32
  L 271.96 837.95
  L 270.66 838.95
  L 269.84 840.14
  L 268.67 842.95
  L 267.87 845.53
  L 267.45 847.88
  L 267.39 850.01
  L 267.78 851.87
  L 268.66 853.17
  L 269.91 853.89
  L 271.59 854.14
  L 276.59 854.16
  Z"
/>
<path fill="#ffffff" d="
  M 335.42 837.30
  L 334.60 837.00
  L 333.29 836.91
  L 314.73 837.18
  L 314.35 837.02
  L 314.22 836.63
  L 314.22 836.63
  L 314.23 836.57
  L 317.72 821.95
  L 318.18 821.22
  L 319.00 820.94
  L 379.02 820.94
  L 379.73 821.26
  L 379.97 822.00
  L 379.95 822.11
  L 376.82 835.20
  L 376.51 836.01
  L 376.01 836.59
  L 375.34 836.94
  L 374.49 837.05
  L 356.12 837.05
  L 355.30 837.33
  L 354.84 838.06
  L 339.07 904.14
  L 338.75 904.90
  L 338.20 905.51
  L 337.47 905.90
  L 336.66 906.04
  L 321.41 906.04
  L 320.61 905.68
  L 320.34 904.84
  L 320.34 904.84
  L 320.36 904.72
  L 336.06 838.95
  L 336.02 838.02
  L 335.42 837.30
  Z"
/>
</svg>
