<?xml version="1.0" encoding="UTF-8" standalone="no"?>
<!DOCTYPE svg PUBLIC "-//W3C//DTD SVG 1.1//EN" "http://www.w3.org/Graphics/SVG/1.1/DTD/svg11.dtd">
<svg xmlns="http://www.w3.org/2000/svg" version="1.1" viewBox="0.00 0.00 1024.00 1024.00">
<path fill="#252a40" d="
  M 740.48 127.32
  L 724.20 160.26
  L 722.97 162.03
  L 686.97 233.59
  L 686.60 234.56
  L 686.44 235.54
  L 646.04 315.97
  L 644.07 319.45
  L 641.95 323.21
  L 626.99 353.02
  L 626.86 353.26
  L 626.45 353.88
  L 626.05 354.57
  L 625.95 355.97
  L 625.21 354.94
  L 625.36 356.23
  L 625.54 356.54
  L 625.89 356.64
  L 637.67 356.77
  L 648.06 356.94
  L 762.82 356.92
  L 769.81 356.80
  L 776.56 356.67
  L 780.64 356.97
  L 782.30 357.35
  L 783.70 357.89
  L 785.10 358.66
  L 787.44 360.45
  L 789.48 362.73
  L 790.51 365.30
  L 791.16 367.82
  L 791.44 370.30
  L 791.34 372.73
  L 791.34 372.73
  L 790.59 376.01
  L 789.12 379.21
  L 787.34 381.62
  L 774.88 394.51
  L 729.73 440.26
  L 724.24 445.79
  L 723.49 446.24
  L 619.93 549.93
  L 619.53 550.47
  L 619.40 551.00
  L 619.40 551.00
  L 619.40 551.02
  L 593.27 577.16
  L 593.12 577.14
  L 592.45 577.47
  L 479.56 690.24
  L 473.93 696.01
  L 461.63 708.31
  L 452.10 717.63
  L 442.05 727.48
  L 386.43 783.43
  L 384.90 784.82
  L 383.20 785.90
  L 383.20 785.90
  L 381.47 786.63
  L 379.59 787.08
  L 376.86 787.29
  L 374.19 787.07
  L 371.91 786.45
  L 370.07 785.47
  L 368.10 783.79
  L 366.51 781.85
  L 366.51 781.85
  L 365.55 780.20
  L 364.82 778.39
  L 364.31 776.43
  L 364.03 774.32
  L 364.13 773.00
  L 364.60 771.19
  L 366.66 766.10
  L 373.99 749.19
  L 408.21 668.62
  L 416.03 650.21
  L 463.30 537.20
  L 469.49 521.75
  L 469.49 521.41
  L 469.18 521.24
  L 466.20 520.99
  L 462.39 520.92
  L 314.50 521.01
  L 293.99 520.94
  L 285.00 520.76
  L 281.59 520.33
  L 278.38 519.57
  L 275.36 518.47
  L 272.54 517.04
  L 272.54 517.04
  L 272.54 517.04
  L 270.09 515.41
  L 267.81 513.48
  L 265.70 511.27
  L 263.76 508.76
  L 262.40 505.65
  L 261.98 504.03
  L 261.79 502.33
  L 261.90 499.03
  L 262.47 495.68
  L 263.52 492.26
  L 265.04 488.79
  L 398.69 221.45
  L 399.66 219.30
  L 401.06 216.39
  L 402.46 213.77
  L 404.12 210.06
  L 405.68 206.59
  L 443.13 131.63
  L 447.64 123.13
  L 450.77 118.43
  L 454.23 114.17
  L 458.01 110.35
  L 462.12 106.97
  L 462.12 106.97
  L 462.12 106.97
  L 463.93 105.69
  L 466.70 104.03
  L 469.72 102.63
  L 473.01 101.47
  L 476.56 100.57
  L 479.04 100.20
  L 482.40 99.96
  L 491.75 99.81
  L 568.52 100.01
  L 727.50 99.97
  L 730.32 100.10
  L 732.87 100.49
  L 735.15 101.15
  L 737.15 102.08
  L 738.67 103.06
  L 740.00 104.15
  L 741.15 105.36
  L 742.12 106.68
  L 742.12 106.68
  L 742.12 106.68
  L 742.91 108.14
  L 743.50 109.72
  L 743.91 111.42
  L 744.13 113.24
  L 744.15 117.76
  L 743.91 119.44
  L 743.51 120.75
  L 740.48 127.32
  Z
  M 473.78 126.54
  L 472.31 127.65
  L 471.01 128.92
  L 469.81 130.45
  L 467.49 133.85
  L 465.40 137.35
  L 463.52 140.93
  L 461.86 144.60
  L 457.56 152.54
  L 453.56 160.62
  L 449.32 170.08
  L 429.15 210.74
  L 429.08 210.93
  L 429.25 211.70
  L 429.96 212.04
  L 588.10 212.04
  L 588.98 211.91
  L 589.80 211.55
  L 590.47 210.97
  L 590.96 210.22
  L 631.79 122.63
  L 631.82 122.54
  L 631.73 122.16
  L 631.38 121.99
  L 491.75 122.03
  L 487.05 122.13
  L 483.65 122.41
  L 482.52 122.60
  L 480.26 123.18
  L 478.05 124.04
  L 475.89 125.15
  L 473.78 126.54
  Z
  M 614.96 432.43
  L 615.11 426.77
  L 615.50 423.16
  L 615.38 421.51
  L 615.05 419.96
  L 598.03 419.95
  L 597.68 419.69
  L 597.68 419.69
  L 597.41 420.24
  L 597.32 421.75
  L 597.43 453.26
  L 597.63 454.78
  L 597.66 455.27
  L 597.52 455.72
  L 595.48 459.49
  L 589.16 468.61
  L 581.97 478.14
  L 582.21 470.80
  L 582.65 420.78
  L 582.54 420.23
  L 582.23 419.76
  L 581.77 419.44
  L 581.21 419.33
  L 581.21 419.33
  L 581.21 419.33
  L 469.17 419.33
  L 468.84 419.19
  L 468.70 418.86
  L 468.70 327.59
  L 468.59 327.04
  L 468.28 326.57
  L 467.82 326.26
  L 467.27 326.14
  L 424.25 326.20
  L 372.54 326.29
  L 371.46 326.42
  L 370.91 326.83
  L 370.84 327.06
  L 367.78 333.75
  L 363.51 341.66
  L 363.31 342.18
  L 363.37 342.55
  L 363.66 342.77
  L 364.21 342.84
  L 450.26 342.84
  L 450.66 342.93
  L 451.06 343.28
  L 451.21 343.79
  L 451.21 434.59
  L 451.31 435.11
  L 451.61 435.54
  L 452.04 435.84
  L 452.56 435.94
  L 566.00 435.93
  L 566.06 499.52
  L 565.39 501.28
  L 563.94 503.69
  L 557.35 513.07
  L 550.89 521.31
  L 550.53 453.00
  L 550.65 451.78
  L 550.34 451.09
  L 549.49 450.94
  L 437.26 450.78
  L 436.83 449.81
  L 436.67 448.50
  L 436.66 440.01
  L 437.00 403.78
  L 436.97 367.50
  L 436.84 364.15
  L 436.49 360.86
  L 436.87 359.34
  L 436.79 357.93
  L 436.47 357.40
  L 435.88 357.20
  L 421.41 357.32
  L 407.00 357.17
  L 406.84 357.21
  L 406.72 357.62
  L 406.70 357.58
  L 406.00 357.64
  L 405.87 357.40
  L 405.45 357.29
  L 404.77 357.48
  L 404.02 357.50
  L 403.53 357.18
  L 403.10 357.13
  L 402.70 357.41
  L 402.24 357.37
  L 356.93 357.20
  L 356.01 357.47
  L 355.37 358.18
  L 349.14 371.25
  L 348.89 372.30
  L 348.63 372.38
  L 348.32 372.88
  L 348.30 372.97
  L 348.49 373.54
  L 349.04 373.79
  L 418.39 373.79
  L 419.26 373.93
  L 419.91 374.15
  L 419.99 460.53
  L 419.90 466.03
  L 420.01 466.45
  L 420.39 466.72
  L 421.17 466.90
  L 421.17 466.90
  L 422.39 466.85
  L 423.65 466.44
  L 427.78 466.87
  L 432.00 467.02
  L 447.30 467.03
  L 531.48 466.84
  L 533.48 466.45
  L 533.59 466.51
  L 533.59 466.51
  L 534.09 467.18
  L 534.27 468.32
  L 534.51 486.37
  L 534.50 501.73
  L 534.53 521.52
  L 534.40 541.31
  L 534.58 542.91
  L 534.58 542.93
  L 534.46 544.30
  L 533.76 545.75
  L 520.97 564.71
  L 520.15 565.59
  L 518.97 566.41
  L 518.83 565.80
  L 518.94 565.34
  L 519.32 565.01
  L 519.62 545.93
  L 519.71 526.85
  L 519.60 507.78
  L 519.29 488.71
  L 519.29 488.71
  L 519.29 488.71
  L 519.17 483.47
  L 518.71 482.41
  L 518.32 482.09
  L 517.88 482.00
  L 373.44 481.98
  L 373.66 420.93
  L 373.57 420.28
  L 373.30 419.82
  L 372.84 419.54
  L 372.19 419.45
  L 325.91 419.45
  L 324.99 419.70
  L 324.33 420.39
  L 321.13 426.44
  L 318.10 432.75
  L 318.06 433.18
  L 318.25 433.33
  L 317.90 433.95
  L 317.25 434.17
  L 317.25 434.17
  L 317.05 434.58
  L 317.06 435.20
  L 317.35 435.72
  L 317.91 435.93
  L 355.82 435.93
  L 356.21 436.09
  L 356.37 436.47
  L 356.69 481.86
  L 350.63 482.15
  L 344.75 482.08
  L 343.63 482.18
  L 342.43 482.59
  L 341.86 480.89
  L 341.67 478.50
  L 341.73 451.22
  L 341.49 450.63
  L 340.90 450.38
  L 340.90 450.38
  L 310.44 450.38
  L 309.66 450.57
  L 309.13 451.10
  L 306.98 454.71
  L 305.00 458.52
  L 303.16 462.52
  L 301.49 466.72
  L 324.42 467.04
  L 324.77 467.19
  L 324.91 467.54
  L 324.99 497.78
  L 324.70 498.27
  L 324.94 498.63
  L 325.59 498.95
  L 325.81 498.99
  L 501.87 498.86
  L 502.29 498.99
  L 502.59 499.56
  L 502.84 588.51
  L 503.20 589.02
  L 501.21 592.44
  L 501.19 592.48
  L 494.29 602.48
  L 487.10 612.24
  L 486.86 610.82
  L 487.16 609.86
  L 487.86 595.58
  L 487.98 585.25
  L 487.57 560.67
  L 487.47 543.25
  L 487.53 538.55
  L 487.42 538.21
  L 487.06 538.26
  L 486.51 538.74
  L 486.29 539.27
  L 486.27 539.94
  L 477.02 563.00
  L 473.88 570.08
  L 471.05 577.26
  L 470.47 579.05
  L 470.29 580.25
  L 470.41 632.62
  L 470.64 633.49
  L 470.49 634.19
  L 470.49 634.19
  L 469.94 635.70
  L 469.12 637.13
  L 462.23 646.78
  L 454.95 656.22
  L 455.02 619.09
  L 454.96 618.37
  L 454.78 618.09
  L 454.78 618.09
  L 454.49 618.24
  L 454.08 618.83
  L 452.82 621.28
  L 451.72 624.04
  L 440.78 650.38
  L 416.88 708.04
  L 411.97 718.53
  L 407.28 729.24
  L 407.08 729.54
  L 407.01 729.74
  L 407.16 729.94
  L 407.60 729.91
  L 436.35 701.00
  L 450.51 686.86
  L 495.06 642.78
  L 557.12 580.87
  L 662.32 475.49
  L 717.29 420.04
  L 757.84 378.98
  L 757.91 378.87
  L 757.88 378.57
  L 757.60 378.42
  L 690.33 378.18
  L 637.00 378.19
  L 610.41 378.10
  L 608.21 377.87
  L 606.18 377.40
  L 604.34 376.66
  L 602.68 375.67
  L 602.68 375.67
  L 600.97 374.19
  L 599.50 372.37
  L 598.14 369.86
  L 597.36 367.25
  L 597.36 367.25
  L 597.17 365.34
  L 597.26 363.37
  L 597.58 361.89
  L 598.22 360.04
  L 600.44 355.28
  L 613.04 330.81
  L 630.52 296.20
  L 642.80 271.82
  L 700.06 158.26
  L 717.92 122.64
  L 717.96 122.54
  L 717.87 122.15
  L 717.51 121.98
  L 657.82 121.98
  L 657.01 122.19
  L 656.45 122.86
  L 525.31 404.22
  L 525.29 404.29
  L 525.35 404.56
  L 525.60 404.68
  L 634.27 404.68
  L 634.77 404.85
  L 634.61 405.35
  L 614.96 432.43
  Z
  M 418.05 233.23
  L 415.85 237.67
  L 414.80 238.97
  L 414.08 240.25
  L 413.66 241.51
  L 413.57 242.75
  L 415.50 242.83
  L 547.75 242.94
  L 555.50 243.17
  L 555.64 243.19
  L 556.50 243.75
  L 556.45 251.97
  L 555.99 282.71
  L 556.04 283.69
  L 556.24 284.06
  L 556.57 283.81
  L 557.05 282.95
  L 580.14 233.49
  L 582.58 228.20
  L 582.64 227.56
  L 582.04 227.37
  L 577.82 227.37
  L 435.25 227.27
  L 422.75 227.12
  L 421.65 227.22
  L 420.84 227.65
  L 420.38 228.25
  L 419.74 229.47
  L 418.70 231.54
  L 418.05 233.23
  Z
  M 405.74 258.01
  L 398.88 271.56
  L 398.31 272.11
  L 398.17 272.59
  L 398.17 272.59
  L 398.46 272.98
  L 398.22 273.00
  L 398.15 273.15
  L 398.15 273.18
  L 398.28 273.55
  L 398.65 273.71
  L 523.25 273.79
  L 523.29 273.79
  L 523.29 273.79
  L 523.97 274.12
  L 524.63 275.04
  L 524.59 275.78
  L 524.29 277.02
  L 524.10 296.98
  L 524.65 316.97
  L 524.03 329.68
  L 524.06 342.46
  L 524.65 345.87
  L 524.71 346.37
  L 524.59 346.87
  L 524.33 347.81
  L 524.37 348.68
  L 524.51 349.13
  L 524.49 349.98
  L 524.16 351.08
  L 524.13 352.36
  L 524.30 352.83
  L 524.66 352.47
  L 526.91 348.29
  L 529.02 343.77
  L 532.97 335.05
  L 539.23 322.53
  L 540.30 319.86
  L 540.73 317.41
  L 541.06 306.25
  L 541.05 259.27
  L 540.68 258.37
  L 539.78 257.99
  L 539.78 257.99
  L 539.78 257.99
  L 405.74 258.01
  Z
  M 389.98 289.47
  L 382.26 305.18
  L 379.90 309.95
  L 379.39 310.40
  L 379.36 310.48
  L 379.44 311.08
  L 379.94 311.40
  L 380.05 311.41
  L 482.99 311.71
  L 483.00 404.04
  L 483.42 404.45
  L 484.07 404.75
  L 486.00 405.00
  L 508.46 404.82
  L 509.38 404.49
  L 509.69 403.56
  L 509.69 289.44
  L 509.33 288.57
  L 508.46 288.21
  L 391.50 288.21
  L 390.56 288.49
  L 390.21 288.89
  L 389.98 289.47
  Z
  M 339.98 389.46
  L 333.02 403.55
  L 333.22 404.04
  L 333.17 403.87
  L 332.74 404.02
  L 332.60 404.18
  L 332.61 404.64
  L 333.01 404.86
  L 386.77 404.86
  L 387.34 404.97
  L 387.83 405.30
  L 388.16 405.78
  L 388.28 406.35
  L 388.56 431.75
  L 388.66 440.55
  L 388.36 440.76
  L 388.29 441.03
  L 388.32 448.65
  L 388.20 464.85
  L 388.22 464.99
  L 388.27 465.11
  L 388.42 465.35
  L 388.51 465.97
  L 388.78 466.38
  L 388.78 466.38
  L 389.66 466.57
  L 404.64 466.61
  L 405.09 466.45
  L 405.35 466.04
  L 405.30 465.62
  L 404.97 465.45
  L 405.02 389.47
  L 405.31 389.06
  L 404.84 388.53
  L 404.03 388.34
  L 384.25 388.18
  L 370.13 388.36
  L 357.25 388.21
  L 341.35 388.32
  L 340.37 388.64
  L 339.98 389.46
  Z
  M 285.83 498.29
  L 296.21 498.87
  L 306.55 498.70
  L 306.55 498.70
  L 310.02 498.47
  L 309.93 482.65
  L 309.72 482.16
  L 309.23 481.95
  L 295.60 481.95
  L 294.87 482.05
  L 294.20 482.35
  L 293.64 482.82
  L 293.22 483.43
  L 285.83 498.29
  Z"
/>
<path fill="#fabf57" d="
  M 416.88 708.04
  L 454.95 656.22
  L 462.23 646.78
  L 469.12 637.13
  L 469.94 635.70
  L 470.49 634.19
  L 470.49 634.19
  L 470.64 633.49
  L 470.93 632.60
  L 470.93 632.60
  L 471.35 632.77
  L 471.35 632.77
  L 471.70 632.57
  L 472.02 632.01
  L 472.84 630.66
  L 474.33 628.98
  L 475.33 627.84
  L 481.03 619.88
  L 487.10 612.24
  L 494.29 602.48
  L 501.19 592.48
  L 501.21 592.44
  L 503.20 589.02
  L 518.97 566.41
  L 520.15 565.59
  L 520.97 564.71
  L 533.76 545.75
  L 534.46 544.30
  L 534.58 542.93
  L 534.58 542.91
  L 534.40 541.31
  L 534.53 521.52
  L 534.50 501.73
  L 534.51 486.37
  L 534.27 468.32
  L 534.09 467.18
  L 533.59 466.51
  L 533.59 466.51
  L 533.48 466.45
  L 534.06 466.41
  L 534.47 466.97
  L 534.83 469.26
  L 535.01 521.81
  L 535.15 542.38
  L 535.23 542.66
  L 535.46 542.48
  L 550.89 521.31
  L 557.35 513.07
  L 563.94 503.69
  L 565.39 501.28
  L 566.06 499.52
  L 581.97 478.14
  L 589.16 468.61
  L 595.48 459.49
  L 597.52 455.72
  L 597.66 455.27
  L 597.63 454.78
  L 597.43 453.26
  L 597.32 421.75
  L 597.41 420.24
  L 597.68 419.69
  L 598.03 419.95
  L 598.14 454.69
  L 598.18 454.84
  L 598.30 454.74
  L 614.96 432.43
  L 634.61 405.35
  L 634.77 404.85
  L 634.27 404.68
  L 525.60 404.68
  L 525.35 404.56
  L 525.29 404.29
  L 525.29 404.29
  L 525.31 404.22
  L 656.45 122.86
  L 657.01 122.19
  L 657.82 121.98
  L 717.51 121.98
  L 717.87 122.15
  L 717.96 122.54
  L 717.92 122.64
  L 700.06 158.26
  L 642.80 271.82
  L 630.52 296.20
  L 613.04 330.81
  L 600.44 355.28
  L 598.22 360.04
  L 597.58 361.89
  L 597.26 363.37
  L 597.17 365.34
  L 597.36 367.25
  L 597.36 367.25
  L 598.14 369.86
  L 599.50 372.37
  L 600.97 374.19
  L 602.68 375.67
  L 602.68 375.67
  L 604.34 376.66
  L 606.18 377.40
  L 608.21 377.87
  L 610.41 378.10
  L 637.00 378.19
  L 690.33 378.18
  L 757.60 378.42
  L 757.88 378.57
  L 757.91 378.87
  L 757.91 378.87
  L 757.84 378.98
  L 717.29 420.04
  L 662.32 475.49
  L 557.12 580.87
  L 495.06 642.78
  L 450.51 686.86
  L 436.35 701.00
  L 407.60 729.91
  L 407.16 729.94
  L 407.01 729.74
  L 407.08 729.54
  L 407.28 729.24
  L 411.97 718.53
  L 416.88 708.04
  Z"
/>
<path fill="#9d9f9e" d="
  M 473.78 126.54
  L 469.81 130.45
  L 471.01 128.92
  L 472.31 127.65
  L 473.78 126.54
  Z"
/>
<path fill="#9d9f9e" d="
  M 740.48 127.32
  L 724.20 160.26
  L 740.48 127.32
  Z"
/>
<path fill="#252a40" d="
  M 585.41 137.01
  L 585.12 151.99
  L 474.49 152.00
  L 474.53 137.05
  L 585.41 137.01
  Z"
/>
<path fill="#9d9f9e" d="
  M 585.12 151.99
  L 585.41 137.01
  L 586.06 144.06
  L 586.01 151.41
  L 585.88 151.76
  L 585.55 151.92
  L 585.12 151.99
  Z"
/>
<path fill="#9d9f9e" d="
  M 474.53 137.05
  L 474.49 152.00
  L 473.87 147.22
  L 473.87 142.16
  L 474.53 137.05
  Z"
/>
<path fill="#9d9f9e" d="
  M 461.86 144.60
  L 449.32 170.08
  L 453.56 160.62
  L 457.56 152.54
  L 461.86 144.60
  Z"
/>
<path fill="#9d9f9e" d="
  M 724.20 160.26
  L 686.44 235.54
  L 686.60 234.56
  L 686.97 233.59
  L 722.97 162.03
  L 724.20 160.26
  Z"
/>
<rect fill="#252a40" x="474.99" y="167.96" width="94.06" height="15.04" rx="0.79"/>
<path fill="#9d9f9e" d="
  M 580.14 233.49
  L 581.91 229.06
  L 581.92 229.04
  L 581.89 228.56
  L 581.52 228.25
  L 578.73 227.64
  L 575.35 227.55
  L 570.68 227.89
  L 500.77 228.11
  L 423.77 227.98
  L 422.25 228.05
  L 421.28 228.38
  L 420.60 228.98
  L 419.98 229.99
  L 418.31 232.85
  L 418.05 233.23
  L 418.70 231.54
  L 419.74 229.47
  L 420.38 228.25
  L 420.84 227.65
  L 421.65 227.22
  L 422.75 227.12
  L 435.25 227.27
  L 577.82 227.37
  L 582.04 227.37
  L 582.64 227.56
  L 582.58 228.20
  L 580.14 233.49
  Z"
/>
<path fill="#9d9f9e" d="
  M 415.85 237.67
  L 414.96 240.22
  L 413.57 242.75
  L 413.66 241.51
  L 414.08 240.25
  L 414.80 238.97
  L 415.85 237.67
  Z"
/>
<path fill="#9d9f9e" d="
  M 556.50 243.75
  L 556.45 251.97
  L 556.50 243.75
  Z"
/>
<path fill="#9d9f9e" d="
  M 405.74 258.01
  L 398.88 271.56
  L 405.74 258.01
  Z"
/>
<path fill="#9d9f9e" d="
  M 398.46 272.98
  L 487.74 273.00
  L 517.50 273.00
  L 521.06 273.13
  L 524.15 273.51
  L 524.57 273.71
  L 524.79 274.11
  L 524.83 274.42
  L 524.63 275.04
  L 523.97 274.12
  L 523.29 273.79
  L 523.29 273.79
  L 523.25 273.79
  L 398.65 273.71
  L 398.28 273.55
  L 398.15 273.18
  L 398.15 273.18
  L 398.15 273.15
  L 398.22 273.00
  L 398.46 272.98
  Z"
/>
<path fill="#9d9f9e" d="
  M 524.59 275.78
  L 524.76 276.37
  L 524.80 276.75
  L 525.12 296.84
  L 524.65 316.97
  L 524.10 296.98
  L 524.29 277.02
  L 524.59 275.78
  Z"
/>
<path fill="#9d9f9e" d="
  M 483.00 404.04
  L 507.97 404.03
  L 508.01 404.03
  L 508.67 403.73
  L 508.94 403.06
  L 508.94 289.70
  L 508.94 289.70
  L 508.72 289.18
  L 508.20 288.97
  L 404.81 288.95
  L 391.76 289.08
  L 389.98 289.47
  L 390.21 288.89
  L 390.56 288.49
  L 391.50 288.21
  L 508.46 288.21
  L 509.33 288.57
  L 509.69 289.44
  L 509.69 403.56
  L 509.38 404.49
  L 508.46 404.82
  L 486.00 405.00
  L 484.07 404.75
  L 483.42 404.45
  L 483.00 404.04
  Z"
/>
<path fill="#9d9f9e" d="
  M 389.98 289.47
  L 382.26 305.18
  L 389.98 289.47
  Z"
/>
<path fill="#9d9f9e" d="
  M 379.90 309.95
  L 380.08 310.56
  L 380.40 310.90
  L 380.75 310.98
  L 482.13 311.01
  L 482.55 311.10
  L 482.85 311.34
  L 482.99 311.71
  L 380.05 311.41
  L 379.94 311.40
  L 379.44 311.08
  L 379.36 310.48
  L 379.39 310.40
  L 379.90 309.95
  Z"
/>
<path fill="#9d9f9e" d="
  M 582.21 470.80
  L 582.03 420.29
  L 581.74 420.00
  L 468.26 420.00
  L 468.10 419.93
  L 468.03 419.77
  L 468.03 327.29
  L 467.74 327.00
  L 370.84 327.06
  L 370.91 326.83
  L 371.46 326.42
  L 372.54 326.29
  L 424.25 326.20
  L 467.27 326.14
  L 467.82 326.26
  L 468.28 326.57
  L 468.59 327.04
  L 468.70 327.59
  L 468.70 418.86
  L 468.84 419.19
  L 469.17 419.33
  L 581.21 419.33
  L 581.21 419.33
  L 581.77 419.44
  L 582.23 419.76
  L 582.54 420.23
  L 582.65 420.78
  L 582.21 470.80
  Z"
/>
<path fill="#9d9f9e" d="
  M 367.78 333.75
  L 364.21 341.59
  L 364.19 341.65
  L 364.25 341.89
  L 364.48 342.00
  L 449.99 342.00
  L 450.75 342.15
  L 451.40 342.58
  L 451.83 343.23
  L 451.98 343.99
  L 451.98 434.49
  L 452.11 434.88
  L 452.49 435.01
  L 565.27 435.01
  L 565.70 435.14
  L 565.95 435.50
  L 566.00 435.93
  L 452.56 435.94
  L 452.04 435.84
  L 451.61 435.54
  L 451.31 435.11
  L 451.21 434.59
  L 451.21 343.79
  L 450.93 343.12
  L 450.26 342.84
  L 364.21 342.84
  L 363.66 342.77
  L 363.37 342.55
  L 363.31 342.18
  L 363.51 341.66
  L 367.78 333.75
  Z"
/>
<path fill="#9d9f9e" d="
  M 625.95 355.97
  L 771.50 355.81
  L 777.55 356.08
  L 782.57 356.93
  L 784.22 357.49
  L 785.71 358.30
  L 787.82 360.18
  L 789.48 362.73
  L 787.44 360.45
  L 785.10 358.66
  L 783.70 357.89
  L 782.30 357.35
  L 780.64 356.97
  L 776.56 356.67
  L 769.81 356.80
  L 762.82 356.92
  L 648.06 356.94
  L 637.67 356.77
  L 625.89 356.64
  L 625.54 356.54
  L 625.36 356.23
  L 625.21 354.94
  L 625.95 355.97
  Z"
/>
<path fill="#9d9f9e" d="
  M 404.02 357.50
  L 403.71 357.71
  L 403.71 357.71
  L 403.25 357.70
  L 402.70 357.41
  L 403.10 357.13
  L 403.53 357.18
  L 404.02 357.50
  Z"
/>
<path fill="#9d9f9e" d="
  M 436.49 360.86
  L 435.82 358.65
  L 435.58 358.27
  L 435.15 358.14
  L 406.72 357.62
  L 406.84 357.21
  L 407.00 357.17
  L 421.41 357.32
  L 435.88 357.20
  L 436.47 357.40
  L 436.79 357.93
  L 436.87 359.34
  L 436.49 360.86
  Z"
/>
<path fill="#9d9f9e" d="
  M 402.24 357.37
  L 399.00 357.74
  L 395.76 357.91
  L 395.25 357.92
  L 395.09 357.91
  L 394.91 357.84
  L 394.75 357.77
  L 394.41 357.73
  L 377.12 358.07
  L 358.75 357.90
  L 357.08 358.09
  L 355.83 358.76
  L 355.83 358.76
  L 355.03 359.80
  L 349.14 371.25
  L 355.37 358.18
  L 356.01 357.47
  L 356.93 357.20
  L 402.24 357.37
  Z"
/>
<path fill="#9d9f9e" d="
  M 406.00 357.64
  L 405.20 357.79
  L 404.77 357.48
  L 405.45 357.29
  L 405.87 357.40
  L 405.87 357.40
  L 406.00 357.64
  Z"
/>
<path fill="#9d9f9e" d="
  M 789.12 379.21
  L 790.59 376.01
  L 791.34 372.73
  L 791.34 372.73
  L 791.34 372.73
  L 791.34 372.73
  L 791.44 370.30
  L 791.16 367.82
  L 790.51 365.30
  L 789.48 362.73
  L 790.58 364.56
  L 791.39 366.41
  L 791.90 368.26
  L 792.12 370.13
  L 792.12 370.13
  L 792.00 372.38
  L 791.46 374.64
  L 790.50 376.92
  L 789.12 379.21
  Z"
/>
<path fill="#9d9f9e" d="
  M 348.89 372.30
  L 349.02 372.61
  L 349.48 372.94
  L 350.25 373.05
  L 385.95 373.01
  L 409.75 373.03
  L 412.62 373.07
  L 418.74 373.41
  L 418.77 373.41
  L 418.77 373.41
  L 419.36 373.63
  L 419.91 374.15
  L 419.26 373.93
  L 418.39 373.79
  L 349.04 373.79
  L 348.49 373.54
  L 348.30 372.97
  L 348.30 372.97
  L 348.32 372.88
  L 348.63 372.38
  L 348.89 372.30
  Z"
/>
<path fill="#9d9f9e" d="
  M 787.34 381.62
  L 774.88 394.51
  L 787.34 381.62
  Z"
/>
<path fill="#9d9f9e" d="
  M 405.02 389.47
  L 404.24 389.06
  L 402.75 388.93
  L 373.56 389.02
  L 342.75 388.92
  L 341.28 389.05
  L 339.98 389.46
  L 340.37 388.64
  L 341.35 388.32
  L 357.25 388.21
  L 370.13 388.36
  L 384.25 388.18
  L 404.03 388.34
  L 404.84 388.53
  L 405.31 389.06
  L 405.02 389.47
  Z"
/>
<path fill="#9d9f9e" d="
  M 339.98 389.46
  L 333.02 403.55
  L 339.98 389.46
  Z"
/>
<path fill="#9d9f9e" d="
  M 333.22 404.04
  L 387.48 404.16
  L 387.48 404.16
  L 388.03 404.27
  L 388.49 404.58
  L 388.80 405.04
  L 388.90 405.59
  L 388.56 431.75
  L 388.28 406.35
  L 388.16 405.78
  L 387.83 405.30
  L 387.34 404.97
  L 386.77 404.86
  L 333.01 404.86
  L 332.61 404.64
  L 332.60 404.18
  L 332.74 404.02
  L 333.17 403.87
  L 333.22 404.04
  Z"
/>
<path fill="#9d9f9e" d="
  M 373.44 481.98
  L 373.05 480.55
  L 372.93 478.26
  L 373.03 420.99
  L 372.72 420.23
  L 371.96 419.92
  L 326.80 419.92
  L 325.96 420.04
  L 325.18 420.38
  L 324.53 420.92
  L 324.05 421.62
  L 318.25 433.33
  L 318.06 433.18
  L 318.10 432.75
  L 321.13 426.44
  L 324.33 420.39
  L 324.99 419.70
  L 325.91 419.45
  L 372.19 419.45
  L 372.84 419.54
  L 373.30 419.82
  L 373.30 419.82
  L 373.57 420.28
  L 373.66 420.93
  L 373.44 481.98
  Z"
/>
<path fill="#9d9f9e" d="
  M 615.11 426.77
  L 615.05 419.96
  L 615.38 421.51
  L 615.50 423.16
  L 615.11 426.77
  Z"
/>
<path fill="#9d9f9e" d="
  M 317.90 433.95
  L 318.00 434.50
  L 318.25 434.85
  L 318.25 434.85
  L 318.75 435.00
  L 355.06 435.08
  L 355.97 435.33
  L 356.65 436.01
  L 356.89 436.93
  L 356.69 481.86
  L 356.37 436.47
  L 356.21 436.09
  L 355.82 435.93
  L 317.91 435.93
  L 317.35 435.72
  L 317.06 435.20
  L 317.05 434.58
  L 317.25 434.17
  L 317.90 433.95
  Z"
/>
<path fill="#9d9f9e" d="
  M 437.26 450.78
  L 436.84 450.84
  L 436.40 450.75
  L 436.21 450.36
  L 435.96 447.34
  L 436.02 444.35
  L 436.02 444.35
  L 436.66 440.01
  L 436.67 448.50
  L 436.83 449.81
  L 437.26 450.78
  Z"
/>
<path fill="#9d9f9e" d="
  M 729.73 440.26
  L 724.24 445.79
  L 729.73 440.26
  Z"
/>
<path fill="#9d9f9e" d="
  M 388.66 440.55
  L 388.68 440.65
  L 388.79 441.04
  L 388.90 441.52
  L 388.98 445.55
  L 389.01 455.08
  L 388.82 464.61
  L 388.42 465.35
  L 388.27 465.11
  L 388.22 464.99
  L 388.20 464.85
  L 388.32 448.65
  L 388.29 441.03
  L 388.36 440.76
  L 388.66 440.55
  Z"
/>
<path fill="#9d9f9e" d="
  M 724.24 445.79
  L 619.40 551.02
  L 619.40 551.00
  L 619.40 551.00
  L 619.53 550.47
  L 619.93 549.93
  L 723.49 446.24
  L 724.24 445.79
  Z"
/>
<path fill="#9d9f9e" d="
  M 342.43 482.59
  L 341.69 482.46
  L 341.69 482.46
  L 341.16 481.77
  L 340.97 480.50
  L 340.87 466.44
  L 341.11 451.94
  L 340.85 451.27
  L 340.20 450.99
  L 340.19 450.99
  L 310.75 450.99
  L 309.71 451.26
  L 309.01 452.06
  L 301.49 466.72
  L 303.16 462.52
  L 305.00 458.52
  L 306.98 454.71
  L 309.13 451.10
  L 309.66 450.57
  L 310.44 450.38
  L 340.90 450.38
  L 340.90 450.38
  L 341.49 450.63
  L 341.73 451.22
  L 341.67 478.50
  L 341.86 480.89
  L 342.43 482.59
  Z"
/>
<path fill="#9d9f9e" d="
  M 550.53 453.00
  L 549.49 450.94
  L 550.34 451.09
  L 550.34 451.09
  L 550.65 451.78
  L 550.53 453.00
  Z"
/>
<path fill="#9d9f9e" d="
  M 419.99 460.53
  L 420.05 465.11
  L 420.19 465.53
  L 420.58 465.76
  L 423.65 466.44
  L 422.39 466.85
  L 421.17 466.90
  L 420.39 466.72
  L 420.01 466.45
  L 419.90 466.03
  L 419.99 460.53
  Z"
/>
<path fill="#9d9f9e" d="
  M 404.97 465.45
  L 405.30 465.62
  L 405.35 466.04
  L 405.09 466.45
  L 404.64 466.61
  L 389.66 466.57
  L 403.96 465.98
  L 404.39 465.89
  L 404.76 465.65
  L 404.97 465.45
  Z"
/>
<path fill="#9d9f9e" d="
  M 519.32 565.01
  L 518.93 544.70
  L 518.77 524.39
  L 518.85 504.09
  L 519.16 483.80
  L 519.16 483.80
  L 519.16 483.80
  L 519.17 483.47
  L 519.29 488.71
  L 519.29 488.71
  L 519.29 488.71
  L 519.60 507.78
  L 519.71 526.85
  L 519.62 545.93
  L 519.32 565.01
  Z"
/>
<path fill="#9d9f9e" d="
  M 324.99 497.78
  L 502.53 498.03
  L 502.76 498.10
  L 502.92 498.42
  L 502.84 588.51
  L 502.59 499.56
  L 502.37 499.06
  L 501.87 498.86
  L 325.81 498.99
  L 325.59 498.95
  L 324.94 498.63
  L 324.70 498.27
  L 324.70 498.27
  L 324.99 497.78
  Z"
/>
<path fill="#9d9f9e" d="
  M 310.02 498.47
  L 306.55 498.70
  L 306.55 498.70
  L 296.21 498.87
  L 285.83 498.29
  L 292.01 497.96
  L 298.10 497.89
  L 304.10 498.05
  L 310.02 498.47
  Z"
/>
<path fill="#9d9f9e" d="
  M 487.16 609.86
  L 486.82 578.02
  L 487.11 546.25
  L 487.02 543.88
  L 486.27 539.94
  L 486.29 539.27
  L 486.51 538.74
  L 487.06 538.26
  L 487.42 538.21
  L 487.53 538.55
  L 487.47 543.25
  L 487.57 560.67
  L 487.98 585.25
  L 487.86 595.58
  L 487.16 609.86
  Z"
/>
<path fill="#9d9f9e" d="
  M 477.02 563.00
  L 472.42 575.04
  L 471.61 577.63
  L 471.21 580.19
  L 470.97 585.50
  L 471.05 632.14
  L 470.93 632.60
  L 470.93 632.60
  L 470.64 633.49
  L 470.41 632.62
  L 470.29 580.25
  L 470.47 579.05
  L 471.05 577.26
  L 473.88 570.08
  L 477.02 563.00
  Z"
/>
<path fill="#9d9f9e" d="
  M 593.27 577.16
  L 479.56 690.24
  L 592.45 577.47
  L 593.12 577.14
  L 593.27 577.16
  Z"
/>
<path fill="#9d9f9e" d="
  M 473.93 696.01
  L 468.05 702.44
  L 461.63 708.31
  L 473.93 696.01
  Z"
/>
<path fill="#9d9f9e" d="
  M 758.19 820.55
  L 734.76 820.49
  L 739.96 820.00
  L 745.13 819.79
  L 750.27 819.87
  L 755.39 820.23
  L 755.39 820.23
  L 758.19 820.55
  Z"
/>
<path fill="#9d9f9e" d="
  M 900.75 820.61
  L 872.78 820.54
  L 881.38 819.89
  L 881.38 819.89
  L 891.05 819.87
  L 900.75 820.61
  Z"
/>
<path fill="#9d9f9e" d="
  M 152.07 820.51
  L 150.43 820.83
  L 148.57 820.80
  L 147.90 820.85
  L 147.29 821.14
  L 146.82 821.63
  L 146.55 822.25
  L 132.32 882.71
  L 146.24 821.43
  L 146.65 820.67
  L 147.40 820.22
  L 147.52 820.19
  L 149.71 820.01
  L 152.07 820.51
  Z"
/>
<path fill="#252a40" d="
  M 162.32 833.01
  L 162.06 833.03
  L 161.75 833.50
  L 152.73 872.49
  L 152.74 873.40
  L 148.79 890.42
  L 145.85 902.95
  L 144.85 904.71
  L 144.53 905.05
  L 144.09 905.15
  L 128.76 905.29
  L 128.39 905.26
  L 127.80 905.02
  L 127.26 904.53
  L 127.25 904.33
  L 127.25 904.33
  L 127.41 902.85
  L 127.93 901.36
  L 132.20 883.56
  L 132.19 883.55
  L 132.19 883.55
  L 132.14 883.21
  L 132.32 882.71
  L 146.55 822.25
  L 146.82 821.63
  L 147.29 821.14
  L 147.90 820.85
  L 148.57 820.80
  L 150.43 820.83
  L 152.07 820.51
  L 160.02 820.61
  L 160.94 820.85
  L 161.64 820.71
  L 161.85 820.56
  L 162.00 820.57
  L 163.10 820.50
  L 164.22 820.13
  L 164.43 820.07
  L 164.98 820.29
  L 165.12 820.86
  L 162.32 833.01
  Z"
/>
<path fill="#9d9f9e" d="
  M 580.00 820.56
  L 531.77 820.97
  L 532.34 820.39
  L 532.98 820.09
  L 533.75 819.98
  L 535.10 819.95
  L 535.10 819.95
  L 557.54 819.89
  L 580.00 820.56
  Z"
/>
<path fill="#9d9f9e" d="
  M 594.08 820.52
  L 591.49 820.79
  L 589.17 820.61
  L 590.59 820.21
  L 591.88 820.06
  L 593.04 820.16
  L 594.08 820.52
  Z"
/>
<path fill="#9d9f9e" d="
  M 829.98 820.64
  L 813.21 820.53
  L 818.32 819.99
  L 824.13 819.99
  L 829.98 820.64
  Z"
/>
<path fill="#9d9f9e" d="
  M 161.85 820.56
  L 161.64 820.71
  L 160.94 820.85
  L 160.02 820.61
  L 160.78 820.31
  L 161.44 820.34
  L 161.44 820.34
  L 161.85 820.56
  Z"
/>
<path fill="#252a40" d="
  M 213.49 872.08
  L 213.42 872.17
  L 213.39 873.06
  L 213.71 873.38
  L 214.15 873.32
  L 214.15 873.32
  L 214.25 873.23
  L 214.81 872.22
  L 214.81 872.22
  L 214.92 871.14
  L 214.62 869.92
  L 215.55 863.76
  L 220.16 843.61
  L 224.44 823.96
  L 225.63 820.66
  L 225.94 820.34
  L 226.39 820.37
  L 228.24 820.82
  L 239.30 820.92
  L 239.72 820.90
  L 241.01 820.56
  L 241.72 820.33
  L 242.54 820.23
  L 243.07 820.44
  L 243.07 820.44
  L 243.07 820.44
  L 243.29 820.95
  L 243.21 821.78
  L 228.18 884.97
  L 227.73 886.02
  L 227.73 886.02
  L 227.05 888.48
  L 226.82 891.11
  L 226.85 891.14
  L 226.68 891.43
  L 224.28 902.41
  L 223.57 905.34
  L 206.73 904.94
  L 206.32 904.81
  L 206.09 904.45
  L 191.25 854.19
  L 190.75 852.97
  L 190.42 851.81
  L 189.96 852.93
  L 185.09 873.75
  L 184.76 874.54
  L 184.76 874.54
  L 184.03 877.07
  L 183.74 879.78
  L 183.75 880.25
  L 183.50 880.85
  L 183.04 881.80
  L 183.04 881.80
  L 182.78 882.98
  L 182.79 884.26
  L 182.62 884.44
  L 182.08 885.80
  L 181.79 887.14
  L 181.72 888.54
  L 180.56 893.95
  L 179.35 897.69
  L 178.81 901.33
  L 178.00 905.47
  L 169.99 905.15
  L 162.05 905.43
  L 161.52 905.34
  L 161.48 905.32
  L 160.97 904.99
  L 161.00 904.70
  L 162.68 896.54
  L 162.91 895.03
  L 163.44 893.72
  L 177.57 832.03
  L 179.92 821.91
  L 180.29 821.31
  L 180.95 821.07
  L 190.23 820.86
  L 191.92 820.55
  L 192.69 820.36
  L 193.66 820.39
  L 195.36 820.80
  L 196.69 820.86
  L 197.47 821.01
  L 197.96 821.64
  L 200.01 827.25
  L 201.70 832.71
  L 205.14 843.73
  L 209.92 859.10
  L 212.21 866.92
  L 213.49 872.08
  Z"
/>
<path fill="#252a40" d="
  M 426.37 847.11
  L 426.20 850.57
  L 426.50 852.85
  L 427.13 855.11
  L 431.42 897.75
  L 431.73 904.22
  L 431.73 904.24
  L 431.44 904.97
  L 430.72 905.27
  L 414.83 905.27
  L 414.29 905.17
  L 413.83 904.87
  L 413.50 904.43
  L 413.37 903.90
  L 413.04 898.53
  L 412.47 893.80
  L 412.68 891.91
  L 412.55 890.07
  L 412.19 888.60
  L 411.58 888.16
  L 411.39 888.07
  L 410.91 887.98
  L 386.02 887.95
  L 384.36 888.25
  L 383.78 888.69
  L 383.23 889.39
  L 379.04 896.81
  L 375.21 905.23
  L 355.25 905.32
  L 382.73 856.12
  L 392.09 838.85
  L 401.31 821.47
  L 401.64 821.13
  L 402.09 821.00
  L 411.42 820.91
  L 415.49 820.75
  L 419.63 820.86
  L 420.78 820.86
  L 421.87 820.67
  L 421.87 820.67
  L 422.55 820.43
  L 422.66 820.39
  L 423.32 820.51
  L 423.67 821.09
  L 426.37 847.11
  Z
  M 406.01 845.49
  L 396.80 863.01
  L 396.78 863.10
  L 396.83 863.19
  L 396.95 863.43
  L 392.33 872.34
  L 392.32 872.72
  L 392.62 872.97
  L 392.72 872.98
  L 409.61 872.98
  L 410.16 872.87
  L 410.61 872.54
  L 410.90 872.06
  L 410.97 871.51
  L 410.95 871.39
  L 410.56 869.10
  L 410.07 861.33
  L 408.83 840.45
  L 408.71 840.04
  L 408.44 840.38
  L 406.01 845.49
  Z"
/>
<path fill="#252a40" d="
  M 492.37 869.80
  L 492.27 870.09
  L 492.23 871.52
  L 492.86 873.14
  L 493.01 873.27
  L 493.19 873.17
  L 493.25 873.07
  L 493.21 872.79
  L 493.42 872.94
  L 493.56 873.00
  L 493.62 872.87
  L 494.46 867.24
  L 495.83 860.37
  L 504.62 821.75
  L 504.67 821.57
  L 505.05 820.95
  L 505.65 820.54
  L 506.37 820.41
  L 507.08 820.58
  L 507.26 820.66
  L 508.97 821.00
  L 510.98 820.66
  L 511.95 820.60
  L 514.46 820.92
  L 517.09 820.97
  L 519.86 820.75
  L 522.76 820.26
  L 520.80 830.29
  L 507.91 885.46
  L 503.20 904.07
  L 502.72 904.89
  L 501.79 905.17
  L 486.52 905.17
  L 486.01 905.08
  L 485.64 904.89
  L 485.04 904.46
  L 484.86 904.04
  L 484.65 902.70
  L 483.19 896.31
  L 478.04 878.79
  L 472.78 861.76
  L 471.47 857.22
  L 470.33 852.39
  L 469.83 851.04
  L 469.46 850.60
  L 469.29 851.15
  L 469.23 851.97
  L 466.00 866.92
  L 462.75 880.51
  L 460.78 889.48
  L 460.01 891.40
  L 459.81 893.46
  L 458.04 901.10
  L 457.45 902.70
  L 457.32 904.70
  L 456.55 905.25
  L 455.94 905.35
  L 439.89 905.33
  L 440.30 902.47
  L 449.55 864.04
  L 459.18 821.55
  L 459.28 821.33
  L 459.97 821.07
  L 475.83 820.53
  L 476.32 820.66
  L 476.42 820.77
  L 477.32 822.38
  L 478.27 824.61
  L 480.32 830.94
  L 492.37 869.80
  Z"
/>
<path fill="#9d9f9e" d="
  M 520.80 830.29
  L 522.76 820.26
  L 522.62 822.71
  L 522.25 825.20
  L 521.64 827.72
  L 520.80 830.29
  Z"
/>
<path fill="#252a40" d="
  M 679.04 895.95
  L 677.11 897.37
  L 675.47 899.04
  L 675.47 899.04
  L 675.05 899.56
  L 668.93 902.84
  L 663.19 904.66
  L 657.60 905.07
  L 651.42 905.28
  L 637.25 905.08
  L 631.40 905.08
  L 621.50 905.39
  L 621.10 905.32
  L 620.65 904.93
  L 620.33 904.20
  L 620.33 903.68
  L 620.50 903.36
  L 620.50 903.36
  L 620.61 903.29
  L 628.21 871.50
  L 628.30 871.06
  L 628.71 868.64
  L 629.24 865.81
  L 634.07 846.29
  L 638.80 825.55
  L 639.49 823.07
  L 640.37 821.13
  L 640.86 820.50
  L 641.44 820.18
  L 641.44 820.18
  L 641.44 820.18
  L 642.15 820.16
  L 642.96 820.49
  L 643.39 820.68
  L 643.87 820.74
  L 679.47 820.99
  L 682.10 821.14
  L 684.55 821.60
  L 686.81 822.37
  L 688.88 823.43
  L 688.88 823.43
  L 688.88 823.43
  L 690.48 824.57
  L 691.94 825.92
  L 693.28 827.49
  L 694.48 829.27
  L 695.28 830.99
  L 695.84 833.06
  L 696.15 835.49
  L 696.22 838.28
  L 695.86 845.02
  L 695.07 850.89
  L 692.63 862.45
  L 689.27 875.77
  L 686.87 883.04
  L 684.76 887.86
  L 682.06 892.26
  L 679.04 895.95
  Z
  M 654.55 837.20
  L 654.48 837.13
  L 654.12 837.33
  L 653.93 837.70
  L 648.87 859.74
  L 642.11 887.70
  L 642.12 887.96
  L 642.69 888.26
  L 642.36 888.55
  L 642.36 888.56
  L 642.50 888.82
  L 642.78 888.93
  L 650.86 889.16
  L 656.48 888.96
  L 659.15 888.53
  L 661.49 887.79
  L 663.50 886.72
  L 665.18 885.33
  L 665.18 885.33
  L 665.73 884.72
  L 667.45 882.35
  L 668.97 879.59
  L 670.29 876.45
  L 671.41 872.93
  L 674.47 860.81
  L 676.76 849.27
  L 677.07 846.10
  L 676.85 843.33
  L 676.11 841.11
  L 674.88 839.42
  L 673.59 838.46
  L 671.94 837.78
  L 668.55 837.10
  L 664.52 836.77
  L 659.86 836.81
  L 654.55 837.20
  Z"
/>
<path fill="#9d9f9e" d="
  M 845.40 826.14
  L 845.33 825.98
  L 845.27 824.69
  L 845.92 823.14
  L 845.99 823.01
  L 846.14 822.39
  L 846.02 821.76
  L 845.66 821.23
  L 845.12 820.89
  L 844.19 820.56
  L 844.77 820.27
  L 845.52 820.21
  L 846.31 820.66
  L 846.53 821.55
  L 846.51 821.62
  L 845.40 826.14
  Z"
/>
<path fill="#9d9f9e" d="
  M 905.98 820.57
  L 904.88 820.84
  L 903.96 820.70
  L 903.96 820.70
  L 903.77 820.60
  L 904.68 820.34
  L 905.51 820.39
  L 905.98 820.57
  Z"
/>
<path fill="#252a40" d="
  M 907.19 833.04
  L 905.68 836.99
  L 879.00 836.75
  L 877.13 836.85
  L 875.32 837.18
  L 872.33 838.30
  L 872.17 838.39
  L 872.17 838.39
  L 871.03 839.39
  L 870.19 840.92
  L 869.99 841.43
  L 868.75 844.87
  L 868.13 847.49
  L 868.00 849.76
  L 868.37 851.80
  L 868.70 853.02
  L 869.33 853.87
  L 869.33 853.87
  L 870.31 854.35
  L 871.61 854.45
  L 873.03 854.73
  L 874.48 854.86
  L 879.58 854.77
  L 884.51 854.91
  L 889.28 855.28
  L 893.89 855.88
  L 896.13 857.40
  L 897.84 858.97
  L 899.03 860.58
  L 899.69 862.25
  L 900.17 865.12
  L 900.29 868.29
  L 900.05 871.75
  L 899.46 875.50
  L 898.31 880.88
  L 897.10 885.60
  L 895.49 889.99
  L 893.06 894.69
  L 892.93 894.96
  L 892.85 895.29
  L 892.77 895.76
  L 890.52 898.38
  L 888.12 900.55
  L 885.58 902.25
  L 882.90 903.49
  L 879.63 904.47
  L 876.10 905.11
  L 872.31 905.41
  L 868.25 905.37
  L 857.45 905.14
  L 838.98 905.15
  L 838.21 905.04
  L 837.73 904.71
  L 837.73 904.71
  L 837.56 904.30
  L 840.15 890.79
  L 840.40 890.13
  L 840.86 889.58
  L 841.47 889.23
  L 842.17 889.10
  L 872.74 889.02
  L 874.53 888.78
  L 874.53 888.78
  L 876.52 887.79
  L 878.30 886.06
  L 879.56 883.72
  L 880.50 881.27
  L 880.50 881.27
  L 880.50 881.27
  L 881.33 877.35
  L 881.42 873.19
  L 881.27 872.36
  L 880.93 871.65
  L 880.82 871.49
  L 880.06 870.68
  L 879.35 870.28
  L 877.86 870.29
  L 876.71 869.85
  L 858.24 869.03
  L 857.55 868.78
  L 852.47 866.47
  L 851.13 864.96
  L 850.10 863.29
  L 849.25 861.07
  L 848.85 858.63
  L 848.77 853.48
  L 849.32 849.01
  L 851.45 839.81
  L 852.46 836.58
  L 853.62 833.63
  L 854.91 830.96
  L 856.70 828.09
  L 858.69 825.92
  L 860.66 824.40
  L 862.77 823.12
  L 862.77 823.12
  L 865.06 822.08
  L 867.50 821.30
  L 870.07 820.79
  L 872.78 820.54
  L 900.75 820.61
  L 903.77 820.60
  L 903.96 820.70
  L 903.96 820.70
  L 904.88 820.84
  L 905.98 820.57
  L 907.14 820.80
  L 908.24 820.73
  L 908.24 820.73
  L 909.55 820.25
  L 909.94 820.24
  L 910.17 820.55
  L 910.16 820.71
  L 907.19 833.04
  Z"
/>
<path fill="#252a40" d="
  M 580.94 820.59
  L 581.34 820.84
  L 581.34 820.84
  L 581.77 820.83
  L 582.27 820.59
  L 589.17 820.61
  L 591.49 820.79
  L 594.08 820.52
  L 592.21 829.95
  L 591.27 832.63
  L 590.87 835.08
  L 590.86 835.20
  L 590.60 835.97
  L 590.06 836.58
  L 589.32 836.93
  L 588.50 836.95
  L 585.64 836.66
  L 582.99 836.83
  L 570.17 836.96
  L 569.34 837.26
  L 568.86 838.00
  L 554.67 897.44
  L 553.55 900.55
  L 553.06 903.89
  L 552.93 904.43
  L 552.61 904.88
  L 552.14 905.17
  L 551.59 905.27
  L 535.01 904.94
  L 535.06 903.71
  L 535.53 903.03
  L 535.84 902.13
  L 550.84 837.92
  L 550.84 837.90
  L 550.73 837.30
  L 550.21 836.96
  L 550.21 836.96
  L 549.91 837.49
  L 549.31 837.17
  L 548.84 837.02
  L 548.67 837.01
  L 528.87 836.93
  L 528.51 836.81
  L 528.46 836.43
  L 531.77 820.97
  L 580.00 820.56
  L 580.94 820.59
  Z"
/>
<path fill="#9d9f9e" d="
  M 582.27 820.59
  L 581.77 820.83
  L 581.34 820.84
  L 581.34 820.84
  L 580.94 820.59
  L 581.46 820.48
  L 582.27 820.59
  Z"
/>
<path fill="#252a40" d="
  M 734.76 820.49
  L 758.19 820.55
  L 762.23 821.18
  L 765.81 822.45
  L 767.45 823.33
  L 768.95 824.36
  L 770.31 825.54
  L 771.51 826.86
  L 773.18 829.40
  L 774.36 832.29
  L 775.01 835.42
  L 775.14 838.84
  L 774.68 844.07
  L 773.68 849.81
  L 769.81 866.66
  L 765.97 880.48
  L 764.01 885.81
  L 761.42 891.19
  L 759.85 893.81
  L 758.11 896.16
  L 756.19 898.23
  L 754.10 900.03
  L 751.94 901.52
  L 749.67 902.79
  L 749.67 902.79
  L 747.25 903.85
  L 744.73 904.67
  L 742.09 905.26
  L 739.33 905.62
  L 724.92 905.63
  L 719.05 905.39
  L 714.07 904.99
  L 711.60 904.51
  L 709.11 903.62
  L 706.60 902.30
  L 704.06 900.56
  L 703.32 899.91
  L 702.78 899.14
  L 702.78 899.14
  L 702.52 898.55
  L 702.39 897.84
  L 702.07 897.32
  L 702.07 897.32
  L 701.50 896.96
  L 701.43 896.78
  L 700.71 893.40
  L 700.30 890.05
  L 700.20 886.73
  L 700.42 883.46
  L 700.42 883.46
  L 700.83 880.82
  L 704.12 865.51
  L 708.25 848.82
  L 709.93 843.27
  L 711.70 837.73
  L 713.42 834.23
  L 715.43 831.11
  L 717.75 828.39
  L 720.37 826.05
  L 723.47 824.01
  L 726.90 822.40
  L 730.66 821.23
  L 734.76 820.49
  Z
  M 737.64 836.91
  L 735.44 837.41
  L 735.44 837.41
  L 733.93 838.02
  L 732.49 838.84
  L 731.57 839.26
  L 730.85 839.86
  L 730.07 841.31
  L 729.02 843.05
  L 727.30 846.66
  L 726.05 850.54
  L 722.03 867.58
  L 718.71 884.24
  L 719.24 885.69
  L 719.92 886.89
  L 720.73 887.83
  L 721.69 888.52
  L 723.23 889.06
  L 728.86 889.70
  L 728.86 889.70
  L 732.06 889.74
  L 735.27 889.55
  L 737.70 889.18
  L 739.82 888.56
  L 741.60 887.70
  L 743.07 886.59
  L 744.87 884.25
  L 745.95 882.74
  L 746.94 881.00
  L 748.59 876.77
  L 751.28 867.27
  L 753.37 858.02
  L 754.86 849.01
  L 755.75 840.26
  L 754.62 839.05
  L 753.33 838.11
  L 753.33 838.11
  L 751.24 837.22
  L 748.83 836.86
  L 744.92 836.24
  L 741.30 836.29
  L 737.64 836.91
  Z"
/>
<path fill="#252a40" d="
  M 813.21 820.53
  L 829.98 820.64
  L 844.19 820.56
  L 845.12 820.89
  L 845.66 821.23
  L 846.02 821.76
  L 846.14 822.39
  L 845.99 823.01
  L 845.99 823.01
  L 845.92 823.14
  L 845.27 824.69
  L 845.33 825.98
  L 845.40 826.14
  L 842.89 836.30
  L 842.50 836.88
  L 841.84 837.10
  L 821.00 836.96
  L 815.70 837.38
  L 810.77 838.52
  L 810.10 839.01
  L 810.10 839.01
  L 810.10 839.01
  L 807.78 841.20
  L 805.83 843.86
  L 804.24 847.00
  L 803.03 850.61
  L 799.86 863.33
  L 797.99 871.92
  L 796.33 880.56
  L 796.14 882.21
  L 796.21 883.70
  L 796.53 885.03
  L 797.11 886.18
  L 797.11 886.18
  L 797.11 886.18
  L 797.58 886.80
  L 798.77 887.95
  L 800.12 888.64
  L 801.50 888.87
  L 815.94 889.09
  L 830.40 889.07
  L 830.95 889.25
  L 831.07 889.81
  L 830.75 891.28
  L 830.15 892.75
  L 826.97 904.64
  L 826.65 905.11
  L 826.12 905.30
  L 793.52 905.20
  L 791.59 905.05
  L 789.44 904.66
  L 784.45 903.10
  L 784.16 902.94
  L 782.79 901.77
  L 782.38 901.18
  L 781.50 900.75
  L 781.26 900.03
  L 780.56 899.73
  L 777.99 893.65
  L 777.69 889.89
  L 777.61 886.42
  L 777.74 883.21
  L 778.10 880.29
  L 780.36 868.95
  L 783.99 853.94
  L 789.87 835.67
  L 791.68 832.62
  L 793.73 829.90
  L 796.02 827.53
  L 798.55 825.49
  L 798.55 825.49
  L 801.74 823.58
  L 805.25 822.12
  L 809.07 821.10
  L 813.21 820.53
  Z"
/>
<path fill="#252a40" d="
  M 267.35 850.96
  L 267.37 851.73
  L 267.62 852.36
  L 267.62 852.36
  L 268.55 853.12
  L 269.46 853.71
  L 269.36 853.85
  L 270.03 854.20
  L 273.15 854.70
  L 274.20 854.71
  L 278.31 854.79
  L 279.16 854.85
  L 282.18 854.88
  L 285.22 854.58
  L 288.97 854.86
  L 292.62 855.49
  L 295.02 856.33
  L 296.96 857.66
  L 298.14 859.03
  L 299.05 860.69
  L 299.75 862.65
  L 300.18 864.65
  L 300.31 868.01
  L 299.73 873.77
  L 298.75 879.33
  L 297.39 884.67
  L 295.64 889.81
  L 294.10 893.20
  L 292.25 896.18
  L 290.10 898.75
  L 287.64 900.92
  L 287.64 900.92
  L 284.88 902.68
  L 281.81 904.03
  L 278.44 904.97
  L 274.76 905.51
  L 236.92 905.37
  L 237.96 900.29
  L 239.71 892.79
  L 239.91 891.41
  L 240.35 890.17
  L 241.00 889.43
  L 241.95 889.16
  L 271.47 888.95
  L 273.51 888.70
  L 275.28 888.00
  L 275.28 888.00
  L 275.28 888.00
  L 275.28 888.00
  L 276.42 887.19
  L 277.42 886.13
  L 278.27 884.82
  L 278.99 883.27
  L 279.92 880.58
  L 280.57 878.06
  L 280.93 875.72
  L 281.01 873.55
  L 280.67 872.19
  L 280.67 872.19
  L 280.15 871.48
  L 279.38 870.89
  L 277.60 870.40
  L 274.33 870.16
  L 261.83 869.82
  L 258.26 869.41
  L 255.21 868.54
  L 252.69 867.21
  L 250.69 865.44
  L 250.69 865.44
  L 250.69 865.44
  L 249.15 863.06
  L 248.19 860.17
  L 247.83 856.76
  L 248.05 852.85
  L 248.96 847.10
  L 250.19 841.70
  L 251.75 836.65
  L 253.64 831.96
  L 255.23 829.12
  L 257.23 826.69
  L 257.23 826.69
  L 257.23 826.69
  L 259.09 825.05
  L 261.22 823.68
  L 263.60 822.55
  L 266.24 821.68
  L 268.12 821.36
  L 270.97 821.13
  L 279.53 820.98
  L 309.27 820.99
  L 309.61 821.11
  L 309.64 821.47
  L 306.28 835.49
  L 306.01 836.11
  L 305.55 836.61
  L 304.96 836.93
  L 304.29 837.03
  L 275.75 836.97
  L 273.41 837.33
  L 272.03 837.91
  L 270.69 838.99
  L 269.61 840.63
  L 268.28 844.06
  L 267.56 847.43
  L 267.35 850.96
  Z"
/>
<path fill="#252a40" d="
  M 340.07 900.10
  L 339.69 900.77
  L 339.08 902.50
  L 338.90 904.45
  L 338.37 904.97
  L 337.98 905.15
  L 337.70 905.31
  L 337.34 905.37
  L 320.82 905.29
  L 320.99 904.24
  L 325.65 883.54
  L 336.07 838.09
  L 336.07 838.08
  L 335.97 837.57
  L 335.54 837.29
  L 333.16 836.95
  L 331.00 836.85
  L 314.66 836.95
  L 314.26 836.80
  L 314.22 836.39
  L 317.64 822.18
  L 318.15 821.30
  L 319.12 821.01
  L 379.36 821.01
  L 379.44 821.01
  L 379.92 821.30
  L 380.03 821.86
  L 376.69 835.74
  L 376.14 836.60
  L 375.17 836.94
  L 356.47 836.94
  L 355.39 837.27
  L 354.84 838.23
  L 340.07 900.10
  Z"
/>
<path fill="#9d9f9e" d="
  M 592.21 829.95
  L 590.92 836.27
  L 590.70 836.67
  L 590.27 836.80
  L 582.99 836.83
  L 585.64 836.66
  L 588.50 836.95
  L 589.32 836.93
  L 590.06 836.58
  L 590.60 835.97
  L 590.86 835.20
  L 590.87 835.08
  L 591.27 832.63
  L 592.21 829.95
  Z"
/>
<path fill="#9d9f9e" d="
  M 163.44 893.72
  L 177.57 832.03
  L 163.44 893.72
  Z"
/>
<path fill="#9d9f9e" d="
  M 162.32 833.01
  L 152.74 873.40
  L 152.73 872.49
  L 161.75 833.50
  L 162.06 833.03
  L 162.32 833.01
  Z"
/>
<path fill="#9d9f9e" d="
  M 907.19 833.04
  L 906.95 836.22
  L 906.80 836.61
  L 906.38 836.90
  L 905.68 836.99
  L 907.19 833.04
  Z"
/>
<path fill="#9d9f9e" d="
  M 783.99 853.94
  L 785.09 848.44
  L 786.68 843.11
  L 788.14 839.35
  L 789.87 835.67
  L 783.99 853.94
  Z"
/>
<path fill="#9d9f9e" d="
  M 748.83 836.86
  L 737.64 836.91
  L 741.30 836.29
  L 744.92 836.24
  L 748.83 836.86
  Z"
/>
<path fill="#9d9f9e" d="
  M 535.06 903.71
  L 549.90 839.97
  L 549.91 837.49
  L 550.21 836.96
  L 550.21 836.96
  L 550.73 837.30
  L 550.84 837.90
  L 550.84 837.92
  L 535.84 902.13
  L 535.53 903.03
  L 535.06 903.71
  Z"
/>
<path fill="#9d9f9e" d="
  M 654.55 837.20
  L 642.69 888.26
  L 642.12 887.96
  L 642.11 887.70
  L 648.87 859.74
  L 653.93 837.70
  L 654.12 837.33
  L 654.48 837.13
  L 654.55 837.20
  Z"
/>
<path fill="#9d9f9e" d="
  M 711.70 837.73
  L 709.93 843.27
  L 708.25 848.82
  L 704.12 865.51
  L 700.83 880.82
  L 700.42 883.46
  L 700.42 883.46
  L 700.20 886.73
  L 700.30 890.05
  L 700.71 893.40
  L 701.43 896.78
  L 700.53 893.89
  L 699.96 890.96
  L 699.74 886.53
  L 700.25 882.00
  L 702.39 871.51
  L 702.39 871.51
  L 705.34 858.53
  L 708.61 845.61
  L 709.16 843.72
  L 710.30 840.68
  L 711.70 837.73
  Z"
/>
<path fill="#9d9f9e" d="
  M 810.77 838.52
  L 808.40 841.13
  L 806.38 844.22
  L 804.70 847.79
  L 803.37 851.84
  L 799.86 865.60
  L 797.32 877.27
  L 797.01 879.55
  L 796.96 881.90
  L 797.14 884.31
  L 797.58 886.80
  L 797.11 886.18
  L 796.53 885.03
  L 796.21 883.70
  L 796.14 882.21
  L 796.33 880.56
  L 797.99 871.92
  L 799.86 863.33
  L 803.03 850.61
  L 804.24 847.00
  L 805.83 843.86
  L 807.78 841.20
  L 810.10 839.01
  L 810.10 839.01
  L 810.10 839.01
  L 810.77 838.52
  Z"
/>
<path fill="#9d9f9e" d="
  M 732.49 838.84
  L 730.07 841.31
  L 730.85 839.86
  L 731.57 839.26
  L 732.49 838.84
  Z"
/>
<path fill="#9d9f9e" d="
  M 744.87 884.25
  L 747.71 877.64
  L 748.99 873.82
  L 750.05 869.92
  L 753.48 855.75
  L 754.55 849.83
  L 755.75 840.26
  L 754.86 849.01
  L 753.37 858.02
  L 751.28 867.27
  L 748.59 876.77
  L 746.94 881.00
  L 745.95 882.74
  L 744.87 884.25
  Z"
/>
<path fill="#9d9f9e" d="
  M 406.01 845.49
  L 396.95 863.43
  L 396.83 863.19
  L 396.78 863.10
  L 396.80 863.01
  L 406.01 845.49
  Z"
/>
<path fill="#9d9f9e" d="
  M 426.37 847.11
  L 427.13 855.11
  L 426.50 852.85
  L 426.20 850.57
  L 426.37 847.11
  Z"
/>
<path fill="#9d9f9e" d="
  M 484.86 904.04
  L 480.50 888.33
  L 477.15 877.35
  L 471.57 859.36
  L 469.65 852.57
  L 469.41 852.13
  L 469.23 851.97
  L 469.29 851.15
  L 469.46 850.60
  L 469.83 851.04
  L 470.33 852.39
  L 471.47 857.22
  L 472.78 861.76
  L 478.04 878.79
  L 483.19 896.31
  L 484.65 902.70
  L 484.86 904.04
  Z"
/>
<path fill="#9d9f9e" d="
  M 267.35 850.96
  L 268.55 853.12
  L 267.62 852.36
  L 267.62 852.36
  L 267.37 851.73
  L 267.35 850.96
  Z"
/>
<path fill="#9d9f9e" d="
  M 868.37 851.80
  L 869.31 852.87
  L 869.31 852.87
  L 870.38 853.74
  L 871.61 854.45
  L 870.31 854.35
  L 869.33 853.87
  L 869.33 853.87
  L 869.33 853.87
  L 868.70 853.02
  L 868.37 851.80
  Z"
/>
<path fill="#9d9f9e" d="
  M 269.46 853.71
  L 285.22 854.58
  L 282.18 854.88
  L 279.16 854.85
  L 278.31 854.79
  L 274.20 854.71
  L 273.15 854.70
  L 270.03 854.20
  L 269.36 853.85
  L 269.46 853.71
  Z"
/>
<path fill="#9d9f9e" d="
  M 223.57 905.34
  L 219.48 905.94
  L 215.27 906.23
  L 210.96 906.20
  L 206.54 905.86
  L 206.16 905.69
  L 205.94 905.35
  L 199.70 883.93
  L 193.19 862.50
  L 192.08 858.39
  L 191.25 854.19
  L 206.09 904.45
  L 206.32 904.81
  L 206.73 904.94
  L 223.57 905.34
  Z"
/>
<path fill="#9d9f9e" d="
  M 892.77 895.76
  L 892.85 895.29
  L 892.93 894.96
  L 893.06 894.69
  L 895.49 889.99
  L 897.10 885.60
  L 898.31 880.88
  L 899.46 875.50
  L 900.05 871.75
  L 900.29 868.29
  L 900.17 865.12
  L 899.69 862.25
  L 899.03 860.58
  L 897.84 858.97
  L 896.13 857.40
  L 893.89 855.88
  L 895.55 856.67
  L 896.97 857.62
  L 898.14 858.71
  L 899.07 859.96
  L 899.85 861.64
  L 900.73 865.19
  L 900.86 868.49
  L 900.23 873.79
  L 899.14 879.21
  L 897.60 884.75
  L 895.61 890.41
  L 894.20 893.55
  L 892.77 895.76
  Z"
/>
<path fill="#9d9f9e" d="
  M 410.56 869.10
  L 409.97 865.70
  L 409.97 865.70
  L 409.90 863.53
  L 410.07 861.33
  L 410.56 869.10
  Z"
/>
<path fill="#9d9f9e" d="
  M 440.30 902.47
  L 449.55 864.04
  L 440.30 902.47
  Z"
/>
<path fill="#9d9f9e" d="
  M 857.55 868.78
  L 856.00 868.49
  L 854.58 867.95
  L 854.58 867.95
  L 852.47 866.47
  L 857.55 868.78
  Z"
/>
<path fill="#9d9f9e" d="
  M 466.00 866.92
  L 462.75 880.51
  L 466.00 866.92
  Z"
/>
<path fill="#9d9f9e" d="
  M 876.71 869.85
  L 870.75 870.04
  L 863.81 869.89
  L 860.79 869.61
  L 858.24 869.03
  L 876.71 869.85
  Z"
/>
<path fill="#9d9f9e" d="
  M 492.37 869.80
  L 493.21 872.79
  L 493.25 873.07
  L 493.19 873.17
  L 493.01 873.27
  L 492.86 873.14
  L 492.23 871.52
  L 492.27 870.09
  L 492.37 869.80
  Z"
/>
<path fill="#9d9f9e" d="
  M 213.49 872.08
  L 214.62 869.92
  L 214.92 871.14
  L 214.81 872.22
  L 214.81 872.22
  L 214.25 873.23
  L 214.15 873.32
  L 213.71 873.38
  L 213.39 873.06
  L 213.42 872.17
  L 213.49 872.08
  Z"
/>
<path fill="#9d9f9e" d="
  M 878.30 886.06
  L 880.10 881.57
  L 880.77 879.77
  L 881.17 878.01
  L 881.30 876.30
  L 881.15 874.64
  L 881.15 874.64
  L 880.51 872.42
  L 879.35 870.28
  L 880.06 870.68
  L 880.82 871.49
  L 880.93 871.65
  L 881.27 872.36
  L 881.42 873.19
  L 881.33 877.35
  L 880.50 881.27
  L 879.56 883.72
  L 878.30 886.06
  Z"
/>
<path fill="#9d9f9e" d="
  M 620.61 903.29
  L 628.21 871.50
  L 620.61 903.29
  Z"
/>
<path fill="#9d9f9e" d="
  M 152.74 873.40
  L 148.79 890.42
  L 152.74 873.40
  Z"
/>
<path fill="#9d9f9e" d="
  M 185.09 873.75
  L 183.74 879.78
  L 184.03 877.07
  L 184.76 874.54
  L 184.76 874.54
  L 185.09 873.75
  Z"
/>
<path fill="#9d9f9e" d="
  M 183.50 880.85
  L 182.79 884.26
  L 182.78 882.98
  L 183.04 881.80
  L 183.50 880.85
  Z"
/>
<path fill="#9d9f9e" d="
  M 127.93 901.36
  L 132.20 883.56
  L 127.93 901.36
  Z"
/>
<path fill="#9d9f9e" d="
  M 320.99 904.24
  L 325.65 883.54
  L 320.99 904.24
  Z"
/>
<path fill="#9d9f9e" d="
  M 182.62 884.44
  L 182.58 885.80
  L 182.32 887.10
  L 182.32 887.10
  L 181.72 888.54
  L 181.79 887.14
  L 182.08 885.80
  L 182.62 884.44
  Z"
/>
<path fill="#9d9f9e" d="
  M 718.71 884.24
  L 719.95 886.13
  L 721.21 887.51
  L 722.48 888.39
  L 723.76 888.76
  L 730.28 889.18
  L 735.78 889.10
  L 737.55 888.86
  L 739.35 888.36
  L 741.19 887.61
  L 743.07 886.59
  L 741.60 887.70
  L 739.82 888.56
  L 737.70 889.18
  L 735.27 889.55
  L 732.06 889.74
  L 728.86 889.70
  L 728.86 889.70
  L 723.23 889.06
  L 721.69 888.52
  L 720.73 887.83
  L 719.92 886.89
  L 719.24 885.69
  L 718.71 884.24
  Z"
/>
<path fill="#9d9f9e" d="
  M 228.18 884.97
  L 226.82 891.11
  L 227.05 888.48
  L 227.73 886.02
  L 228.18 884.97
  Z"
/>
<path fill="#9d9f9e" d="
  M 507.91 885.46
  L 503.72 904.54
  L 503.47 905.15
  L 503.03 905.65
  L 502.46 905.97
  L 501.81 906.08
  L 485.88 906.08
  L 485.72 906.07
  L 485.03 905.60
  L 484.94 904.77
  L 485.04 904.46
  L 485.64 904.89
  L 486.01 905.08
  L 486.52 905.17
  L 501.79 905.17
  L 502.72 904.89
  L 503.20 904.07
  L 507.91 885.46
  Z"
/>
<path fill="#9d9f9e" d="
  M 412.47 893.80
  L 412.11 892.33
  L 412.11 892.33
  L 411.98 890.49
  L 412.19 888.60
  L 412.55 890.07
  L 412.55 890.07
  L 412.68 891.91
  L 412.47 893.80
  Z"
/>
<path fill="#9d9f9e" d="
  M 460.78 889.48
  L 459.81 893.46
  L 460.01 891.40
  L 460.78 889.48
  Z"
/>
<path fill="#9d9f9e" d="
  M 226.68 891.43
  L 224.28 902.41
  L 226.68 891.43
  Z"
/>
<path fill="#9d9f9e" d="
  M 237.96 900.29
  L 239.71 892.79
  L 237.96 900.29
  Z"
/>
<path fill="#9d9f9e" d="
  M 830.15 892.75
  L 827.58 904.24
  L 827.28 904.98
  L 826.75 905.58
  L 826.05 905.97
  L 825.26 906.11
  L 810.25 906.08
  L 795.51 905.77
  L 792.29 905.49
  L 789.16 904.84
  L 789.16 904.84
  L 786.78 904.08
  L 784.45 903.10
  L 789.44 904.66
  L 791.59 905.05
  L 793.52 905.20
  L 826.12 905.30
  L 826.65 905.11
  L 826.97 904.64
  L 830.15 892.75
  Z"
/>
<path fill="#9d9f9e" d="
  M 780.56 899.73
  L 779.82 898.75
  L 778.63 896.38
  L 777.99 893.65
  L 780.56 899.73
  Z"
/>
<path fill="#9d9f9e" d="
  M 180.56 893.95
  L 178.81 901.33
  L 179.35 897.69
  L 180.56 893.95
  Z"
/>
<path fill="#9d9f9e" d="
  M 892.77 895.76
  L 890.83 898.65
  L 888.44 900.94
  L 886.60 902.13
  L 884.56 903.06
  L 880.32 904.39
  L 875.74 905.35
  L 870.79 905.94
  L 865.50 906.16
  L 849.79 906.07
  L 838.27 905.77
  L 837.83 905.65
  L 837.51 905.34
  L 837.37 904.92
  L 837.56 904.30
  L 837.73 904.71
  L 837.73 904.71
  L 838.21 905.04
  L 838.98 905.15
  L 857.45 905.14
  L 868.25 905.37
  L 872.31 905.41
  L 876.10 905.11
  L 879.63 904.47
  L 882.90 903.49
  L 885.58 902.25
  L 888.12 900.55
  L 890.52 898.38
  L 892.77 895.76
  Z"
/>
<path fill="#9d9f9e" d="
  M 679.04 895.95
  L 677.15 897.96
  L 675.05 899.56
  L 675.47 899.04
  L 675.47 899.04
  L 677.11 897.37
  L 679.04 895.95
  Z"
/>
<path fill="#9d9f9e" d="
  M 161.00 904.70
  L 161.40 901.15
  L 161.93 898.82
  L 162.68 896.54
  L 161.00 904.70
  Z"
/>
<path fill="#9d9f9e" d="
  M 702.52 898.55
  L 701.87 897.87
  L 701.50 896.96
  L 702.07 897.32
  L 702.39 897.84
  L 702.52 898.55
  Z"
/>
<path fill="#9d9f9e" d="
  M 554.67 897.44
  L 552.94 905.26
  L 552.55 905.88
  L 551.85 906.11
  L 535.55 906.00
  L 535.15 905.82
  L 534.88 905.36
  L 535.01 904.94
  L 551.59 905.27
  L 552.14 905.17
  L 552.61 904.88
  L 552.93 904.43
  L 553.06 903.89
  L 553.55 900.55
  L 554.67 897.44
  Z"
/>
<path fill="#9d9f9e" d="
  M 431.42 897.75
  L 431.97 904.77
  L 431.93 905.33
  L 431.73 905.72
  L 431.73 905.72
  L 431.35 905.96
  L 430.80 906.04
  L 414.72 906.04
  L 414.15 905.93
  L 413.66 905.61
  L 413.33 905.12
  L 413.20 904.55
  L 413.04 898.53
  L 413.37 903.90
  L 413.50 904.43
  L 413.83 904.87
  L 414.29 905.17
  L 414.83 905.27
  L 430.72 905.27
  L 431.44 904.97
  L 431.73 904.24
  L 431.73 904.24
  L 431.73 904.22
  L 431.42 897.75
  Z"
/>
<path fill="#9d9f9e" d="
  M 675.05 899.56
  L 672.44 901.34
  L 670.73 902.18
  L 668.93 902.84
  L 675.05 899.56
  Z"
/>
<path fill="#9d9f9e" d="
  M 781.50 900.75
  L 780.81 900.28
  L 780.56 899.73
  L 781.26 900.03
  L 781.50 900.75
  Z"
/>
<path fill="#9d9f9e" d="
  M 340.07 900.10
  L 339.78 902.01
  L 339.20 903.80
  L 338.90 904.45
  L 339.08 902.50
  L 339.69 900.77
  L 340.07 900.10
  Z"
/>
<path fill="#9d9f9e" d="
  M 739.33 905.62
  L 731.69 906.20
  L 728.37 906.21
  L 722.42 906.03
  L 717.91 905.69
  L 713.82 905.12
  L 709.97 904.28
  L 707.55 903.38
  L 705.51 902.04
  L 705.51 902.04
  L 704.06 900.56
  L 706.60 902.30
  L 709.11 903.62
  L 711.60 904.51
  L 714.07 904.99
  L 719.05 905.39
  L 724.92 905.63
  L 739.33 905.62
  Z"
/>
<path fill="#9d9f9e" d="
  M 782.79 901.77
  L 781.72 901.09
  L 781.50 900.75
  L 782.38 901.18
  L 782.79 901.77
  Z"
/>
<path fill="#9d9f9e" d="
  M 458.04 901.10
  L 458.03 901.65
  L 457.81 903.18
  L 457.32 904.70
  L 457.45 902.70
  L 458.04 901.10
  Z"
/>
<path fill="#9d9f9e" d="
  M 145.85 902.95
  L 145.88 904.27
  L 145.47 905.24
  L 144.50 905.91
  L 143.00 906.15
  L 128.03 906.00
  L 127.33 905.65
  L 127.14 904.90
  L 127.14 904.90
  L 127.17 904.77
  L 127.26 904.53
  L 127.80 905.02
  L 128.39 905.26
  L 128.39 905.26
  L 128.76 905.29
  L 144.09 905.15
  L 144.53 905.05
  L 144.85 904.71
  L 145.85 902.95
  Z"
/>
<path fill="#9d9f9e" d="
  M 663.19 904.66
  L 656.34 905.70
  L 651.00 906.08
  L 635.91 906.13
  L 620.65 905.94
  L 620.14 905.69
  L 620.00 905.15
  L 620.03 905.05
  L 620.33 904.20
  L 620.65 904.93
  L 621.10 905.32
  L 621.10 905.32
  L 621.50 905.39
  L 631.40 905.08
  L 637.25 905.08
  L 651.42 905.28
  L 657.60 905.07
  L 663.19 904.66
  Z"
/>
<path fill="#9d9f9e" d="
  M 375.21 905.23
  L 375.17 905.24
  L 375.17 905.24
  L 375.17 905.24
  L 370.36 906.03
  L 365.44 906.31
  L 360.40 906.07
  L 355.25 905.32
  L 375.21 905.23
  Z"
/>
<path fill="#9d9f9e" d="
  M 457.32 904.70
  L 456.90 905.47
  L 456.90 905.47
  L 456.31 905.85
  L 455.49 906.01
  L 451.25 906.15
  L 447.01 906.07
  L 444.03 906.08
  L 441.87 905.90
  L 439.89 905.33
  L 455.94 905.35
  L 456.55 905.25
  L 457.32 904.70
  Z"
/>
<path fill="#9d9f9e" d="
  M 160.97 904.99
  L 161.48 905.32
  L 161.52 905.34
  L 162.05 905.43
  L 169.99 905.15
  L 178.00 905.47
  L 174.03 905.92
  L 170.00 906.15
  L 165.92 906.17
  L 161.79 905.98
  L 161.23 905.81
  L 160.78 905.42
  L 160.78 905.41
  L 160.97 904.99
  Z"
/>
<path fill="#9d9f9e" d="
  M 236.92 905.37
  L 274.76 905.51
  L 260.52 906.08
  L 243.00 905.97
  L 239.31 905.77
  L 236.92 905.37
  Z"
/>
<path fill="#9d9f9e" d="
  M 320.82 905.29
  L 337.34 905.37
  L 337.70 905.31
  L 337.98 905.15
  L 338.37 904.97
  L 338.36 905.50
  L 338.36 905.50
  L 338.07 905.75
  L 337.54 905.86
  L 333.13 906.08
  L 328.72 906.09
  L 321.83 905.68
  L 321.08 905.55
  L 320.81 905.35
  L 320.81 905.35
  L 320.82 905.29
  Z"
/>
</svg>
