<svg xmlns="http://www.w3.org/2000/svg" viewBox="0 0 1024 1024"><path fill="#2b2b2b" d="M723.8 160.7 705.3 197l-18.2 36.4-.5 1.1-.1 1.1-60.6 119.6h-.8l-.1.4v.8l.3.3.4.2h154.5l1.6.3 2 .9 1.8 1 1.5 1.2 1.3 1.4 1.6 2.5 1 3 .5 3.4v4l-.7 1.8-.9 1.8-1.1 1.8-1.5 1.7-13 13.6-44.6 45-116 116.5L593 577 479.8 690l-5.8 6-12 12-15.6 15.4-59 59-2.7 2.4-2 1.3-1.5.6-1.8.4-2.2.2h-2l-2-.4-1.8-.7-1.5-.9-1.4-1.1-1.3-1.5-1.2-1.6-1.3-2.8-.6-2.8.1-2.5.7-2.6 1.7-4.3 2.6-5.8 2.2-5 36.8-86.5 7.8-18.4 53.4-128.2.2-.6-.1-.4-.4-.2-.5-.1-90.4.1h-91l-2.8-.2-2.7-.4-2.7-.6-2.5-.9-2.3-1-2.1-1.2-2.1-1.4-2-1.6-1.6-1.6-1.4-1.7-1.7-2.5-.8-1.8-.5-2-.2-2v-2.4l.3-2.5.6-2.6.9-2.5 1-2.3L398.5 222l1-2.5 1.6-3.3 1.3-2.4 1.6-3.5 1.4-3.2 39.8-79.6 2.9-5.1 3.2-4.7 3.6-4.2 4-3.8 4.8-3.8 3.4-2.1 2.6-1.2 2.7-1 2.7-.7 3-.5 5-.3h10l234.7-.1 3.3.2 3 .6 2.7 1.1 2.3 1.5 1 .8 1.5 1.7.9 1.4.6 1.4.9 3.4.3 2.6v2.5l-.4 2.1-.6 2-3.6 8.3-4.4 9.3-5.3 10.4zm-262-16-4.8 8.8-4.3 9-2.6 6.1L429 211v.8l.6.2H589l.8-.4.7-.6.4-.7 40.9-87.7v-.4l-.3-.2H488.3l-3.4.2-3 .5-3 1-2.7 1.2-1.7 1.1-1.7 1.4-1.5 1.5-1.5 1.7-2.2 3-2 3.4-2 3.7zm153 287.5.4-2.2.4-9.5-.2-.6-.6-.3h-16.6l-.7.3-.3.7.2 33.3-.1 1.6-.4 1.4-1.5 2.7-11.5 16.4-.6.6-.4.2-.2-.4v-56l-.6-.9-1-.3H469.3l-.4-.2v-91.3l-.2-.6-.3-.5-.5-.4-.6-.1-44.8.1h-50l-1 .2-.6.4v.3l-3.1 6.6-4.3 8.2v.7l.6.3h86.4l.5.1.2.6v91.2l.3.8.8.3H566l.1 63.7-3.3 5.6-3.6 5.4-4 5.4-4.3 5.2v-59.9l-.2-4.1-.2-4.2.2-.8v-.7l-.2-.3-.3-.3H436.9l-.2-11.6.3-38.4V366l-.6-5 .5-1.8-.2-1.3-.3-.5-.6-.2-30.8.4-1-.1-.5-.4-.7.3-2 .3-2-.1-2 .1h-.3l-1-.1h-1l-.2-.1-37.3-.3-1 .3-.7.9-6.2 12.9-.2 1-.4.3-.2.4.1.4.6.3 71 .1v91.9l-.2.5v.4l.5.3h.8l2.6-.4 5 .4h6l97-.1 1-.1.9-.4.6 1.8.2 1.4.1 73.6-.3 1.6-1 2-12.2 17.8-1 1-1.1 1 .2-83.3-.4-.8-.8-.4-144.2-.2v-61.5l-.4-.5-.5-.4H326l-1 .2-.6.7-3.3 6.1-3 6.6v.2l.1.1-.3.6-.7.3-.2.4v.5l.4.6.7.3h38.1l.1.3.4 45.6-14 .5-.5-.4-.4-.8v-30l-.2-.6-.5-.2h-30.7l-1 .3-.6.7-7.2 14.4v.6l.1.3h.1l22.6.3.4.2.1.4V498l-.2.2v.3l.4.4h176.8l.4.2.2.4v89.1h.1l.4-.4.1.9-2 3.4-6.8 10-7.3 9.7V547l-.2-5.8-.1-.8-.2-.3-.3.2-.4.8-8.8 22-2.6 5.8-2.3 5.8-1.3 3.6-.4 1.6-.2 1.5.2 51.4v1.4l-.3 1.2-.7 1.4-1.1 1.7-.4.5-7.6 10.4-5.4 7 .1-37v-1.1l-.3-.4-.3.3-.5 1L417 708l-5.2 10.5-4.5 10.8-.1.7.5-.4 34.7-34.8 23.8-23.5 45.2-44.7 73.5-73.4 77-77 56-56.7 14-14.4 25.5-25.6.4-.5v-.4l-.2-.2h-.6l-54.7-.2h-89.8l-3.4-.4-2.7-.4-1.9-.6-1.8-1-1.7-1.4-1.4-1.6-1-1.9-.9-2-.5-2.1-.1-2.1.2-2.2.4-1.8.4-1.2 18-34.7 17.2-34.5 9-17.8 10.7-20.8 10.9-21.8 17.5-35 15.3-30.2 9.4-18.6 11.6-23.3v-.6l-.5-.2H658l-1 .3-.8.8-131 281.1v.3l.2.2h109l.3.2v.3l-17.9 25-.8 1-1 .8zM418 233.2l-2.2 4.3-1.6 2.4-.5 1.2-.2 1.3v.2l142 .6.8.2.3.5v.6l-.2 1.3-.2 3 .2 2.7-.5 14.5v14.5l.1 3 .3.7.4-.5L580 234l1.2-2.2 1-2.2.5-1.8-.1-.4-.4-.2-5.2.2h-.5l-154.9-.2-.5.2-.4.4zM405.8 258l-7 13.6-.5.6-.2.5.1.3v.3l.6.4h124.1l.5.1.4.3.9.7-.2 1-.3 11.3v15.2l.4 15.2-.6 12v12l.2 2.2.5 2.2v.5l-.1.5-.2.8v.7l.1.7v.9l-.1.3-.3 1v1l.2.7.5-.5 15.5-32.4.4-1.7.3-8.5v-51.1l-.3-.4-.4-.2zm-15.6 31.3L380 310l-.6.3v.1l.2.7.6.3 102.8.4v92.7l.4.4.5.2 1.6.2 23.1-.3.8-.4.4-.8V289.4l-.1-.5-.3-.4-.4-.3H392.1l-1.1.2-.7.3-.2.3zM340 389.4l-7 14.2.2.4-.3-.2-.2.3v.1l.1.5.5.2h53.4l.6.1.5.3.4.6.1.6V433l.2 7.7-.3 24.2v.2l.2.2v.6l.2.4.4.2h.6l15 .3.6-.3.3-.6-.4-8.6v-68.7l-.6-.3-31.4-.2-31.4.1-.8.2-.6.3zm-54.2 109 9.4.6 9.4-.1 5.4-.4v-15.8l-.3-.5-.5-.2h-13.6l-1.4.3-1 1z"/><path fill="#c5c5c5" d="m417 708 37.9-51.8 5.4-7 7.6-10.3.4-.5 1.1-1.7.7-1.4.3-1.1v-1.5l-.2-51.5.2-1.4.4-1.6 1.3-3.6 2.3-5.8 2.6-5.8-4.9 13-.7 2.4-.2 2.5-.1 5.1v46.3l.1.5.5-.3 15.3-20.3 7.3-9.8 6.9-10 2-3.3 15.7-22.5 1.1-1 1-1.1 12.2-17.8 1-2 .3-1.6-.1-73.6-.2-1.4-.6-1.8.5.1.6.8.2 1.6.1 73.3.2.7.6-.5 15.1-21.1 4.3-5.2 4-5.4 3.6-5.4 3.3-5.6 15.1-20.6.6-1.2.3-1.3v-56.2l-.3-.3H468v-92.4l-.2-.4-.4-.1H371v-.3l.6-.4 1-.1h50l44.8-.2.6.1.5.4.3.5.1.6v91l.1.3.4.2h111.8l.7.1.5.3.3.6.1.6v55.6l.2.4.4-.2.6-.6 11.5-16.4 1.5-2.7.4-1.4.1-1.6-.2-33.3.3-.7.7-.3h16.5l.7.3.2.6-.4 9.5-.2-9.4-.2-.4-.5-.2h-15.8l-.4.1-.1.4v33.7l.2.7.5-.5 16-22.2.4-.2 1-.9.8-1 17.8-24.9v-.3l-.1-.2h-109l-.3-.2v-.3l131-281 .7-.9 1-.3h59.3l.6.2-.1.6-11.6 23.3-9.4 18.6-15.2 30.3-17.6 34.8-10.9 21.8-10.7 20.9-9 17.8-17.3 34.5-17.9 34.7-.4 1.2-.4 1.8-.2 2.2.1 2 .5 2.2.8 2 1.1 1.9 1.4 1.6 1.7 1.3 1.8 1 2 .7 2.6.4 3.3.3 4 .1h85.9l54.7.2h.6l.2.3v.3l-.4.5L732 405l-14 14.3-56 56.8-77 77-73.5 73.3-45.2 44.8-23.8 23.5-34.7 34.8-.6.4.2-.7 4.5-10.8z"/><path fill="#2b2b2b" d="m585.5 137-.3 15H474.5l.3-15z"/><path fill="#c5c5c5" d="m585.2 152 .3-15 .6 7-.1 7.4-.2.5zm-110.4-15-.3 15-.4-3.5-.3-3.5v-3.6l.3-3.6zm-13 7.6-11.7 24 2.6-6 4.3-9.1zm262 16.1v.8l-.3.8L705 199l-18.6 36.5.1-1.1.5-1.1 18.2-36.4z"/><rect width="94.1" height="15" x="475" y="168" fill="#2b2b2b" rx=".8"/><path fill="#c5c5c5" d="m576.5 227.4-2.2.3h-1l-75 .3-74.8-.2-1.8.2-.7.3-.4.5-.2.3-1.6 3-.7 1.1 2.6-5.4.4-.4.5-.2zm3.5 6.6 2-5-.1-.5-.5-.4-4.4-.7 5.2-.2.4.2v.4l-.5 1.8-.9 2.2zm-164 3.5-1 2.6-1.4 2.5v-.2l.2-1.3.5-1.2zm140.5 8.3.3 2v2l-.3 1.7-.2-2.8zM405.8 258l-7 13.6zm118.9 16.8-.9-.7-.4-.3h-.5l-124.1-.1-.7-.3.1-.4h119l6.2.3 1 .2.4.5zm-.2.9.5 9.2.1 9.1v11.8l-.5 11.7-.5-15.2V287zM483 404h25l.7-.2.3-.7V290l-.3-.8-.8-.3-117.7.3-.1-.3.2-.3.7-.3 1-.2h117l.4.3.3.4v114.9l-.3.8-.8.4-23 .3-1.7-.2-.5-.2-.3-.4z"/><path fill="#c5c5c5" d="m380 310 .1.6.3.3.4.1h101.5l.4.1.2.3.1.4-102.8-.4-.6-.3-.2-.6v-.1zm-12.2 23.8-3.6 7.8v.3l.2.1H450l.8.2.7.4.4.7.2.8v90.6l.2.3h113l.5.1.2.4.1.5H452.3l-.8-.4-.3-.8v-91.2l-.2-.6-.5-.1h-86.4l-.6-.3v-.7zM626 355v.8l.6.2h138.7l12.5.2 3.3.4 3 1 1.3.5 1.2 1 2.3 2.4 1 1.6.9 1.6.6 1.7.4 1.6.2 3.2-.6 3.2.1-3.9-.5-3.4-1-3-1.6-2.5-1.3-1.4-1.5-1.2-1.8-1-2-.9-1.5-.2-2-.1H625.6l-.4-.2-.3-.4v-.7l.1-.4z"/><path fill="#c5c5c5" d="m404 357.5-.3.2h-.4l-.5-.3.7-.3zm32.5 3.5-.3-1.4-.4-1-.3-.4h-.4l-30.1-.6 30.8-.4.6.2.3.5.2 1.3zm-42.2-3.5-11.6.6H357l-.8.4-.7.6-.4.7-6 11.4 6.1-12.8.8-.9 1-.3zm2.1.3-.7.3-.6-.1-.6-.4h1zm2.3-.2-.7.3h-.7l-.5-.2zm-49.8 14.7.1.4.4.2.6.1h59l6 .2 5 .6h-71l-.6-.4-.1-.4.2-.4zm438.4 9.3-13 13.6zM405 389h-63l-2 .4.3-.7.6-.3.9-.2 31.3-.1 31.4.2.5.3.1.1zm-65 .4-7 14.2zm-6.8 14.6 54.2.1.7.1.4.3.3.5.1.7v22.6l-.6 4.7v-26.6l-.1-.5-.4-.6-.5-.3-.6-.1h-53.4l-.5-.2-.1-.5.2-.4z"/><path fill="#c5c5c5" d="m373.7 481.8-.6-.1-.1-.4v-60.5l-.2-.5-.4-.2-4.1-.2h-40.5l-1.5.1-1.2.6-.9.8-.6 1.2-1.8 4-3.6 6.7-.2-.1v-.2l3.1-6.6 3.3-6.1.6-.7 1-.3h46.2l.6.1.5.4.4.5z"/><path fill="#c5c5c5" d="m317.9 434 .2.6.5.3.6.1H355l.9.2.6.4.4.6.1 1-.2 44.7-.4-45.6v-.3H318l-.6-.3-.3-.6v-.9zm119 17-.7-2.7-.3-2.8.2-3 .6-3.2zm292.8-10.7-116 116.4zm-341.2.4.5 12-.1 12-.1.4-.4.2-.1-.2v-.1l-.1-.1z"/><path fill="#c5c5c5" d="M342.7 482.4v.1l-.3.1h-.3l-.3-.2-.3-.5-.4-1-.2-1.1v-12.4l.2-15.4-.3-.7-.8-.3h-29l-1.1.3-.8.8-7.2 14.5-.3-.2v-.6l7.3-14.4.6-.7 1-.3H341l.5.2.2.5v30l.4.9zM550.6 453l-.5-.9-.4-1.2h.5l.3.3.1.3.1.7zm-161 13.5 14.6-.5.6-.3.3-.7v-7.7l.4 8.6-.3.6-.6.3zm30.4-.8 3.7.8-2.6.4h-.8l-.4-.3v-.9M325 498h177.4l.3.2.2.3v89.7l-.3.3v.1l-.1-.1v-89l-.2-.4-.4-.1H325.5l-.4-.1-.4-.4v-.3zm-39.2.3 6.2-.3 6.1-.1 6 .2 6 .4-5.5.4h-9.4zM593 577l-.5 1-1 1.1L486 684.3l-3.7 3.5-2.6 2.2zM474 696l-3 3.4-3.1 3.2-6 5.5z"/><path fill="#2b2b2b" d="M749.8 902.7h-.7l-.1.4-4.4 1.6-4.3.9-7.6.6h-8.6l-8.6-.9-3-.5-2.6-.6-2-.8-1.7-.9-1.4-1-1.2-1.2-1.4-1.9-1-2-.7-2.4-.5-2.6-.2-2.9.1-3 .4-3.5.7-3.8 3.8-17.3 3.9-15.7 1.2-3.5 2-4.4 2.1-4.1 2.3-3.2 3.3-3.3 3.7-2.6 2.6-1.3 2.7-1 2.9-.8 3-.5 8.4-.6h9l5.3.4 4.4.8 3.6 1 2.8 1.5 2.3 2 2 2.2 1 2 1 2.1.5 2.3.3 2.6v2.8l-.2 3-1.3 7.6-3.8 16.3-3.5 12.9-1 3.3-1.4 3.3-3.3 6.6-2.2 3.2-2.6 2.8-2.8 2.3zm-12.6-65.8-2 .6-1.7.8-1.4 1-1.2 1.1-1.1 1.4-1 1.5-1.7 3.9-1.5 5.2-.4 1.6-5.4 23.8-.7 4.2v1.6l.3 1.2.5 1.3.8 1 1 .8 1.3.6 1.5.4 1.7.1 3 .1h5l3.3-.3 2.8-.8 2.3-1.3 1.6-1.6 1.3-2 1.3-2.7.8-2.2.2-.7 1-3.4 1.1-3.2.5-1.2 3-11.4 2-9.9.3-1.5v-3.4l-.6-3.5-.6-1.1-.8-.7-1.1-.5-3.4-.8-2.6-.5-2.6-.2-3.4.1z"/><path fill="#c5c5c5" d="m152 820.5-4 .4-1 .4-.6 1-4.9 20.8 4.9-21.9.2-.4.4-.3 1-.4h2zm427.9 0-.2.2h-.2l-11.8.3h-11.9l-12-.2-12-.4 12-.4h23.7l11.9.3zm14.1 0-2.6.3-2.6-.2 1.5-.4 1.4-.1h1.2zm235.8.1h-16.5l4-.5 4-.2 4.2.2zm70.2 0-27.2-.1 5.3-.5 5.5-.2h5.5l5.4.3zm-738.2-.1-.8.3-1-.2 1-.3h.6z"/><path fill="#2b2b2b" d="m146 902.3-.6 1.6-.6.8-.3.3-.5.1-16.9.1 14.4-62.1 4.9-20.9.5-.9 1-.4 4.1-.4 8 .1 1 .2.7-.2h1.4l.8-.4h.8l.4.6v.3zm77.6 3.1-17-.4-.4-.2-.2-.3-8-27.5-.7-2-.1.7-6.2-20.8-.1-1.3-.1-.7-.2-.9-.2-.3-.3.3-.3 1-11.9 52.4-8.4-.4-8.6.5v-1l.2-1.8 1-3.5.4-2.7 17-74 .4-.9.7-.4 1-.2 11.4-.6h.8l2.6.4h.9l.3.4 1.1 2.6 3.2 9.9 3.1 10 4.4 13.6 4 14.3.2.3.2-.2.7-2.3.5-3 .5-3.1 8.9-39.4.4-1.7.7-1.4.3-.4h.4l5.8.4h7.7l1-.3 1-.3h.7l.6.2.2.5v1zm207.9-7.4-.2 3 .4 3-.1.9-.7.4h-16.4l-.7-.3-.3-.7-.5-6.2-.5-4.3.2-2-.2-2-.3-1.2-.6-.4-.7-.2h-25.5l-1 .2-1 .8-2.1 3.6-2.1 3.9-2 4.2-2 4.5-20 .1 27.7-49.5 9.2-17 9-17 .7-.6.8-.3 12.7-.2 4.1.2 1.8-.1 1.1-.4h1.1l.4.8zM409 840.4l-.1-.5h-.3l-.1.1-4.8 10.7-5.1 9.6-6.2 12v.4l.3.2h17l.6-.2.4-.4.3-.6v-.6l-.8-3.4-.2-3.6-.1-5.2-.5-5.4-.4-6.5zm107 9.4-13 54.5-.4.7-.7.2-15.6-.1-1.3-.6v-.5l-2.2-9.2-2.7-9-2.5-7.5-8-26-.2-.3-.3.3v1.9l-.1.5-11.8 50.6h-17.4l3.4-15.4 6.4-25.8 9.6-42.6.2-.3.4-.2 15.1-.4h.2l.6-.3h.3l.2.1 2.2 4.5 1.6 4.7 1.3 4.6 12 38.3.3.6.1-.7.5-3.8.7-3.9 5-22.6 3.7-15.6.3-2.5.3-1.2.5-1 1-1.2.4-.3.5.1 1.3.4 1.3.1h.8l1.8-.2h1.6l2.4.3h2.2l2.2-.3 2-.4.7.1.3.6v.2zm143.2 55.5-37.9-.2-1.2-.7 4.3-17.1 14.9-63.5 1-2.5.4-.7.5-.3h1l1 .2 6.1.4h26l6.6.3 2.4.4 1.8.5 3 1.5 2.7 2.1 1.5 1.8 1.3 2 .8 1.8.5 2.1.3 2.4v2.8l-.3 5.9-.6 4.9-2.6 12.6-3.6 14.1-1.8 5.8-2.2 5.2-2.5 4.4-2.9 3.8-2.8 2.8-3.2 2.4-3.2 1.8-3.5 1.4-3.8 1zm-4-68.2-.4.2-.2.5-12 50.6v.4l.4.1 6.5.3 6.5-.2 2.1-.2 2-.5 1.8-.7 1.6-1 1.4-1 1.2-1.3 1.1-1.5 1-1.6 2.2-5.2 1.7-5.6 2.8-11.8 1.9-9.3.2-2.4V844l-.5-2.4-1-1.7-1.1-1-1.3-.7-1.7-.6-2-.4-3.4-.3-3.5-.1zm142 40.8-.7 2-.2 2v1.7l.4 1.6.8 1.6 1.6 1.4 1.6.6h.6l12.4.3h17l.2.5v.2l-.1 1.5-.7 1.5-3.1 11.8-.3.5-.6.2-32.4-.1-2-.1-2.2-.4-5-1.6-2.2-1.5-1.7-1.8-2.6-6.1-.3-4-.1-3.6.1-3.2.4-3 6.3-28.3 1.8-6.9 1.5-4.3 1.3-3.2 2.7-4.6 2-2.7 2-2.1 2.5-2 2.7-1.8 2.8-1.3 3-1 3.2-.8 3.4-.4 16.5.1 6.2.2h6.2l1.3-.1 1.4-.5h.9l.4.3.3.5v.6l-3.5 14.6-.4.6-.7.3-20.9-.2-6 .5-1.5.3-1.4.5-1.2.6-1 .8-2 2-1.5 2.1-1.2 2.2-.8 2.3-3.6 13.6z"/><path fill="#c5c5c5" d="m906 820.6-1.2.3-1.2-.3 1.2-.3 1 .2z"/><path fill="#2b2b2b" d="m907.2 833.3-1.5 3.7-27.2-.2-3.2.3-1.5.5-1.3.6-.5.3-1 1-.8 1.4-1.5 4-.2.9-.5 2.1v2.2l.4 1.7.2 1.2.6.8 1 .5 1.4.1 4 .5h10.1l5.1.4 2 .4 1.6.5 2.2 1.1 1.7 1.6 1.3 1.9.9 2.2.4 2.6v3l-.6 5.7-1.2 6-1.9 6-2.4 6-1 2-1 1.5-1.8 2-2 2-2.5 1.8-2.7 1.6-6.6 2-39.7-.2 2.7-14.3.3-.6.4-.5.6-.4h.6l30.1-.2 1.6-.2 1.8-.5.4-.2 1-.8 1-1.1 1.2-2.4.9-2.5.6-2.8.3-3v-1.3l-.2-1.2-.4-1-.6-.8-1.3-.9-1.8-.4-19.3-1-1.7-.5-1.5-.7-1.4-1-1.1-1-1.2-1.6-1-1.9-.5-2.2-.2-2.5v-4.1l.4-3.5 1.2-6 1.2-4.5 1.3-4 1.6-3.5.4-.8 1.7-2.9 2-2.1 1.7-1.5 1.9-1.2 2.4-1.1 2.6-1 2.7-.5 3-.3H900l3.5.1 1.3.3 1.2-.3 1.7.3 1.3-.4h.1l.6-.3h.3l.2.4v.6zm-326.5-12.7.8.2.8-.2h6.5l2.6.2 2.7-.3-3 15.8-.3.5-.5.1h-20l-1 .3-.4.8-14.2 59.4-.6 1.3-.7 2.5-.3 2.6-.1.6-.3.5-.5.2-.6.1h-16.7l15-67.1v-.8l-.8-.3H529l-.5-.2v-.4l3.4-16 12 .4 12 .2h11.8l11.8-.2h.2l.2-.3z"/><path fill="#c5c5c5" d="m582.3 820.6-.8.2-.8-.2.9-.1z"/><path fill="#2b2b2b" d="m268.1 843.8-.7 1.7-.2 1.4.2 1.4-.2.8.1 1.2.4 1.2.7 1.3 1 1.2 5.2.6 6.2.3 4.2-.4 4.7.4 2.6.3 1.6.5 1.4.7 1.2.8 1 1 1.2 1.5.8 1.8.6 2.1.2 2.4-.2 5.6-.8 5.8-1.5 6-2.2 6-1.8 3.9-2.2 3.3-2.5 2.8-3 2.3-2.3 1.4-2.6 1-2.8.9-3 .4-38.5-.1 3.2-14.5.3-.7.4-.5.6-.4h.7l28.2-.2 1.8-.1 1.7-.4 1.5-.6 1.2-.8 1.4-1.6 1-2 1.4-4.5.8-4.5-.2-1.3-.5-1.5-.7-.7-2.6-.7-3-.3h-8.6l-5.7-.4-2-.2-1.8-.5-1.7-.7-1.6-1-1.3-1-.6-.6-1-1.3-.7-1.4-.6-1.5-.4-1.8-.3-3.5.4-4.1 1-6 1.3-5.3 1.5-4.8 1.8-4.3 1.5-2.6 2-2.3 1.8-1.6 2.1-1.4 2.4-1.1 2.6-.9 4.2-.5 7.4-.2h31.5l.3.1v.4l-3.4 14.5-.4.6-.7.3-3.3.1H279l-5 .1-1.5.5-1.2.8-1.2 1.4-1.2 2.4zm70.4 61.6h-17.6l.2-2 .2-2 7.7-33 4.5-19.4 2.4-10.1v-.9l-.2-.6-.5-.4h-20.4l-.5-.2v-.5l3.4-14.3.4-.7.9-.3h60.4l.5.3.1.5-3.2 13.7-.3.6-.4.4-.5.3-.7.1h-18.1l-.8.2-.7.4-.5.5-.3.8-15 64-.5 1.3z"/><path fill="#c5c5c5" d="m907.2 833.3-.2 3-.2.3-.4.3h-.7zm-158 3.6h-12l3.4-.6 3.4-.1 2.6.2zm1.2 32.8 3.4-15.2.7-3.3.4-3.5.2-3.8v-4l.6 3.6v3.4l-.3 1.5-2 9.9zm-482.3-25.9-.7 4.5-.2-1.4.2-1.4zm247.9 6-12.2 54.6-.3.7-.4.5-.6.4h-16.2l-.9-.2-.6-.7.2-.6 1.3.6 15.6.1.7-.2.4-.7zm352.4 2 1.1 1.3 2 1.3-1.3-.1-1-.5-.6-.8zM285 854.5l-4.2.4-6.2-.2-5.3-.7zm158.2 35.4 6.4-25.8zm433.5-20-8 .1-7.8-.5-3.5-.6zm-653.1 35.5-4.1.5-4.2.3H211l-4.4-.3-.4-.2-.2-.4-8.7-29.5v-.6l.8 2 7.9 27.3.2.3.4.2zm573.6-27.5.3 9-.8-1.7-.4-1.6v-1.8l.2-1.9zM485 904l-7.4-25.7 2.5 7.5 2.7 9zm-72.5-10.2-.4-1.2-.1-2 .2-2 .3 1.3.2 1.9zm417.6-1-2.5 11.4-.3.8-.5.5-.7.4-.8.2h-15l-14.8-.3-3.6-.4-3.4-.8-4-1.5 5 1.6 2.3.4 2 .1H826l.6-.1.3-.5zm-49.5 7-1-1.3-.7-1.5-.6-1.6-.3-1.7zm112.2-4-1.7 2.5-2 2-2.4 1.7-3 1.2 2.8-1.6 2.5-1.9 2-1.8zm-731.6 7 1.4-6.2-.3 2.7zm393.5-5.4L553 905l-.4.8-.8.2h-16.5l-.3-.5-.1-.2v-.2l16.7.1h.6l.5-.3.3-.5v-.6l.4-2.6.8-2.5zm-123.2.6.5 7-.3.7-.7.3h-16.3l-.6-.1-.5-.3-.3-.5-.1-.6-.2-6.5.5 6.3.3.7.7.3h16.3l.8-.4.1-.8-.4-3zM146 902.3v1.6l-.7 1.2-1 .7-1.5.3h-7.3l-7.5-.1-.5-.1-.3-.3v-.1l-.1-.3h17l.4-.2.3-.3.6-.8zm603.8.4-.8.4v-.4zm-374.6 2.5h-.3l-4.7.8-4.9.3-5-.2-5-.8zm284 .1-6 .7-6.2.2-26-.3-.6-.1-.2-.6v-.8l1.1.7zm-202 .1-4.2.6-4.3.2-4.4-.2-4.5-.6zm420-.2-5 .6-3.5.3H853l-14.1-.3-.8-.1-.4-.4-.1-.3zm-699.2.3-4 .5-4.2.2-4.3-.2-4.5-.4 8.6-.5zm59-.2 38.4.1-12 .7-12.2.1-13.5-.4-.9-.3v-.1zm83.9 0 17.6.1-5.6.6-5.5.2-5.6-.3-.5-.2z"/></svg>