<?xml version="1.0" encoding="UTF-8" standalone="no"?>
<!DOCTYPE svg PUBLIC "-//W3C//DTD SVG 1.1//EN" "http://www.w3.org/Graphics/SVG/1.1/DTD/svg11.dtd">
<svg xmlns="http://www.w3.org/2000/svg" version="1.1" viewBox="0.00 0.00 1024.00 1024.00">
<path fill="#2b2b2b" d="
  M 723.79 160.72
  L 705.34 196.94
  L 687.09 233.28
  L 686.65 234.40
  L 686.45 235.52
  L 625.94 355.06
  L 625.14 355.11
  L 625.14 355.11
  L 624.96 355.53
  L 625.04 356.25
  L 625.26 356.63
  L 625.67 356.76
  L 642.25 356.83
  L 774.53 356.88
  L 778.24 356.80
  L 780.27 356.85
  L 781.76 357.14
  L 783.78 357.97
  L 785.56 358.98
  L 787.11 360.18
  L 788.43 361.57
  L 788.43 361.57
  L 790.02 364.10
  L 791.05 367.09
  L 791.52 370.53
  L 791.43 374.42
  L 790.82 376.30
  L 789.93 378.12
  L 788.76 379.89
  L 787.32 381.61
  L 774.22 395.19
  L 729.74 440.29
  L 613.62 556.70
  L 593.08 576.96
  L 479.83 689.96
  L 473.96 696.00
  L 461.91 708.06
  L 446.41 723.41
  L 387.32 782.32
  L 384.73 784.76
  L 382.67 786.11
  L 381.18 786.70
  L 379.40 787.10
  L 377.20 787.32
  L 375.14 787.24
  L 373.21 786.87
  L 371.44 786.20
  L 369.90 785.31
  L 368.49 784.16
  L 367.20 782.75
  L 366.03 781.08
  L 364.72 778.32
  L 364.14 775.51
  L 364.14 775.51
  L 364.23 772.98
  L 364.88 770.40
  L 366.57 766.14
  L 369.19 760.28
  L 371.43 755.28
  L 408.15 668.80
  L 415.98 650.39
  L 469.40 522.15
  L 469.55 521.60
  L 469.46 521.20
  L 469.46 521.20
  L 469.13 520.97
  L 468.57 520.89
  L 378.20 521.02
  L 287.29 520.91
  L 284.44 520.78
  L 281.69 520.40
  L 279.04 519.78
  L 276.48 518.91
  L 276.48 518.91
  L 276.48 518.91
  L 276.48 518.91
  L 276.48 518.91
  L 274.23 517.90
  L 272.07 516.69
  L 269.98 515.27
  L 267.98 513.65
  L 266.38 512.09
  L 264.95 510.38
  L 263.32 507.85
  L 262.53 506.05
  L 262.03 504.11
  L 261.80 502.02
  L 261.83 499.66
  L 262.13 497.21
  L 262.71 494.62
  L 263.55 492.09
  L 264.55 489.80
  L 398.48 221.97
  L 399.56 219.54
  L 401.14 216.23
  L 402.45 213.78
  L 404.00 210.30
  L 405.44 207.09
  L 445.23 127.48
  L 448.07 122.39
  L 451.28 117.72
  L 454.86 113.47
  L 458.81 109.65
  L 458.81 109.65
  L 463.65 105.88
  L 467.13 103.79
  L 467.13 103.79
  L 469.69 102.61
  L 472.36 101.65
  L 475.14 100.91
  L 478.04 100.39
  L 483.17 100.11
  L 493.06 100.01
  L 727.75 100.00
  L 731.09 100.21
  L 734.10 100.85
  L 736.79 101.91
  L 739.14 103.40
  L 739.14 103.40
  L 739.14 103.40
  L 740.05 104.17
  L 741.61 105.92
  L 741.61 105.92
  L 742.47 107.27
  L 743.15 108.74
  L 744.00 112.07
  L 744.25 114.73
  L 744.22 117.16
  L 743.90 119.34
  L 743.30 121.29
  L 739.73 129.57
  L 735.29 138.90
  L 729.98 149.29
  L 723.79 160.72
  Z
  M 461.84 144.64
  L 457.04 153.48
  L 452.69 162.51
  L 450.05 168.61
  L 428.99 211.01
  L 428.93 211.17
  L 429.07 211.77
  L 429.63 212.04
  L 588.21 212.04
  L 589.05 211.92
  L 589.82 211.57
  L 590.46 211.02
  L 590.92 210.31
  L 631.80 122.61
  L 631.79 122.23
  L 631.50 122.00
  L 631.40 121.99
  L 488.25 121.96
  L 484.93 122.15
  L 481.82 122.70
  L 478.92 123.63
  L 476.24 124.92
  L 476.24 124.92
  L 476.24 124.92
  L 476.24 124.92
  L 474.47 126.05
  L 472.82 127.37
  L 471.27 128.87
  L 469.82 130.55
  L 467.61 133.61
  L 465.54 136.97
  L 463.62 140.65
  L 461.84 144.64
  Z
  M 614.73 432.22
  L 615.18 430.01
  L 615.63 420.52
  L 615.40 419.87
  L 614.77 419.59
  L 614.75 419.59
  L 598.18 419.59
  L 598.18 419.59
  L 597.46 419.89
  L 597.17 420.62
  L 597.40 453.85
  L 597.28 455.50
  L 596.88 456.89
  L 595.35 459.61
  L 583.91 475.96
  L 583.34 476.63
  L 582.94 476.79
  L 582.94 476.79
  L 582.69 476.43
  L 582.61 475.55
  L 582.75 420.79
  L 582.69 420.37
  L 582.12 419.51
  L 581.14 419.18
  L 469.30 419.18
  L 468.95 419.04
  L 468.81 418.69
  L 468.81 327.66
  L 468.69 327.07
  L 468.35 326.56
  L 467.85 326.22
  L 467.25 326.10
  L 422.49 326.21
  L 372.52 326.26
  L 371.45 326.39
  L 370.92 326.78
  L 370.85 327.06
  L 367.78 333.75
  L 363.48 341.85
  L 363.42 342.01
  L 363.55 342.60
  L 364.09 342.86
  L 450.50 342.86
  L 451.03 343.04
  L 451.21 343.57
  L 451.21 434.83
  L 451.53 435.60
  L 452.30 435.92
  L 566.04 435.98
  L 566.10 499.64
  L 562.83 505.17
  L 559.20 510.61
  L 555.24 515.95
  L 550.92 521.20
  L 550.98 461.32
  L 550.74 457.17
  L 550.55 453.02
  L 550.74 452.21
  L 550.65 451.50
  L 550.65 451.50
  L 550.54 451.24
  L 550.17 450.89
  L 549.72 450.94
  L 436.87 450.93
  L 436.73 439.25
  L 437.04 400.91
  L 436.96 366.00
  L 436.45 360.92
  L 436.88 359.24
  L 436.73 357.85
  L 436.38 357.35
  L 435.79 357.19
  L 404.98 357.55
  L 404.02 357.49
  L 403.52 357.14
  L 402.78 357.41
  L 400.82 357.66
  L 398.71 357.58
  L 396.80 357.72
  L 396.50 357.74
  L 396.41 357.79
  L 395.54 357.56
  L 394.50 357.62
  L 394.34 357.50
  L 357.03 357.24
  L 355.98 357.54
  L 355.25 358.36
  L 349.14 371.25
  L 348.90 372.29
  L 348.47 372.65
  L 348.30 373.03
  L 348.40 373.42
  L 348.95 373.74
  L 419.92 373.81
  L 419.97 465.67
  L 419.81 466.18
  L 419.88 466.55
  L 419.88 466.55
  L 419.88 466.55
  L 420.29 466.85
  L 421.06 466.93
  L 423.68 466.48
  L 428.72 466.86
  L 434.75 466.99
  L 531.78 466.80
  L 532.67 466.67
  L 533.60 466.28
  L 534.17 468.15
  L 534.36 469.50
  L 534.50 543.06
  L 534.18 544.75
  L 533.16 546.66
  L 521.05 564.49
  L 520.01 565.56
  L 518.86 566.57
  L 519.08 483.21
  L 518.73 482.35
  L 517.87 482.00
  L 373.66 481.78
  L 373.79 420.89
  L 373.68 420.29
  L 373.34 419.79
  L 372.84 419.45
  L 372.24 419.33
  L 372.24 419.33
  L 325.97 419.33
  L 325.03 419.59
  L 324.35 420.28
  L 321.13 426.42
  L 318.04 433.02
  L 318.03 433.16
  L 318.25 433.33
  L 318.24 433.33
  L 317.90 433.95
  L 317.16 434.22
  L 317.16 434.22
  L 317.01 434.60
  L 317.05 435.13
  L 317.42 435.72
  L 318.08 435.95
  L 355.99 435.95
  L 356.22 436.04
  L 356.31 436.27
  L 356.68 481.89
  L 342.73 482.44
  L 342.17 481.96
  L 341.81 481.18
  L 341.81 451.14
  L 341.59 450.61
  L 341.06 450.39
  L 310.39 450.39
  L 309.43 450.67
  L 308.75 451.41
  L 301.56 465.76
  L 301.51 466.35
  L 301.72 466.68
  L 301.83 466.64
  L 324.36 467.03
  L 324.75 467.20
  L 324.91 467.59
  L 324.97 497.99
  L 324.67 498.23
  L 324.73 498.51
  L 325.06 498.85
  L 325.52 498.97
  L 501.90 498.97
  L 502.31 499.14
  L 502.48 499.55
  L 502.48 588.48
  L 502.52 588.60
  L 502.63 588.54
  L 502.98 588.20
  L 502.96 588.24
  L 503.11 589.09
  L 501.19 592.49
  L 494.28 602.44
  L 486.98 612.23
  L 486.96 596.50
  L 487.06 546.86
  L 486.82 541.13
  L 486.67 540.31
  L 486.45 540.01
  L 486.45 540.01
  L 486.45 540.01
  L 486.16 540.24
  L 485.80 540.98
  L 477.01 562.99
  L 474.41 568.76
  L 472.06 574.62
  L 472.06 574.62
  L 470.76 578.21
  L 470.35 579.76
  L 470.22 581.25
  L 470.44 632.69
  L 470.35 634.15
  L 470.07 635.34
  L 469.45 636.65
  L 468.25 638.39
  L 467.89 638.89
  L 460.28 649.27
  L 454.85 656.21
  L 455.00 619.30
  L 454.93 618.17
  L 454.72 617.76
  L 454.72 617.76
  L 454.37 618.06
  L 453.87 619.08
  L 417.08 707.95
  L 411.89 718.51
  L 407.37 729.32
  L 407.25 730.01
  L 407.84 729.62
  L 442.52 694.77
  L 466.33 671.33
  L 511.52 626.55
  L 584.97 553.22
  L 661.92 476.17
  L 718.06 419.45
  L 732.04 405.14
  L 757.51 379.46
  L 757.89 378.99
  L 757.94 378.65
  L 757.94 378.65
  L 757.94 378.65
  L 757.67 378.44
  L 757.07 378.37
  L 702.40 378.19
  L 650.79 378.27
  L 616.55 378.23
  L 612.51 378.12
  L 609.18 377.84
  L 606.54 377.38
  L 604.60 376.75
  L 602.76 375.72
  L 601.14 374.38
  L 599.75 372.77
  L 598.64 370.94
  L 597.82 368.94
  L 597.33 366.79
  L 597.18 364.66
  L 597.38 362.47
  L 597.77 360.69
  L 598.22 359.48
  L 616.14 324.84
  L 633.42 290.34
  L 642.43 272.48
  L 653.10 251.65
  L 663.98 229.85
  L 681.55 194.99
  L 696.82 164.69
  L 706.19 146.07
  L 717.79 122.80
  L 717.85 122.19
  L 717.28 121.99
  L 658.08 121.99
  L 657.03 122.30
  L 656.31 123.12
  L 525.31 404.20
  L 525.31 404.50
  L 525.53 404.69
  L 525.61 404.70
  L 634.46 404.70
  L 634.56 404.72
  L 634.78 404.93
  L 634.73 405.24
  L 616.91 430.17
  L 616.09 431.15
  L 615.14 431.95
  L 614.73 432.22
  Z
  M 418.05 233.23
  L 415.93 237.50
  L 414.31 239.88
  L 413.84 241.11
  L 413.58 242.36
  L 413.58 242.36
  L 413.56 242.62
  L 555.65 243.17
  L 556.35 243.42
  L 556.70 243.90
  L 556.75 244.49
  L 556.52 245.77
  L 556.25 248.74
  L 556.48 251.49
  L 556.02 265.97
  L 555.91 280.50
  L 556.11 283.59
  L 556.37 284.22
  L 556.79 283.70
  L 579.96 233.97
  L 581.20 231.81
  L 582.15 229.55
  L 582.15 229.55
  L 582.67 227.84
  L 582.68 227.78
  L 582.56 227.40
  L 582.19 227.24
  L 576.98 227.36
  L 576.46 227.38
  L 421.60 227.25
  L 421.06 227.39
  L 420.69 227.82
  L 418.05 233.23
  Z
  M 405.76 258.01
  L 398.89 271.55
  L 398.27 272.17
  L 398.12 272.72
  L 398.23 273.00
  L 398.12 273.32
  L 398.14 273.36
  L 398.75 273.68
  L 522.92 273.75
  L 523.40 273.83
  L 523.82 274.08
  L 524.67 274.79
  L 524.54 275.71
  L 524.16 287.06
  L 524.16 287.06
  L 524.12 302.26
  L 524.60 317.47
  L 524.05 329.44
  L 524.06 341.50
  L 524.24 343.68
  L 524.68 345.89
  L 524.72 346.39
  L 524.60 346.86
  L 524.35 347.65
  L 524.33 348.42
  L 524.52 349.12
  L 524.50 350.00
  L 524.37 350.32
  L 524.14 351.30
  L 524.13 352.35
  L 524.34 352.97
  L 524.75 352.46
  L 540.27 320.11
  L 540.69 318.38
  L 540.97 309.89
  L 541.09 301.62
  L 540.95 282.06
  L 541.06 262.51
  L 540.92 258.79
  L 540.74 258.36
  L 540.30 258.22
  L 405.76 258.01
  Z
  M 390.23 289.34
  L 379.96 309.97
  L 379.40 310.33
  L 379.38 310.40
  L 379.36 310.49
  L 379.56 311.12
  L 380.17 311.40
  L 483.00 311.81
  L 483.01 404.05
  L 483.09 404.51
  L 483.09 404.51
  L 483.38 404.85
  L 483.88 405.08
  L 485.51 405.26
  L 508.62 404.99
  L 509.43 404.65
  L 509.76 403.84
  L 509.76 289.44
  L 509.68 288.88
  L 509.44 288.48
  L 509.44 288.48
  L 509.04 288.24
  L 508.48 288.16
  L 392.08 288.18
  L 390.96 288.36
  L 390.31 288.68
  L 390.08 289.02
  L 390.08 289.02
  L 390.23 289.34
  Z
  M 339.96 389.44
  L 333.01 403.55
  L 333.22 404.02
  L 332.90 403.82
  L 332.70 404.12
  L 332.68 404.20
  L 332.83 404.68
  L 333.28 404.88
  L 386.73 404.88
  L 387.33 405.00
  L 387.84 405.34
  L 388.18 405.85
  L 388.30 406.45
  L 388.34 432.96
  L 388.53 440.67
  L 388.20 464.85
  L 388.22 464.96
  L 388.28 465.06
  L 388.43 465.29
  L 388.45 465.85
  L 388.64 466.25
  L 388.64 466.25
  L 388.64 466.25
  L 389.04 466.49
  L 389.64 466.54
  L 404.61 466.76
  L 404.64 466.76
  L 405.24 466.49
  L 405.47 465.87
  L 405.09 457.29
  L 405.05 389.00
  L 405.11 388.75
  L 405.03 388.55
  L 404.48 388.28
  L 373.06 388.10
  L 341.75 388.22
  L 340.88 388.35
  L 340.29 388.73
  L 339.96 389.44
  Z
  M 285.82 498.31
  L 295.25 498.96
  L 304.64 498.89
  L 304.64 498.89
  L 310.03 498.52
  L 309.96 482.69
  L 309.74 482.17
  L 309.21 481.95
  L 295.59 481.95
  L 294.22 482.34
  L 293.26 483.39
  L 285.82 498.31
  Z"
/>
<path fill="#c5c5c5" d="
  M 417.08 707.95
  L 454.85 656.21
  L 460.28 649.27
  L 467.89 638.89
  L 468.25 638.39
  L 469.45 636.65
  L 470.07 635.34
  L 470.35 634.15
  L 470.44 632.69
  L 470.22 581.25
  L 470.35 579.76
  L 470.76 578.21
  L 472.06 574.62
  L 472.06 574.62
  L 474.41 568.76
  L 477.01 562.99
  L 472.15 575.94
  L 471.45 578.42
  L 471.20 580.88
  L 471.10 586.00
  L 471.08 632.26
  L 471.24 632.80
  L 471.69 632.46
  L 486.98 612.23
  L 494.28 602.44
  L 501.19 592.49
  L 503.11 589.09
  L 518.86 566.57
  L 520.01 565.56
  L 521.05 564.49
  L 533.16 546.66
  L 534.18 544.75
  L 534.50 543.06
  L 534.36 469.50
  L 534.17 468.15
  L 533.60 466.28
  L 534.09 466.41
  L 534.09 466.41
  L 534.69 467.21
  L 534.90 468.75
  L 535.05 542.09
  L 535.24 542.80
  L 535.81 542.33
  L 550.92 521.20
  L 555.24 515.95
  L 559.20 510.61
  L 562.83 505.17
  L 566.10 499.64
  L 581.21 479.01
  L 581.83 477.80
  L 582.05 476.47
  L 582.05 420.26
  L 582.05 420.26
  L 581.77 419.99
  L 468.25 419.99
  L 468.09 419.93
  L 468.03 419.77
  L 468.03 327.55
  L 467.91 327.18
  L 467.52 327.05
  L 370.85 327.06
  L 370.92 326.78
  L 371.45 326.39
  L 372.52 326.26
  L 422.49 326.21
  L 467.25 326.10
  L 467.85 326.22
  L 468.35 326.56
  L 468.69 327.07
  L 468.81 327.66
  L 468.81 418.69
  L 468.95 419.04
  L 469.30 419.18
  L 581.14 419.18
  L 581.76 419.30
  L 582.28 419.65
  L 582.63 420.17
  L 582.75 420.79
  L 582.61 475.55
  L 582.69 476.43
  L 582.94 476.79
  L 582.94 476.79
  L 582.94 476.79
  L 583.34 476.63
  L 583.91 475.96
  L 595.35 459.61
  L 596.88 456.89
  L 597.28 455.50
  L 597.40 453.85
  L 597.17 420.62
  L 597.46 419.89
  L 598.18 419.59
  L 598.18 419.59
  L 614.75 419.59
  L 614.77 419.59
  L 615.40 419.87
  L 615.63 420.52
  L 615.18 430.01
  L 614.98 420.64
  L 614.78 420.17
  L 614.31 419.98
  L 598.52 419.98
  L 598.12 420.11
  L 597.99 420.50
  L 597.99 454.16
  L 598.18 454.86
  L 598.74 454.41
  L 614.73 432.22
  L 615.14 431.95
  L 616.09 431.15
  L 616.91 430.17
  L 634.73 405.24
  L 634.78 404.93
  L 634.56 404.72
  L 634.46 404.70
  L 525.61 404.70
  L 525.53 404.69
  L 525.31 404.50
  L 525.31 404.20
  L 656.31 123.12
  L 657.03 122.30
  L 658.08 121.99
  L 717.28 121.99
  L 717.85 122.19
  L 717.79 122.80
  L 706.19 146.07
  L 696.82 164.69
  L 681.55 194.99
  L 663.98 229.85
  L 653.10 251.65
  L 642.43 272.48
  L 633.42 290.34
  L 616.14 324.84
  L 598.22 359.48
  L 597.77 360.69
  L 597.38 362.47
  L 597.18 364.66
  L 597.33 366.79
  L 597.82 368.94
  L 598.64 370.94
  L 599.75 372.77
  L 601.14 374.38
  L 602.76 375.72
  L 604.60 376.75
  L 606.54 377.38
  L 609.18 377.84
  L 612.51 378.12
  L 616.55 378.23
  L 650.79 378.27
  L 702.40 378.19
  L 757.07 378.37
  L 757.67 378.44
  L 757.94 378.65
  L 757.94 378.65
  L 757.89 378.99
  L 757.51 379.46
  L 732.04 405.14
  L 718.06 419.45
  L 661.92 476.17
  L 584.97 553.22
  L 511.52 626.55
  L 466.33 671.33
  L 442.52 694.77
  L 407.84 729.62
  L 407.25 730.01
  L 407.37 729.32
  L 411.89 718.51
  L 417.08 707.95
  Z"
/>
<path fill="#2b2b2b" d="
  M 585.45 137.00
  L 585.16 151.99
  L 474.54 152.00
  L 474.78 137.02
  L 585.45 137.00
  Z"
/>
<path fill="#c5c5c5" d="
  M 585.16 151.99
  L 585.45 137.00
  L 586.06 144.08
  L 585.99 151.44
  L 585.80 151.90
  L 585.78 151.91
  L 585.16 151.99
  Z"
/>
<path fill="#c5c5c5" d="
  M 474.78 137.02
  L 474.54 152.00
  L 474.07 148.54
  L 473.84 145.02
  L 473.87 141.43
  L 474.15 137.78
  L 474.78 137.02
  Z"
/>
<path fill="#c5c5c5" d="
  M 461.84 144.64
  L 450.05 168.61
  L 452.69 162.51
  L 457.04 153.48
  L 461.84 144.64
  Z"
/>
<path fill="#c5c5c5" d="
  M 723.79 160.72
  L 723.77 161.45
  L 723.47 162.27
  L 705.10 198.96
  L 686.45 235.52
  L 686.65 234.40
  L 687.09 233.28
  L 705.34 196.94
  L 723.79 160.72
  Z"
/>
<rect fill="#2b2b2b" x="474.99" y="167.98" width="94.06" height="15.02" rx="0.80"/>
<path fill="#c5c5c5" d="
  M 576.46 227.38
  L 574.25 227.74
  L 573.27 227.78
  L 498.39 228.02
  L 423.50 227.78
  L 421.66 228.03
  L 421.02 228.34
  L 420.55 228.80
  L 420.55 228.80
  L 420.37 229.12
  L 418.77 232.14
  L 418.05 233.23
  L 420.69 227.82
  L 421.06 227.39
  L 421.60 227.25
  L 576.46 227.38
  Z"
/>
<path fill="#c5c5c5" d="
  M 579.96 233.97
  L 581.92 229.09
  L 581.95 229.02
  L 581.86 228.46
  L 581.39 228.14
  L 576.98 227.36
  L 582.19 227.24
  L 582.56 227.40
  L 582.68 227.78
  L 582.67 227.84
  L 582.15 229.55
  L 582.15 229.55
  L 581.20 231.81
  L 579.96 233.97
  Z"
/>
<path fill="#c5c5c5" d="
  M 415.93 237.50
  L 415.01 240.10
  L 413.56 242.62
  L 413.58 242.36
  L 413.58 242.36
  L 413.58 242.36
  L 413.84 241.11
  L 414.31 239.88
  L 415.93 237.50
  Z"
/>
<path fill="#c5c5c5" d="
  M 556.52 245.77
  L 556.79 247.83
  L 556.74 249.87
  L 556.74 249.87
  L 556.48 251.49
  L 556.25 248.74
  L 556.52 245.77
  Z"
/>
<path fill="#c5c5c5" d="
  M 405.76 258.01
  L 398.89 271.55
  L 405.76 258.01
  Z"
/>
<path fill="#c5c5c5" d="
  M 524.67 274.79
  L 523.82 274.08
  L 523.40 273.83
  L 522.92 273.75
  L 398.75 273.68
  L 398.14 273.36
  L 398.12 273.32
  L 398.23 273.00
  L 517.25 273.05
  L 523.44 273.29
  L 524.34 273.54
  L 524.78 273.97
  L 524.67 274.79
  Z"
/>
<path fill="#c5c5c5" d="
  M 524.54 275.71
  L 524.96 284.87
  L 525.15 294.03
  L 525.15 294.03
  L 525.15 294.03
  L 525.06 305.75
  L 524.60 317.47
  L 524.12 302.26
  L 524.16 287.06
  L 524.16 287.06
  L 524.54 275.71
  Z"
/>
<path fill="#c5c5c5" d="
  M 483.01 404.05
  L 508.04 404.03
  L 508.70 403.75
  L 508.98 403.09
  L 508.98 290.13
  L 508.70 289.29
  L 507.85 289.01
  L 390.23 289.34
  L 390.08 289.02
  L 390.31 288.68
  L 390.96 288.36
  L 392.08 288.18
  L 508.48 288.16
  L 509.04 288.24
  L 509.44 288.48
  L 509.44 288.48
  L 509.68 288.88
  L 509.76 289.44
  L 509.76 403.84
  L 509.43 404.65
  L 508.62 404.99
  L 485.51 405.26
  L 483.88 405.08
  L 483.38 404.85
  L 483.09 404.51
  L 483.09 404.51
  L 483.01 404.05
  Z"
/>
<path fill="#c5c5c5" d="
  M 379.96 309.97
  L 380.10 310.57
  L 380.39 310.91
  L 380.39 310.91
  L 380.77 311.01
  L 482.31 311.01
  L 482.67 311.13
  L 482.89 311.44
  L 483.00 311.81
  L 380.17 311.40
  L 379.56 311.12
  L 379.36 310.49
  L 379.38 310.40
  L 379.40 310.33
  L 379.96 309.97
  Z"
/>
<path fill="#c5c5c5" d="
  M 367.78 333.75
  L 364.21 341.59
  L 364.22 341.85
  L 364.42 342.00
  L 364.42 342.00
  L 364.48 342.01
  L 449.86 342.01
  L 450.67 342.17
  L 451.35 342.63
  L 451.81 343.31
  L 451.97 344.11
  L 451.97 434.74
  L 452.23 435.00
  L 565.25 435.00
  L 565.68 435.12
  L 565.94 435.49
  L 566.04 435.98
  L 452.30 435.92
  L 451.53 435.60
  L 451.21 434.83
  L 451.21 343.57
  L 451.03 343.04
  L 450.50 342.86
  L 364.09 342.86
  L 363.55 342.60
  L 363.42 342.01
  L 363.42 342.01
  L 363.48 341.85
  L 367.78 333.75
  Z"
/>
<path fill="#c5c5c5" d="
  M 625.94 355.06
  L 626.02 355.77
  L 626.04 355.81
  L 626.56 355.99
  L 765.29 355.96
  L 777.84 356.18
  L 781.14 356.64
  L 784.11 357.52
  L 785.35 358.14
  L 786.57 359.01
  L 788.89 361.52
  L 789.95 363.09
  L 790.78 364.70
  L 791.40 366.35
  L 791.80 368.03
  L 791.80 368.03
  L 791.97 371.17
  L 791.43 374.42
  L 791.52 370.53
  L 791.05 367.09
  L 790.02 364.10
  L 788.43 361.57
  L 788.43 361.57
  L 787.11 360.18
  L 785.56 358.98
  L 783.78 357.97
  L 781.76 357.14
  L 780.27 356.85
  L 778.24 356.80
  L 774.53 356.88
  L 642.25 356.83
  L 625.67 356.76
  L 625.26 356.63
  L 625.04 356.25
  L 624.96 355.53
  L 625.14 355.11
  L 625.14 355.11
  L 625.94 355.06
  Z"
/>
<path fill="#c5c5c5" d="
  M 404.02 357.49
  L 403.67 357.69
  L 403.25 357.66
  L 402.78 357.41
  L 403.52 357.14
  L 404.02 357.49
  Z"
/>
<path fill="#c5c5c5" d="
  M 436.45 360.92
  L 436.20 359.65
  L 435.80 358.61
  L 435.48 358.25
  L 435.05 358.14
  L 404.98 357.55
  L 435.79 357.19
  L 436.38 357.35
  L 436.73 357.85
  L 436.88 359.24
  L 436.45 360.92
  Z"
/>
<path fill="#c5c5c5" d="
  M 394.34 357.50
  L 382.70 358.09
  L 371.06 358.18
  L 371.06 358.18
  L 365.74 358.06
  L 357.81 358.03
  L 356.97 358.17
  L 356.19 358.52
  L 355.54 359.07
  L 355.05 359.77
  L 349.14 371.25
  L 355.25 358.36
  L 355.98 357.54
  L 357.03 357.24
  L 394.34 357.50
  Z"
/>
<path fill="#c5c5c5" d="
  M 396.41 357.79
  L 395.72 358.08
  L 395.72 358.08
  L 395.12 357.99
  L 394.50 357.62
  L 395.54 357.56
  L 396.41 357.79
  Z"
/>
<path fill="#c5c5c5" d="
  M 398.71 357.58
  L 397.95 357.90
  L 397.26 357.91
  L 397.26 357.91
  L 396.80 357.72
  L 398.71 357.58
  Z"
/>
<path fill="#c5c5c5" d="
  M 348.90 372.29
  L 349.00 372.67
  L 349.36 372.93
  L 350.00 373.02
  L 383.71 373.00
  L 409.00 373.01
  L 415.07 373.21
  L 419.92 373.81
  L 348.95 373.74
  L 348.40 373.42
  L 348.30 373.03
  L 348.47 372.65
  L 348.90 372.29
  Z"
/>
<path fill="#c5c5c5" d="
  M 787.32 381.61
  L 774.22 395.19
  L 787.32 381.61
  Z"
/>
<path fill="#c5c5c5" d="
  M 405.05 389.00
  L 344.00 388.92
  L 341.94 389.05
  L 339.96 389.44
  L 340.29 388.73
  L 340.88 388.35
  L 341.75 388.22
  L 373.06 388.10
  L 404.48 388.28
  L 405.03 388.55
  L 405.11 388.75
  L 405.05 389.00
  Z"
/>
<path fill="#c5c5c5" d="
  M 339.96 389.44
  L 333.01 403.55
  L 339.96 389.44
  Z"
/>
<path fill="#c5c5c5" d="
  M 333.22 404.02
  L 387.38 404.15
  L 388.05 404.25
  L 388.54 404.54
  L 388.54 404.54
  L 388.54 404.54
  L 388.83 405.03
  L 388.94 405.70
  L 388.90 428.25
  L 388.34 432.96
  L 388.30 406.45
  L 388.18 405.85
  L 387.84 405.34
  L 387.33 405.00
  L 386.73 404.88
  L 333.28 404.88
  L 332.83 404.68
  L 332.68 404.20
  L 332.70 404.12
  L 332.90 403.82
  L 333.22 404.02
  Z"
/>
<path fill="#c5c5c5" d="
  M 373.66 481.78
  L 373.11 481.69
  L 372.96 481.25
  L 373.03 420.82
  L 372.84 420.33
  L 372.36 420.10
  L 368.28 419.89
  L 327.76 419.87
  L 326.31 420.04
  L 325.12 420.59
  L 325.12 420.59
  L 324.25 421.44
  L 323.61 422.61
  L 321.78 426.54
  L 318.25 433.33
  L 318.03 433.16
  L 318.04 433.02
  L 321.13 426.42
  L 324.35 420.28
  L 325.03 419.59
  L 325.97 419.33
  L 372.24 419.33
  L 372.24 419.33
  L 372.84 419.45
  L 373.34 419.79
  L 373.68 420.29
  L 373.79 420.89
  L 373.66 481.78
  Z"
/>
<path fill="#c5c5c5" d="
  M 317.90 433.95
  L 318.14 434.65
  L 318.58 434.94
  L 319.25 435.03
  L 354.87 435.08
  L 355.77 435.22
  L 356.41 435.61
  L 356.41 435.61
  L 356.79 436.25
  L 356.91 437.15
  L 356.68 481.89
  L 356.31 436.27
  L 356.22 436.04
  L 355.99 435.95
  L 318.08 435.95
  L 317.42 435.72
  L 317.05 435.13
  L 317.01 434.60
  L 317.16 434.22
  L 317.16 434.22
  L 317.90 433.95
  Z"
/>
<path fill="#c5c5c5" d="
  M 436.87 450.93
  L 436.18 448.32
  L 435.92 445.51
  L 436.11 442.48
  L 436.73 439.25
  L 436.87 450.93
  Z"
/>
<path fill="#c5c5c5" d="
  M 729.74 440.29
  L 613.62 556.70
  L 729.74 440.29
  Z"
/>
<path fill="#c5c5c5" d="
  M 388.53 440.67
  L 389.03 452.76
  L 388.85 464.76
  L 388.76 465.05
  L 388.43 465.29
  L 388.28 465.06
  L 388.22 464.96
  L 388.20 464.85
  L 388.53 440.67
  Z"
/>
<path fill="#c5c5c5" d="
  M 342.73 482.44
  L 342.64 482.51
  L 342.41 482.62
  L 342.07 482.63
  L 341.79 482.42
  L 341.47 481.90
  L 341.09 480.90
  L 340.95 479.77
  L 340.89 467.41
  L 341.08 452.03
  L 340.78 451.28
  L 340.04 450.96
  L 340.03 450.96
  L 310.87 450.96
  L 309.77 451.27
  L 309.01 452.11
  L 301.83 466.64
  L 301.72 466.68
  L 301.51 466.35
  L 301.56 465.76
  L 308.75 451.41
  L 309.43 450.67
  L 310.39 450.39
  L 341.06 450.39
  L 341.59 450.61
  L 341.81 451.14
  L 341.81 481.18
  L 342.17 481.96
  L 342.73 482.44
  Z"
/>
<path fill="#c5c5c5" d="
  M 550.55 453.02
  L 550.08 452.12
  L 549.72 450.94
  L 550.17 450.89
  L 550.54 451.24
  L 550.65 451.50
  L 550.65 451.50
  L 550.74 452.21
  L 550.55 453.02
  Z"
/>
<path fill="#c5c5c5" d="
  M 389.64 466.54
  L 404.16 465.96
  L 404.82 465.66
  L 405.09 464.99
  L 405.09 457.29
  L 405.47 465.87
  L 405.24 466.49
  L 404.64 466.76
  L 404.61 466.76
  L 389.64 466.54
  Z"
/>
<path fill="#c5c5c5" d="
  M 419.97 465.67
  L 423.68 466.48
  L 421.06 466.93
  L 420.29 466.85
  L 419.88 466.55
  L 419.88 466.55
  L 419.81 466.18
  L 419.97 465.67
  Z"
/>
<path fill="#c5c5c5" d="
  M 324.97 497.99
  L 502.37 498.00
  L 502.74 498.16
  L 502.90 498.53
  L 502.98 588.20
  L 502.63 588.54
  L 502.52 588.60
  L 502.48 588.48
  L 502.48 499.55
  L 502.31 499.14
  L 501.90 498.97
  L 325.52 498.97
  L 325.06 498.85
  L 324.73 498.51
  L 324.67 498.23
  L 324.97 497.99
  Z"
/>
<path fill="#c5c5c5" d="
  M 285.82 498.31
  L 292.01 497.96
  L 298.11 497.88
  L 304.11 498.06
  L 310.03 498.52
  L 304.64 498.89
  L 295.25 498.96
  L 285.82 498.31
  Z"
/>
<path fill="#c5c5c5" d="
  M 593.08 576.96
  L 592.52 577.93
  L 591.46 579.12
  L 486.06 684.31
  L 482.40 687.82
  L 479.83 689.96
  L 593.08 576.96
  Z"
/>
<path fill="#c5c5c5" d="
  M 473.96 696.00
  L 470.98 699.40
  L 467.86 702.64
  L 461.91 708.06
  L 473.96 696.00
  Z"
/>
<path fill="#2b2b2b" d="
  M 749.79 902.68
  L 749.07 902.69
  L 748.97 903.07
  L 744.62 904.69
  L 740.32 905.57
  L 732.74 906.18
  L 732.74 906.18
  L 724.11 906.15
  L 715.45 905.35
  L 712.45 904.84
  L 709.91 904.21
  L 707.81 903.43
  L 706.16 902.53
  L 704.79 901.47
  L 703.61 900.29
  L 702.23 898.40
  L 701.19 896.34
  L 700.45 894.03
  L 699.98 891.40
  L 699.81 888.55
  L 699.91 885.46
  L 700.31 882.00
  L 700.99 878.20
  L 704.78 860.91
  L 708.70 845.24
  L 709.89 841.73
  L 711.82 837.29
  L 714.02 833.15
  L 716.25 830.04
  L 719.58 826.74
  L 723.31 824.12
  L 723.31 824.12
  L 723.31 824.12
  L 725.88 822.81
  L 728.60 821.77
  L 731.47 821.00
  L 734.51 820.50
  L 742.90 819.88
  L 751.98 819.91
  L 757.16 820.30
  L 761.56 821.05
  L 765.17 822.17
  L 768.00 823.64
  L 770.33 825.53
  L 772.24 827.80
  L 773.39 829.79
  L 774.22 831.91
  L 774.79 834.21
  L 775.09 836.81
  L 775.13 839.62
  L 774.90 842.68
  L 773.60 850.19
  L 769.83 866.55
  L 766.34 879.38
  L 765.23 882.69
  L 763.90 886.00
  L 760.58 892.59
  L 758.39 895.84
  L 755.80 898.64
  L 752.98 900.86
  L 749.79 902.68
  Z
  M 737.24 836.94
  L 735.23 837.49
  L 733.48 838.32
  L 732.11 839.28
  L 730.90 840.41
  L 729.78 841.80
  L 728.81 843.34
  L 727.13 847.16
  L 725.63 852.41
  L 725.24 854.02
  L 719.76 877.83
  L 719.13 882.00
  L 719.14 883.57
  L 719.37 884.80
  L 719.92 886.06
  L 720.70 887.10
  L 720.70 887.10
  L 720.70 887.10
  L 721.73 887.93
  L 723.00 888.52
  L 724.50 888.89
  L 726.24 889.03
  L 729.12 889.10
  L 734.16 889.14
  L 737.52 888.81
  L 740.31 888.01
  L 742.60 886.68
  L 744.17 885.13
  L 745.50 883.06
  L 746.79 880.41
  L 747.60 878.22
  L 747.81 877.45
  L 748.77 874.14
  L 749.91 870.91
  L 750.39 869.72
  L 753.34 858.27
  L 755.43 848.44
  L 755.65 846.90
  L 755.68 843.47
  L 755.08 839.97
  L 754.48 838.90
  L 753.68 838.16
  L 752.59 837.72
  L 749.24 836.88
  L 746.64 836.39
  L 744.03 836.17
  L 744.03 836.17
  L 740.64 836.32
  L 737.24 836.94
  Z"
/>
<path fill="#c5c5c5" d="
  M 152.00 820.54
  L 147.94 820.90
  L 146.94 821.32
  L 146.38 822.25
  L 141.52 843.08
  L 146.38 821.21
  L 146.57 820.79
  L 146.96 820.49
  L 148.01 820.13
  L 148.01 820.13
  L 149.93 820.02
  L 152.00 820.54
  Z"
/>
<path fill="#c5c5c5" d="
  M 579.87 820.52
  L 579.69 820.71
  L 579.46 820.77
  L 567.67 821.02
  L 555.81 821.04
  L 543.87 820.83
  L 531.86 820.40
  L 543.77 820.05
  L 555.65 819.91
  L 567.52 819.98
  L 579.37 820.25
  L 579.87 820.52
  Z"
/>
<path fill="#c5c5c5" d="
  M 594.06 820.50
  L 591.38 820.77
  L 588.79 820.60
  L 590.30 820.22
  L 591.69 820.08
  L 592.94 820.17
  L 594.06 820.50
  Z"
/>
<path fill="#c5c5c5" d="
  M 829.79 820.61
  L 813.25 820.55
  L 817.27 820.07
  L 821.37 819.92
  L 825.54 820.10
  L 829.79 820.61
  Z"
/>
<path fill="#c5c5c5" d="
  M 900.03 820.58
  L 872.82 820.50
  L 878.14 820.04
  L 878.14 820.04
  L 883.59 819.82
  L 889.06 819.83
  L 894.54 820.09
  L 900.03 820.58
  Z"
/>
<path fill="#c5c5c5" d="
  M 161.82 820.51
  L 161.74 820.58
  L 161.03 820.79
  L 160.03 820.61
  L 160.93 820.28
  L 161.62 820.36
  L 161.82 820.51
  Z"
/>
<path fill="#2b2b2b" d="
  M 145.99 902.29
  L 145.37 903.92
  L 144.85 904.74
  L 144.50 905.05
  L 144.04 905.15
  L 127.10 905.20
  L 141.52 843.08
  L 146.38 822.25
  L 146.94 821.32
  L 147.94 820.90
  L 152.00 820.54
  L 160.03 820.61
  L 161.03 820.79
  L 161.74 820.58
  L 161.82 820.51
  L 162.19 820.59
  L 163.05 820.54
  L 163.95 820.20
  L 164.68 820.19
  L 165.11 820.79
  L 165.09 821.07
  L 145.99 902.29
  Z"
/>
<path fill="#2b2b2b" d="
  M 223.56 905.35
  L 206.63 904.95
  L 206.21 904.82
  L 205.99 904.45
  L 198.13 877.12
  L 197.36 875.15
  L 197.30 875.79
  L 191.14 854.96
  L 190.96 853.67
  L 190.90 853.02
  L 190.68 852.14
  L 190.45 851.84
  L 190.45 851.84
  L 190.45 851.84
  L 190.19 852.14
  L 189.93 853.03
  L 178.00 905.48
  L 169.61 905.15
  L 161.03 905.60
  L 160.91 904.51
  L 161.20 902.81
  L 162.27 899.33
  L 162.62 896.59
  L 179.53 822.69
  L 180.01 821.75
  L 180.01 821.75
  L 180.68 821.31
  L 181.63 821.13
  L 193.05 820.51
  L 193.89 820.48
  L 196.49 820.88
  L 196.89 820.87
  L 197.37 820.97
  L 197.68 821.26
  L 198.83 823.90
  L 202.03 833.79
  L 205.10 843.72
  L 209.51 857.40
  L 213.53 871.72
  L 213.68 871.98
  L 213.88 871.75
  L 214.60 869.54
  L 215.09 866.59
  L 215.63 863.37
  L 224.46 823.96
  L 224.93 822.32
  L 225.58 820.85
  L 225.88 820.54
  L 226.33 820.48
  L 232.07 820.93
  L 239.83 820.85
  L 240.77 820.62
  L 241.72 820.28
  L 242.53 820.24
  L 243.06 820.48
  L 243.30 821.05
  L 243.21 821.95
  L 223.56 905.35
  Z"
/>
<path fill="#2b2b2b" d="
  M 431.46 897.92
  L 431.33 901.08
  L 431.72 904.08
  L 431.56 904.87
  L 430.86 905.27
  L 430.86 905.27
  L 430.76 905.28
  L 414.54 905.28
  L 413.78 905.03
  L 413.48 904.29
  L 413.04 898.05
  L 412.46 893.81
  L 412.69 891.80
  L 412.53 889.87
  L 412.20 888.59
  L 411.59 888.16
  L 410.88 887.98
  L 385.43 887.95
  L 384.33 888.23
  L 383.49 889.00
  L 381.30 892.58
  L 379.19 896.48
  L 377.16 900.69
  L 375.21 905.21
  L 355.25 905.32
  L 382.91 855.79
  L 392.09 838.83
  L 401.14 821.78
  L 401.76 821.15
  L 402.61 820.92
  L 415.34 820.73
  L 419.45 820.87
  L 421.24 820.75
  L 422.31 820.37
  L 422.47 820.31
  L 423.35 820.46
  L 423.80 821.22
  L 431.46 897.92
  Z
  M 409.04 840.50
  L 408.89 840.02
  L 408.64 839.98
  L 408.46 840.12
  L 403.67 850.79
  L 398.56 860.41
  L 392.35 872.41
  L 392.32 872.50
  L 392.39 872.84
  L 392.71 872.99
  L 409.52 872.99
  L 409.69 872.98
  L 410.28 872.78
  L 410.73 872.36
  L 410.97 871.79
  L 410.96 871.17
  L 410.20 867.76
  L 410.01 864.23
  L 409.89 858.95
  L 409.42 853.65
  L 409.04 847.09
  L 409.04 840.50
  Z"
/>
<path fill="#2b2b2b" d="
  M 516.09 849.76
  L 503.04 904.33
  L 502.63 904.97
  L 501.90 905.21
  L 486.25 905.09
  L 485.02 904.46
  L 484.97 904.02
  L 484.98 904.01
  L 482.77 894.82
  L 480.12 885.77
  L 480.12 885.77
  L 477.56 878.32
  L 469.66 852.35
  L 469.40 851.95
  L 469.14 852.34
  L 469.03 853.79
  L 469.06 854.18
  L 469.00 854.71
  L 457.17 905.35
  L 439.83 905.37
  L 443.24 889.88
  L 449.55 864.13
  L 459.19 821.54
  L 459.39 821.18
  L 459.80 821.04
  L 474.90 820.61
  L 475.06 820.56
  L 475.68 820.27
  L 475.98 820.25
  L 476.21 820.44
  L 478.40 824.86
  L 480.04 829.64
  L 481.29 834.18
  L 493.22 872.45
  L 493.55 873.06
  L 493.73 872.39
  L 494.18 868.61
  L 494.89 864.75
  L 499.87 842.10
  L 503.55 826.46
  L 503.91 824.05
  L 504.21 822.81
  L 504.74 821.72
  L 505.68 820.56
  L 506.10 820.33
  L 506.57 820.40
  L 507.90 820.82
  L 509.22 820.93
  L 509.22 820.93
  L 510.01 820.84
  L 511.76 820.65
  L 513.44 820.73
  L 515.79 820.95
  L 518.03 820.95
  L 520.16 820.73
  L 522.19 820.30
  L 522.86 820.42
  L 523.17 821.03
  L 523.15 821.22
  L 516.09 849.76
  Z"
/>
<path fill="#2b2b2b" d="
  M 659.18 905.28
  L 621.31 905.13
  L 620.14 904.38
  L 624.42 887.26
  L 639.26 823.75
  L 640.24 821.27
  L 640.65 820.64
  L 641.16 820.28
  L 641.16 820.28
  L 642.13 820.23
  L 643.24 820.46
  L 649.30 820.85
  L 654.00 820.91
  L 675.29 820.90
  L 681.85 821.21
  L 684.25 821.59
  L 686.06 822.10
  L 689.16 823.65
  L 691.76 825.71
  L 691.76 825.71
  L 693.33 827.52
  L 694.64 829.59
  L 695.36 831.33
  L 695.87 833.41
  L 696.15 835.84
  L 696.21 838.62
  L 695.94 844.50
  L 695.33 849.40
  L 692.74 861.98
  L 689.11 876.15
  L 687.26 881.93
  L 685.06 887.12
  L 682.56 891.54
  L 679.75 895.27
  L 676.89 898.11
  L 673.74 900.49
  L 673.74 900.49
  L 673.74 900.49
  L 670.50 902.30
  L 666.99 903.70
  L 663.22 904.70
  L 659.18 905.28
  Z
  M 655.28 837.14
  L 654.81 837.34
  L 654.55 837.78
  L 642.57 888.40
  L 642.61 888.79
  L 642.97 888.94
  L 649.51 889.15
  L 656.00 888.99
  L 658.11 888.76
  L 660.07 888.29
  L 661.87 887.58
  L 663.50 886.64
  L 663.50 886.64
  L 663.50 886.64
  L 663.50 886.64
  L 664.87 885.57
  L 666.10 884.30
  L 667.20 882.83
  L 668.16 881.16
  L 670.43 875.95
  L 672.14 870.40
  L 674.93 858.64
  L 676.79 849.31
  L 677.02 846.86
  L 676.93 844.08
  L 676.45 841.75
  L 675.46 840.01
  L 674.39 839.02
  L 673.06 838.29
  L 671.43 837.74
  L 669.34 837.35
  L 665.99 837.00
  L 662.53 836.85
  L 655.28 837.14
  Z"
/>
<path fill="#2b2b2b" d="
  M 797.16 877.89
  L 796.53 879.92
  L 796.25 881.82
  L 796.32 883.59
  L 796.73 885.23
  L 796.73 885.23
  L 797.55 886.82
  L 799.08 888.16
  L 800.74 888.80
  L 801.26 888.85
  L 813.73 889.10
  L 830.32 889.06
  L 830.72 889.18
  L 830.91 889.57
  L 830.94 889.80
  L 830.80 891.27
  L 830.14 892.77
  L 827.00 904.61
  L 826.68 905.10
  L 826.13 905.28
  L 793.75 905.20
  L 791.75 905.07
  L 789.53 904.68
  L 784.48 903.10
  L 782.26 901.57
  L 780.56 899.84
  L 777.97 893.68
  L 777.67 889.72
  L 777.60 886.11
  L 777.75 882.85
  L 778.14 879.93
  L 784.37 851.60
  L 786.20 844.75
  L 787.66 840.41
  L 789.04 837.20
  L 791.74 832.60
  L 793.77 829.86
  L 795.75 827.76
  L 798.24 825.74
  L 800.91 824.04
  L 800.91 824.04
  L 803.73 822.69
  L 806.73 821.65
  L 809.90 820.94
  L 813.25 820.55
  L 829.79 820.61
  L 835.97 820.83
  L 842.22 820.83
  L 843.54 820.67
  L 844.92 820.22
  L 845.27 820.13
  L 845.81 820.22
  L 846.24 820.54
  L 846.49 821.02
  L 846.49 821.56
  L 843.02 836.22
  L 842.61 836.85
  L 841.90 837.09
  L 821.00 836.92
  L 815.08 837.40
  L 813.51 837.71
  L 812.13 838.18
  L 810.93 838.81
  L 809.91 839.60
  L 807.99 841.62
  L 806.43 843.72
  L 805.22 845.91
  L 804.37 848.18
  L 800.75 861.83
  L 797.16 877.89
  Z"
/>
<path fill="#c5c5c5" d="
  M 905.98 820.56
  L 904.79 820.86
  L 903.55 820.61
  L 904.78 820.33
  L 905.83 820.49
  L 905.98 820.56
  Z"
/>
<path fill="#2b2b2b" d="
  M 907.18 833.27
  L 905.68 836.97
  L 878.50 836.80
  L 875.27 837.14
  L 873.81 837.57
  L 872.46 838.18
  L 871.99 838.47
  L 871.99 838.47
  L 870.95 839.50
  L 870.19 840.90
  L 868.72 844.97
  L 868.46 845.75
  L 867.99 847.93
  L 868.00 850.06
  L 868.00 850.06
  L 868.37 851.78
  L 868.63 852.95
  L 869.20 853.78
  L 869.20 853.78
  L 870.20 854.30
  L 871.57 854.40
  L 875.57 854.94
  L 881.37 854.96
  L 885.72 854.93
  L 890.85 855.32
  L 892.83 855.70
  L 894.42 856.20
  L 896.58 857.35
  L 898.31 858.87
  L 899.59 860.75
  L 900.45 863.00
  L 900.89 865.63
  L 900.91 868.62
  L 900.27 874.34
  L 899.05 880.21
  L 897.22 886.21
  L 894.81 892.35
  L 893.81 894.33
  L 892.75 895.81
  L 890.95 897.88
  L 888.98 899.75
  L 888.98 899.75
  L 886.49 901.63
  L 883.78 903.24
  L 877.19 905.15
  L 837.46 905.03
  L 840.22 890.68
  L 840.45 890.06
  L 840.88 889.56
  L 841.45 889.24
  L 842.10 889.12
  L 872.25 889.01
  L 873.76 888.83
  L 875.56 888.27
  L 876.02 888.06
  L 877.09 887.28
  L 877.98 886.15
  L 879.16 883.85
  L 880.06 881.32
  L 880.67 878.54
  L 881.01 875.52
  L 881.00 874.16
  L 880.80 872.98
  L 880.40 871.99
  L 879.81 871.19
  L 879.81 871.19
  L 879.81 871.19
  L 879.81 871.19
  L 878.51 870.32
  L 876.73 869.90
  L 857.38 868.90
  L 855.68 868.37
  L 854.16 867.66
  L 852.83 866.79
  L 851.69 865.74
  L 851.69 865.74
  L 850.49 864.12
  L 849.59 862.20
  L 849.02 860.00
  L 848.76 857.50
  L 848.77 853.36
  L 849.17 849.94
  L 850.42 843.87
  L 851.56 839.41
  L 852.88 835.47
  L 854.46 831.85
  L 854.85 831.07
  L 856.60 828.22
  L 858.53 826.07
  L 860.30 824.65
  L 862.20 823.44
  L 862.20 823.44
  L 862.20 823.44
  L 862.20 823.44
  L 864.60 822.26
  L 867.17 821.38
  L 869.91 820.79
  L 872.82 820.50
  L 900.03 820.58
  L 903.55 820.61
  L 904.79 820.86
  L 905.98 820.56
  L 907.67 820.87
  L 909.02 820.55
  L 909.02 820.55
  L 909.12 820.49
  L 909.70 820.22
  L 910.05 820.26
  L 910.20 820.59
  L 910.12 821.22
  L 907.18 833.27
  Z"
/>
<path fill="#2b2b2b" d="
  M 580.73 820.59
  L 581.46 820.83
  L 582.27 820.58
  L 588.79 820.60
  L 591.38 820.77
  L 594.06 820.50
  L 591.03 836.32
  L 590.78 836.75
  L 590.31 836.92
  L 570.23 836.92
  L 569.38 837.21
  L 568.90 837.96
  L 554.67 897.44
  L 554.15 898.67
  L 554.15 898.67
  L 553.43 901.17
  L 553.09 903.81
  L 552.97 904.42
  L 552.69 904.86
  L 552.69 904.86
  L 552.69 904.86
  L 552.23 905.13
  L 551.60 905.21
  L 534.94 905.13
  L 549.96 838.10
  L 549.81 837.34
  L 549.14 836.95
  L 549.04 836.94
  L 528.96 836.94
  L 528.55 836.80
  L 528.49 836.36
  L 531.86 820.40
  L 543.87 820.83
  L 555.81 821.04
  L 567.67 821.02
  L 579.46 820.77
  L 579.69 820.71
  L 579.87 820.52
  L 580.73 820.59
  Z"
/>
<path fill="#c5c5c5" d="
  M 582.27 820.58
  L 581.46 820.83
  L 580.73 820.59
  L 581.60 820.45
  L 582.27 820.58
  Z"
/>
<path fill="#2b2b2b" d="
  M 268.14 843.84
  L 267.39 845.54
  L 267.39 845.54
  L 267.21 846.88
  L 267.35 848.30
  L 267.24 849.07
  L 267.24 849.07
  L 267.31 850.27
  L 267.68 851.50
  L 268.36 852.75
  L 269.33 854.01
  L 274.62 854.65
  L 280.77 854.85
  L 284.98 854.53
  L 289.70 854.87
  L 292.28 855.24
  L 293.87 855.73
  L 295.28 856.39
  L 296.51 857.20
  L 297.58 858.18
  L 297.58 858.18
  L 297.58 858.18
  L 297.58 858.18
  L 297.58 858.18
  L 298.71 859.71
  L 299.54 861.53
  L 300.07 863.63
  L 300.29 866.01
  L 300.11 871.62
  L 299.28 877.39
  L 297.78 883.32
  L 295.62 889.41
  L 293.78 893.28
  L 291.59 896.62
  L 289.06 899.44
  L 286.17 901.73
  L 286.17 901.73
  L 286.17 901.73
  L 286.17 901.73
  L 283.78 903.10
  L 281.20 904.17
  L 278.42 904.95
  L 275.44 905.43
  L 236.92 905.30
  L 240.10 890.75
  L 240.36 890.11
  L 240.82 889.59
  L 241.42 889.25
  L 242.10 889.13
  L 270.25 889.01
  L 272.12 888.89
  L 273.79 888.52
  L 275.26 887.91
  L 276.52 887.06
  L 276.52 887.06
  L 276.52 887.06
  L 277.93 885.49
  L 278.95 883.47
  L 280.31 878.97
  L 281.05 874.51
  L 280.95 873.16
  L 280.37 871.69
  L 279.65 871.05
  L 277.11 870.33
  L 274.01 870.02
  L 265.55 869.91
  L 259.82 869.65
  L 257.83 869.38
  L 255.98 868.90
  L 254.29 868.20
  L 252.75 867.29
  L 251.39 866.19
  L 250.79 865.58
  L 250.79 865.58
  L 250.79 865.58
  L 249.83 864.33
  L 249.07 862.92
  L 248.49 861.35
  L 248.09 859.60
  L 247.84 856.07
  L 248.17 851.95
  L 249.18 846.07
  L 250.45 840.71
  L 252.00 835.89
  L 253.81 831.59
  L 255.33 828.98
  L 257.21 826.73
  L 257.21 826.73
  L 259.08 825.09
  L 261.21 823.71
  L 263.60 822.58
  L 266.24 821.70
  L 270.37 821.18
  L 277.78 820.96
  L 309.28 821.01
  L 309.59 821.13
  L 309.62 821.45
  L 306.19 835.96
  L 305.78 836.62
  L 305.06 836.91
  L 301.80 837.04
  L 279.03 836.97
  L 274.01 837.14
  L 272.49 837.64
  L 271.34 838.35
  L 270.06 839.83
  L 268.86 842.24
  L 268.14 843.84
  Z"
/>
<path fill="#2b2b2b" d="
  M 338.48 905.44
  L 320.85 905.32
  L 321.05 903.39
  L 321.28 901.40
  L 329.01 868.47
  L 333.50 848.96
  L 335.90 838.87
  L 335.95 838.02
  L 335.71 837.42
  L 335.71 837.42
  L 335.16 837.05
  L 334.31 836.93
  L 314.76 836.93
  L 314.33 836.78
  L 314.28 836.32
  L 317.67 822.01
  L 318.08 821.29
  L 318.99 821.01
  L 379.35 821.01
  L 379.43 821.01
  L 379.90 821.30
  L 380.01 821.84
  L 376.78 835.49
  L 376.53 836.07
  L 376.11 836.53
  L 375.56 836.84
  L 374.94 836.94
  L 356.75 836.94
  L 355.98 837.07
  L 355.30 837.45
  L 354.78 838.03
  L 354.48 838.75
  L 339.47 902.89
  L 338.96 904.14
  L 338.48 905.44
  Z"
/>
<path fill="#c5c5c5" d="
  M 907.18 833.27
  L 906.95 836.22
  L 906.78 836.64
  L 906.78 836.64
  L 906.36 836.91
  L 905.68 836.97
  L 907.18 833.27
  Z"
/>
<path fill="#c5c5c5" d="
  M 749.24 836.88
  L 737.24 836.94
  L 740.64 836.32
  L 744.03 836.17
  L 744.03 836.17
  L 746.64 836.39
  L 749.24 836.88
  Z"
/>
<path fill="#c5c5c5" d="
  M 750.39 869.72
  L 753.80 854.50
  L 754.45 851.21
  L 754.88 847.69
  L 755.09 843.94
  L 755.08 839.97
  L 755.68 843.47
  L 755.65 846.90
  L 755.43 848.44
  L 753.34 858.27
  L 750.39 869.72
  Z"
/>
<path fill="#c5c5c5" d="
  M 268.14 843.84
  L 267.35 848.30
  L 267.21 846.88
  L 267.39 845.54
  L 267.39 845.54
  L 268.14 843.84
  Z"
/>
<path fill="#c5c5c5" d="
  M 516.09 849.76
  L 503.79 904.43
  L 503.53 905.09
  L 503.10 905.62
  L 502.54 905.96
  L 501.92 906.08
  L 486.32 906.08
  L 485.43 905.81
  L 484.82 905.07
  L 485.02 904.46
  L 486.25 905.09
  L 501.90 905.21
  L 502.63 904.97
  L 503.04 904.33
  L 516.09 849.76
  Z"
/>
<path fill="#c5c5c5" d="
  M 868.37 851.78
  L 869.50 853.05
  L 871.57 854.40
  L 870.20 854.30
  L 869.20 853.78
  L 869.20 853.78
  L 868.63 852.95
  L 868.37 851.78
  Z"
/>
<path fill="#c5c5c5" d="
  M 284.98 854.53
  L 280.77 854.85
  L 274.62 854.65
  L 269.33 854.01
  L 284.98 854.53
  Z"
/>
<path fill="#c5c5c5" d="
  M 443.24 889.88
  L 449.55 864.13
  L 443.24 889.88
  Z"
/>
<path fill="#c5c5c5" d="
  M 876.73 869.90
  L 868.78 870.00
  L 860.89 869.51
  L 857.38 868.90
  L 876.73 869.90
  Z"
/>
<path fill="#c5c5c5" d="
  M 223.56 905.35
  L 219.46 905.94
  L 215.27 906.23
  L 210.98 906.20
  L 206.60 905.87
  L 206.19 905.70
  L 205.95 905.33
  L 197.30 875.79
  L 197.36 875.15
  L 198.13 877.12
  L 205.99 904.45
  L 206.21 904.82
  L 206.63 904.95
  L 223.56 905.35
  Z"
/>
<path fill="#c5c5c5" d="
  M 797.16 877.89
  L 797.55 886.82
  L 796.73 885.23
  L 796.73 885.23
  L 796.32 883.59
  L 796.25 881.82
  L 796.53 879.92
  L 797.16 877.89
  Z"
/>
<path fill="#c5c5c5" d="
  M 484.98 904.01
  L 477.56 878.32
  L 480.12 885.77
  L 480.12 885.77
  L 482.77 894.82
  L 484.98 904.01
  Z"
/>
<path fill="#c5c5c5" d="
  M 412.46 893.81
  L 412.14 892.61
  L 411.96 890.64
  L 412.20 888.59
  L 412.53 889.87
  L 412.69 891.80
  L 412.46 893.81
  Z"
/>
<path fill="#c5c5c5" d="
  M 830.14 892.77
  L 827.58 904.23
  L 827.29 904.96
  L 826.77 905.55
  L 826.08 905.94
  L 825.31 906.08
  L 810.27 906.09
  L 795.51 905.78
  L 791.91 905.44
  L 788.45 904.64
  L 784.48 903.10
  L 789.53 904.68
  L 791.75 905.07
  L 793.75 905.20
  L 826.13 905.28
  L 826.68 905.10
  L 827.00 904.61
  L 830.14 892.77
  Z"
/>
<path fill="#c5c5c5" d="
  M 780.56 899.84
  L 779.61 898.45
  L 778.87 896.97
  L 778.87 896.97
  L 778.87 896.97
  L 778.31 895.37
  L 777.97 893.68
  L 780.56 899.84
  Z"
/>
<path fill="#c5c5c5" d="
  M 892.75 895.81
  L 891.13 898.27
  L 889.16 900.31
  L 889.16 900.31
  L 889.16 900.31
  L 886.67 902.01
  L 883.78 903.24
  L 886.49 901.63
  L 888.98 899.75
  L 890.95 897.88
  L 892.75 895.81
  Z"
/>
<path fill="#c5c5c5" d="
  M 161.20 902.81
  L 162.62 896.59
  L 162.27 899.33
  L 161.20 902.81
  Z"
/>
<path fill="#c5c5c5" d="
  M 554.67 897.44
  L 552.99 905.04
  L 552.57 905.79
  L 551.76 906.03
  L 535.63 906.03
  L 535.32 905.92
  L 534.96 905.55
  L 534.88 905.25
  L 534.94 905.13
  L 551.60 905.21
  L 552.23 905.13
  L 552.69 904.86
  L 552.69 904.86
  L 552.69 904.86
  L 552.97 904.42
  L 553.09 903.81
  L 553.43 901.17
  L 554.15 898.67
  L 554.15 898.67
  L 554.67 897.44
  Z"
/>
<path fill="#c5c5c5" d="
  M 431.46 897.92
  L 431.96 904.91
  L 431.70 905.68
  L 430.97 906.02
  L 430.97 906.02
  L 430.93 906.02
  L 414.74 906.02
  L 414.15 905.90
  L 413.65 905.58
  L 413.32 905.08
  L 413.19 904.50
  L 413.04 898.05
  L 413.48 904.29
  L 413.78 905.03
  L 414.54 905.28
  L 430.76 905.28
  L 430.86 905.27
  L 431.56 904.87
  L 431.72 904.08
  L 431.33 901.08
  L 431.46 897.92
  Z"
/>
<path fill="#c5c5c5" d="
  M 145.99 902.29
  L 145.93 903.93
  L 145.35 905.11
  L 145.35 905.11
  L 144.30 905.80
  L 142.77 906.06
  L 135.48 906.14
  L 127.96 906.00
  L 127.50 905.88
  L 127.16 905.56
  L 127.12 905.49
  L 127.10 905.20
  L 144.04 905.15
  L 144.50 905.05
  L 144.85 904.74
  L 145.37 903.92
  L 145.99 902.29
  Z"
/>
<path fill="#c5c5c5" d="
  M 749.79 902.68
  L 748.97 903.07
  L 749.07 902.69
  L 749.79 902.68
  Z"
/>
<path fill="#c5c5c5" d="
  M 375.21 905.21
  L 374.93 905.27
  L 370.18 906.04
  L 365.31 906.30
  L 360.33 906.06
  L 355.25 905.32
  L 375.21 905.21
  Z"
/>
<path fill="#c5c5c5" d="
  M 659.18 905.28
  L 653.14 905.95
  L 647.00 906.18
  L 620.91 905.94
  L 620.35 905.75
  L 620.15 905.16
  L 620.14 904.38
  L 621.31 905.13
  L 659.18 905.28
  Z"
/>
<path fill="#c5c5c5" d="
  M 457.17 905.35
  L 452.97 905.99
  L 448.68 906.21
  L 444.30 906.00
  L 439.83 905.37
  L 457.17 905.35
  Z"
/>
<path fill="#c5c5c5" d="
  M 877.19 905.15
  L 872.26 905.82
  L 868.75 906.07
  L 852.90 906.16
  L 838.75 905.80
  L 838.00 905.65
  L 837.56 905.31
  L 837.46 905.03
  L 877.19 905.15
  Z"
/>
<path fill="#c5c5c5" d="
  M 178.00 905.48
  L 173.97 905.99
  L 169.80 906.18
  L 165.48 906.05
  L 161.03 905.60
  L 169.61 905.15
  L 178.00 905.48
  Z"
/>
<path fill="#c5c5c5" d="
  M 236.92 905.30
  L 275.44 905.43
  L 263.31 906.06
  L 251.18 906.21
  L 251.18 906.21
  L 237.68 905.79
  L 236.83 905.45
  L 236.78 905.40
  L 236.83 905.35
  L 236.92 905.30
  Z"
/>
<path fill="#c5c5c5" d="
  M 320.85 905.32
  L 338.48 905.44
  L 332.90 906.05
  L 327.37 906.19
  L 321.80 905.87
  L 321.28 905.71
  L 320.84 905.34
  L 320.85 905.32
  Z"
/>
</svg>
