<svg xmlns="http://www.w3.org/2000/svg" viewBox="0 0 1024 1024"><path d="M469.5 521.8v-.6l-.6-.2H289.3l-4-.1-3.8-.6-3.6-1-3.5-1.3-3-1.7-2.8-2-2.4-2.3-2-2.6-.9-1.4-.8-2-.5-2-.2-2.2v-2.5l.5-2.6.7-2.7 1-2.9 1.3-2.8L397.9 223l5.4-11.2 5.4-11.3L443 132l4.6-8.6 2-3.3 1.8-2.5 4-4.6 4.3-4 4-3 3.7-2.3 4-1.7 2.8-1 3-.6 3.1-.4h241.5l7 .1 4 .4 2.7.8 2.2 1.2 2 1.4 1.5 1.6 1.2 1.8.6 1.1.7 1.8.4 2 .2 2v2l-.3 2.2-.5 2.2-.8 2.1-1 2-2 4.7-2.5 5.3-46 92-2.6 5-17.8 34.8-18 36-9.1 17.7L635 337l-8.9 17.9v.1l.1.7.6.3H768l6.3.2 5.5.3 3 .5 2.5 1.1 1.5 1.2 1.4 1.5 1.7 2.5 1.3 2.5.7 2.5.2 2.5-.2 2.2-.6 2.3-1 2.2-1.5 2.3-2.6 3.3-3.2 3.5-8 8-32.6 32.5-8 8.2-4.8 5-12.7 13.3L492.7 678l-9.5 9.1-12.6 12.6-14.4 14-14.3 14-52.3 52.4-3.9 3.8-2 1.7-1 .6-1.6.6-1.8.4-1.8.2h-1.9l-2-.4-1.7-.5-1.6-.7-1.3-1-2-2.2-1.6-2.5-1-2.6-.2-2.8.1-1.9.5-1.9 1.6-4.3 2.7-6.1 1.8-3.8 45.8-107.8 7.7-18.5 39.3-94.2 3-7.2zM429 210.9v.7l.2.1.6.2 5.4.2h7.7l4.1-.1h142l.7-.4.6-.5.5-.7 40.7-86.8.2-.6-.1-.4-.3-.3-.6-.2-2.2-.1-140.3.1-3.2.2-3 .6-2.8.8-2.7 1.3-2.6 1.7-2.4 2-2.1 2.6-2 2.8-2.7 4.8-2.2 4.5-3.7 8-17.2 34.7-6.3 12.4zm127.7 33.8v4.8l-.4 5-.3 9.6v19.6l.2.6.4-.5 25.5-54.4v-.7l-.4-.5h-.1l-3.1-.6h-2.9l-4.7.3-69 .2-78.1-.1h-1.6l-1 .4-.9 1-3.5 6.4-2.7 6.3.1.6.6.3h140.1l.7.1.6.4.4.6zm-32 30v3.7l.1 1.3.3 13-.1 12.8-.8 19.9-.3 6.6v5.1l.6 11.8-.1 1.7-.3 1.7.2.8.4-.6 16-33.3.3-1v-58.8l-.1-.6-.3-.5-.5-.2-.6-.1H407.1l-.7.3-1 .8-.6 1.2-2.7 5.6-3.6 6.5v.5l.4.1h124.3l.6.1.5.4.4.5zm-144.6 35v.9l.4.3.4.1h101.2l.6.3.3.6v91.2l.3.6.6.3h24.2l.6-.3.3-.6V289.9l-.2-.6-.5-.3H391l-.6.1-.3.4zm186 125.8V499l.6-.4 14.6-19.7.5-1 .2-1.1V421l-.3-.7-.7-.3H468.5l-.4-.1-.1-.4V328l-.3-.7-.7-.3h-94.7l-1.4.8-.8.7-.6 1-2.5 6.2-2.7 5.9v.2l.1.2h85.1l1 .2.9.4.4.8.2 1.1v89.2l.4 1 .9.3h112.2l.4.1zm-163-77.7h-1.3l-.5.1-.5-.1-.8-.3h-1l-1 .4h-.9l-.5-.2h-.3l-.5.1-38.1.2-.8.1-.7.4-.6.5-.4.6-6 12v.9l.6.5h68.8l.7.2.5.5.2.7V465l.2.7.6.3 6 .8 6.2.2h60.8l30.7.1 4.6-.1 4.4-.5h.6l.5.3.3.5.1.5v75l.2.3.3-.2.5-.7 2-3 10.5-14.4 1.1-1.8.7-1.4.2-.5.3-1.5V518l.2-36.7-.1-22.2-.3-6-.2-.9-.4-.6-.7-.5h-112l-.7-.2-.4-.2-.2-.5v-.6l.6-13 .3-10.8.2-54.8-.2-5.9-.6-6-.4-.7-.8-.3-26.9-.3h-5M387.5 404l.6.1.4.3.3.5.1.5.2 12-.2 9.9-.2 9.5.1 8.4.3 8-.1 10-.1 1.2-.3 1-.1.4.2.4.4.3h.6l.7-.2.5-.2H404l.7-.4.3-.7v-74.7l-.4-1-.9-.3h-62l-1 .3-.8.8-6.6 13.2v.5l.3.2zM373 481.3v-60.4l-.3-.7-.6-.2H326l-.7.4-.7.5-.4.7-6.1 12.2v.7l.5.5h36.6l.7.2.6.4.3.5.2.7v44.4l-.3.6-.6.3h-12.4l-.4.2-.9.3-.5-.2-.5-.3-.3-.5v-.6l-.1-29.2-.3-.6-.6-.2h-29.3l-1.1.3-.8.8L302 466v.2l.1.6.6.3h21.8l.3.2.2.3V497l.3.7.7.3h176.3l.5.2.2.5v89.8l.3.3.3-.1.4-.6 6.7-9.8 6-8.3 1.5-2.2.5-1.6.3-7.2v-75.8l-.4-.8-.8-.4H373.7l-.5-.2zm225-26.7.1.4.3-.3 15-20.4 1-2 .5-1.8.2-4.6-.2-5.1-.3-.6-.5-.2h-15.3l-.5.2-.3.6zm-311.7 42.8v.5l.4.1h22.5l.6-.2.2-.6v-14.5l-.2-.5-.6-.3h-13.5l-.7.1-.7.3-.6.5-.4.6zm200.6 114.7v-71.9l-.4-.1-.5.3-15 38V632l.3.4h.6v-.1zm-32 6.9v-.6l-.4-.2-.3.3-37.1 89 .1.3h.3l.2-.2.8-1.4 1.4-1.7 1.5-2 3.3-4.9 3.7-5 7.2-9.7 18.1-25.1.8-1.4.4-1.5.1-1.9v-32.2l-.1-.7z"/><rect width="112" height="15" x="474" y="137" rx=".9"/><rect width="94" height="15" x="475" y="168" rx=".8"/><path d="m773.9 848.7-3.8 16.9-2 7.6-2 7.1-2.2 5.7-2.9 6-1.8 2.9-2.1 2.5-2.5 2.3-2.8 2-3.2 1.6-3.4 1.2-3.6 1-3.6.4-6.7.3H725l-6-.4-5.5-.6-3-.7-2.6-1-2.3-1.4-1.8-1.7-1.4-1.8-1.1-2-.8-2.3-.5-2.6-.2-2.9v-3l.4-3.5.7-3.7 3.8-17 3.7-15.2 1.6-5 2-4.7 2.3-4 2.6-3.3 2.2-2.2 2.4-1.9 2.7-1.6 3-1.4 3.1-1 3.4-.8 4.8-.5 5.4-.2 6.1.1 7 .5 3.2.4 2.8.6 2.4.8 2 1 2.9 2.3 1.2 1.3 1 1.4 1 1.9.8 2 .5 2.1.3 2.4v2.6l-.1 2.8zm-20 5 .7-3.8.4-3.7v-3.4l-.2-3.3-.5-.9-1.5-.9-1.4-.4-6.5-.4h-6.5l-2.5.4-2.3 1-1.2.7-1.2 1-1 1.2-1 1.4-1 2.1-1 2.4-1.8 5.9-5.3 22.9-.8 4-.2 2.8.3 2.3 1 1.7 1 .9 1.2.7 1.6.5 1.9.2 5.4.1 5.3-.2 1.8-.3 1.6-.5 1.4-.7 1.3-.9 1.2-1.2 1-1.6.6-1.2 1.5-3 .5-1.3 3-10.8zm124.3 32.1 1.1-2.3 1-2.5.6-3.2.2-3.3-.3-2-1-1.4-1.3-.8-2-.2h-8.2l-6.8-.4-2.6-.4-2.9-.7-1.4-.6-1.2-.7-2-2-1.5-2.3-.8-2.7-.3-2.7v-2.8l.2-2.9.4-3 1.6-7.4 1.7-5.8 1.2-2.9 1.6-3 1.5-2.2 1.5-1.6 2.3-1.7 2.4-1.3 2.3-1 2.6-.8 2.9-.5 3.3-.4 6.4-.3 6.5-.1 6.5.2 6.6.4h5.7l1.1.3h.9l1-.3.6-.1.4.1.1.4v.6l-3.6 15.2-.4.4-29-.1-2.5.3-2 .9-1.4 1.2-1.1 1.6-1.6 5-.5 3v1l.3 1 .9 1.7 1.2 1.2 1.2.6 1.4.3 5.3.2 9.5.1 3.3.2 2.8.7 2.6 1.2 1.2.9.9 1 .8 1.4.7 1.6.5 1.8.3 2v4.1l-1.3 7.7-2 7.4-2.5 6.7-1.3 2.6-1.5 2.4-2.4 2.7-1.7 1.5-1.9 1.2-2.2 1-2.5 1-2.8.7-3 .5-3.4.4-3.4.2-13.8.1-16.9-.2-.4-.1-.4-.3-.2-.5v-.6l3.2-14 .3-.6.4-.4.5-.3.6-.1h29.5l2.6-.3 1.9-.8 1-.9zm-328-47.1v-.6l-.2-.5-.4-.4-.5-.2h-20.2l-.4-.1v-.4l2.9-14.1.3-1.2.7-.8.7-.4h28.6l24.2.6 4.1-.3 3.2-.3.5.1.4.3.2.4v.6l-3.4 15-.3.4-.6.2h-19.6l-1 .3-.6 1-15.7 66.9-.4.6-.7.3h-16.2l-.6-.1-.4-.3-.1-.4v-.5zm-387-18.3 1.4-.2.5.3v.6l-19.6 84-.5.7-.8.2h-16.9l-.3-.3-.1-.3v-.5l19.5-83.2.4-.8.5-.5.8-.4h.8l5.7.7 4.8-.1h2.8zm50.6 51.3.8-1.8.4-2 .5-3.8 9.5-42.4.2-.6.4-.4.4-.2h.6l6 .5 5.9-.2 3.8-.4h.5l.2.6-.2 2.3-.5 2.5-5 21.6-4.5 19.5-4.4 17.8-4.3 19.2-.3.9-.6.6-.8.5-.9.1H207l-.7-.2-.4-.5-14.8-50.3-.2-1.5v-1l-.2-.2-.2.2-1 2.5-11.4 50-.4.8-.8.2h-15.4l-.4-.1-.4-.4-.1-.9 19.2-82 .3-.7.5-.5.6-.4h.7l6-.2 4.3-.2h2.1l2 .3 1.3.3.6 1 7.2 22.3 5.7 18.4 2.3 8.7.1.3zm279.5.7 11.1-50.4.3-.6.4-.5.6-.3h.7l2.9.1 6.6.1 6.5-.4h.1l.5.2v.5l-19.6 83.7-.6.9-1 .3h-15.5l-.6-.1-.3-.6-15.7-52.7-.1-.2-.1.2-12.3 52.5-.5.7-.7.2h-15.2l-.6-.2-.2-.5.4-3.2 2.2-10.2 5.4-22.3 4.6-19.4 6-24.9.8-3.5.4-.8.8-.2h15.5l.4.2 1.4 2.5 1 3 14.3 46m149.4-52.1 4 .3 3.2.2 28 .1 5.4.4 2 .5 1.8.6 1.8 1 1.6 1 1.5 1.3 1.2 1.4 1.4 2.3 1 2.7.6 3 .1 3.3-.5 8-1.3 7.9-2.6 11.4-2.5 9.6-2.4 7.5-1.4 3.3-1.5 3-1.9 3-2 2.7-2.3 2.4-2.4 2-2.3 1.6-2.4 1.3-2.6 1-2.7 1-3 .7-3.3.5-7.4.6-14 .1-16.9-.1-.6-.3-.2-.7 19.4-81.3.2-1 .4-1.2.6-.8.9-.3zm12.7 17-.6.2-.3.5-11.8 50.3v.3l.3.1 10 .3 3.6-.1 2.5-.4 2-.6 1.7-.9 1.4-1 1.2-1 2.2-2.7 2-3.7 1.6-4.6 1.5-5.4 1.5-6 2.6-13.2.3-3.7-.4-3.3-.4-1.3-.5-1.1-.7-.9-.9-.6-.9-.4-1.7-.4-4-.6-4-.3h-4zM797 882.6v1.7l.4 1.5.5 1.1.8 1 1.3.6 1.8.4 13.1.2 15.3-.1.6.3.1.6-3.5 14.8-.5.9-1 .3-14.1.2h-12.5l-3.5-.2-3.2-.3-2.7-.5-2.5-.7-2.2-1-1.9-1-1.6-1.3-1.4-1.6-1-1.7-.9-2-.5-2-.2-2.5v-6l.3-3.3.3-2.7L782 862l3.8-16 1.7-5.3 1.8-4 2.2-3.7 1.4-2 1.6-1.9 1.7-1.7 1.8-1.4 2.7-1.8 3-1.5 3.4-1 3.6-.9 3.9-.5 4.3-.2h4.9l6.2.4 8 .2 7.8-.3h.1l.5.2.1.6-3.5 15-.4.7-.8.2-22-.1-3.5.2-3 .6-2.3 1-1.8 1.3-2.4 3-1.8 3.4-1 2.8-3.5 13.3-3 14-.4 2.7zM412 889l-.4-.7-.7-.2-24.1-.2-1.5.1-1 .4-1 1-3.7 6.4-4.5 9v.3l-.7.7-.9.2h-17l-.4-.3-.2-.4v-.6l.7-1.6 28.2-50.6 4.5-8.3 3.6-6.9 8.2-15.3.8-.9 1.1-.3h20.4l.3.1.2.4 8.3 83.4v.1l-.3.8-.8.4h-16.2l-1-.4-.4-1zm-3-47.5-.1-1-.2-.5-.3.3-5 11-5.8 11.1-3.5 6.4-1.8 3.8v.4h17.9l.4-.3.3-.5v-.5l-.7-5.5-.2-5.5-.4-5.2-.4-7zm-132.2 12.8h.1l.3-.1h.4l7.8.3 6.8.9 2.6.8 2.1 1.4 1.5 1.8 1 2.2.5 2.1.3 2.2v1.4l-.4 5.8-.9 5.5-1.3 5.3-1.8 5.1-1.5 3.5-1.2 2.3-1.4 2-1.5 1.7-1.6 1.6-2 1.4-2 1.2-2.4 1-2.4.9-2.7.6-3 .4-7.1.5h-13.8l-15.4-.2h-.5l-.4-.3-.1-.4v-.6l3.3-13.7.3-.8.5-.6.8-.4.8-.1h26.7l2.4-.1 2-.4 1.6-.5 1.4-.9 1.5-1.7 1.1-2.4 1.2-4.3.7-4.2-.1-1.1-.4-1.4-.3-.4-.4-.3-2.3-1-1.8-.2h-7.2l-8.3-.4-2.8-.4-2.4-.7-2.1-1.1-1.8-1.5-1.2-1.5-1-1.7-.7-2-.4-2.2-.1-2 .1-2.3 1-6.2 1.4-6.7 1.5-5.2 1.9-4.3 2.1-3.5 1.4-1.6 1.5-1.5 3-1.9 3.3-1.4 3.8-.8 4.2-.2h36.3l.3.2v.3l-3.2 13.8-.4.8-.5.6-.7.4h-.8l-16.8-.1h-12l-1.7.3-1.6.7-1.3 1-.8 1-1.2 3-.8 2.7-.4 2.4v2.2l.4 1.6.7 1.1 1.4.8 1.9.2h2.3l2.1.3zm59.2-15.5v-.8l-.1-.5-.5-.4h-20.7l-.4-.2v-.4l3.3-14 .2-.6.4-.5.6-.3.6-.1h59.9l.5.3.1.6-3 13.4-.4.7-.5.5-.6.4H356l-1 .4-.5.8-15.4 65.7-.4 1-.6.7-.8.4-1 .1h-14l-.9-.1-.6-.4-.3-.7.1-.9z"/></svg>