<?xml version="1.0" encoding="UTF-8" standalone="no"?>
<!DOCTYPE svg PUBLIC "-//W3C//DTD SVG 1.1//EN" "http://www.w3.org/Graphics/SVG/1.1/DTD/svg11.dtd">
<svg xmlns="http://www.w3.org/2000/svg" version="1.1" viewBox="0.00 0.00 1024.00 1024.00">
<path fill="#000000" d="
  M 469.47 521.79
  L 469.48 521.19
  L 468.92 520.99
  L 289.25 521.08
  L 285.35 520.89
  L 281.50 520.31
  L 277.88 519.35
  L 274.43 517.99
  L 271.39 516.34
  L 268.61 514.32
  L 266.24 512.04
  L 264.19 509.41
  L 263.34 508.01
  L 262.48 506.09
  L 261.97 504.04
  L 261.76 501.82
  L 261.86 499.34
  L 262.27 496.74
  L 262.99 493.99
  L 264.02 491.11
  L 265.30 488.27
  L 397.87 223.13
  L 403.31 211.87
  L 408.70 200.58
  L 442.97 132.01
  L 447.61 123.36
  L 449.61 120.11
  L 451.41 117.57
  L 455.34 113.03
  L 459.68 108.98
  L 463.68 105.96
  L 467.42 103.72
  L 471.34 101.99
  L 471.34 101.99
  L 474.24 101.09
  L 477.24 100.44
  L 480.33 100.05
  L 483.51 99.93
  L 721.75 99.99
  L 728.71 100.13
  L 732.73 100.47
  L 735.53 101.27
  L 737.74 102.48
  L 739.63 103.88
  L 741.19 105.47
  L 742.43 107.25
  L 742.43 107.25
  L 743.03 108.41
  L 743.69 110.22
  L 744.12 112.12
  L 744.31 114.17
  L 744.26 116.27
  L 743.97 118.44
  L 743.46 120.59
  L 742.72 122.70
  L 741.79 124.72
  L 739.61 129.44
  L 737.23 134.65
  L 691.17 226.66
  L 688.57 231.74
  L 670.84 266.47
  L 652.87 302.45
  L 643.69 320.21
  L 634.98 336.99
  L 626.13 354.85
  L 626.07 355.01
  L 626.21 355.68
  L 626.83 356.00
  L 642.00 356.04
  L 768.02 356.05
  L 774.27 356.16
  L 779.80 356.45
  L 782.73 356.99
  L 785.28 358.14
  L 785.28 358.14
  L 786.84 359.32
  L 788.21 360.79
  L 789.94 363.30
  L 791.17 365.80
  L 791.90 368.30
  L 792.13 370.79
  L 792.13 370.79
  L 792.13 370.79
  L 791.90 373.04
  L 791.26 375.29
  L 790.22 377.53
  L 788.76 379.77
  L 786.15 383.06
  L 783.00 386.63
  L 775.08 394.58
  L 742.38 427.13
  L 734.41 435.29
  L 729.61 440.37
  L 716.89 453.65
  L 492.70 677.86
  L 483.23 687.05
  L 470.64 699.63
  L 456.25 713.62
  L 441.94 727.58
  L 389.64 779.96
  L 385.75 783.77
  L 383.79 785.45
  L 382.65 786.07
  L 382.65 786.07
  L 381.05 786.69
  L 379.34 787.08
  L 377.53 787.26
  L 375.62 787.21
  L 373.64 786.92
  L 371.87 786.40
  L 370.33 785.66
  L 369.00 784.68
  L 366.97 782.50
  L 365.42 780.00
  L 364.49 777.40
  L 364.16 774.63
  L 364.31 772.74
  L 364.78 770.81
  L 366.42 766.51
  L 369.14 760.39
  L 370.87 756.56
  L 416.65 648.76
  L 424.41 630.32
  L 463.67 536.10
  L 466.72 528.87
  L 469.47 521.79
  Z
  M 429.03 210.90
  L 428.95 211.25
  L 429.08 211.59
  L 429.17 211.70
  L 429.77 211.93
  L 435.17 212.09
  L 442.87 212.04
  L 447.01 211.99
  L 588.20 212.05
  L 588.99 211.94
  L 589.72 211.61
  L 590.32 211.09
  L 590.76 210.43
  L 631.48 123.57
  L 631.66 123.01
  L 631.59 122.57
  L 631.59 122.57
  L 631.59 122.57
  L 631.27 122.25
  L 630.70 122.07
  L 628.51 121.96
  L 488.24 122.14
  L 485.03 122.33
  L 482.01 122.86
  L 479.18 123.74
  L 476.53 124.97
  L 476.53 124.97
  L 476.53 124.97
  L 473.92 126.67
  L 471.53 128.76
  L 469.35 131.25
  L 467.39 134.13
  L 464.66 138.93
  L 462.45 143.42
  L 458.81 151.44
  L 441.60 186.09
  L 435.31 198.49
  L 429.03 210.90
  Z
  M 556.72 244.74
  L 556.65 249.45
  L 556.35 254.41
  L 555.96 264.12
  L 556.08 283.66
  L 556.23 284.29
  L 556.62 283.78
  L 582.14 229.36
  L 582.16 228.69
  L 581.67 228.22
  L 581.59 228.20
  L 578.49 227.64
  L 575.60 227.58
  L 570.89 227.90
  L 501.90 228.06
  L 423.77 227.97
  L 423.74 227.97
  L 422.24 228.04
  L 421.29 228.36
  L 420.30 229.39
  L 416.80 235.76
  L 414.11 242.06
  L 414.08 242.17
  L 414.23 242.73
  L 414.75 242.97
  L 554.94 242.97
  L 555.62 243.10
  L 556.19 243.49
  L 556.58 244.06
  L 556.72 244.74
  Z
  M 524.71 274.79
  L 524.62 276.27
  L 524.76 278.41
  L 524.85 279.74
  L 525.08 292.64
  L 524.98 305.53
  L 524.21 325.36
  L 523.93 332.00
  L 523.96 337.12
  L 524.50 348.90
  L 524.36 350.60
  L 524.13 352.34
  L 524.28 353.08
  L 524.72 352.50
  L 540.75 319.16
  L 540.97 318.18
  L 540.97 259.43
  L 540.88 258.79
  L 540.61 258.34
  L 540.60 258.33
  L 540.15 258.06
  L 539.51 257.97
  L 408.00 257.95
  L 407.15 258.04
  L 406.41 258.32
  L 406.41 258.32
  L 405.47 259.09
  L 404.75 260.27
  L 402.05 265.95
  L 398.53 272.42
  L 398.45 272.86
  L 398.87 273.01
  L 523.20 273.01
  L 523.82 273.14
  L 524.33 273.50
  L 524.65 274.04
  L 524.73 274.66
  L 524.71 274.79
  Z
  M 380.14 309.68
  L 380.04 310.13
  L 380.18 310.57
  L 380.51 310.88
  L 380.95 311.00
  L 482.09 311.00
  L 482.73 311.27
  L 483.00 311.91
  L 483.00 403.10
  L 483.27 403.74
  L 483.91 404.01
  L 508.08 404.01
  L 508.72 403.74
  L 508.99 403.10
  L 508.99 289.91
  L 508.78 289.33
  L 508.26 289.02
  L 508.08 289.00
  L 391.03 289.00
  L 390.55 289.14
  L 390.22 289.50
  L 380.14 309.68
  Z
  M 566.01 435.48
  L 566.01 498.40
  L 566.18 499.02
  L 566.71 498.60
  L 581.29 478.90
  L 581.81 477.89
  L 581.99 476.76
  L 581.99 421.02
  L 581.70 420.31
  L 581.00 420.02
  L 581.00 420.02
  L 468.51 420.02
  L 468.13 419.89
  L 468.00 419.51
  L 468.00 327.97
  L 467.72 327.28
  L 467.03 327.00
  L 375.70 326.98
  L 372.30 327.09
  L 370.86 327.76
  L 370.10 328.54
  L 369.55 329.59
  L 367.02 335.74
  L 364.26 341.59
  L 364.25 341.84
  L 364.44 341.99
  L 364.44 341.99
  L 364.51 342.00
  L 449.49 342.00
  L 450.59 342.16
  L 451.37 342.63
  L 451.84 343.41
  L 452.00 344.51
  L 452.00 433.73
  L 452.37 434.62
  L 453.25 434.99
  L 565.52 434.99
  L 565.89 435.11
  L 566.01 435.48
  Z
  M 403.19 357.77
  L 401.81 357.85
  L 401.29 357.93
  L 400.84 357.80
  L 399.96 357.53
  L 399.02 357.55
  L 398.04 357.87
  L 397.58 357.96
  L 397.12 357.84
  L 396.64 357.66
  L 396.27 357.71
  L 396.21 357.75
  L 395.77 357.84
  L 357.67 358.04
  L 356.91 358.15
  L 356.20 358.47
  L 355.61 358.96
  L 355.17 359.60
  L 349.16 371.63
  L 349.14 372.47
  L 349.78 373.00
  L 350.00 373.03
  L 418.61 373.03
  L 419.30 373.21
  L 419.81 373.72
  L 420.00 374.42
  L 420.00 465.00
  L 420.24 465.66
  L 420.84 466.01
  L 426.82 466.78
  L 433.00 467.02
  L 493.78 466.95
  L 524.50 467.10
  L 529.13 466.99
  L 533.49 466.51
  L 533.59 466.50
  L 534.12 466.57
  L 534.58 466.84
  L 534.89 467.28
  L 535.00 467.80
  L 535.00 541.95
  L 535.06 542.75
  L 535.24 543.05
  L 535.55 542.87
  L 535.98 542.19
  L 537.93 539.19
  L 548.49 524.78
  L 549.61 523.04
  L 550.27 521.63
  L 550.45 521.08
  L 550.77 519.57
  L 550.88 518.00
  L 551.04 481.32
  L 550.89 459.10
  L 550.63 453.19
  L 550.42 452.24
  L 549.96 451.56
  L 549.96 451.56
  L 549.96 451.56
  L 549.25 451.15
  L 548.29 451.02
  L 437.27 451.02
  L 436.64 450.93
  L 436.21 450.66
  L 436.21 450.66
  L 435.97 450.21
  L 435.92 449.59
  L 436.64 436.57
  L 436.94 425.79
  L 437.12 371.00
  L 436.92 365.14
  L 436.27 359.14
  L 435.87 358.40
  L 435.09 358.11
  L 408.25 357.82
  L 404.59 357.81
  L 403.19 357.77
  Z
  M 387.44 404.04
  L 387.96 404.14
  L 388.41 404.44
  L 388.72 404.88
  L 388.83 405.41
  L 388.98 417.36
  L 388.77 427.28
  L 388.56 436.79
  L 388.75 445.23
  L 388.95 453.18
  L 388.88 463.24
  L 388.77 464.36
  L 388.46 465.32
  L 388.38 465.80
  L 388.59 466.24
  L 388.99 466.54
  L 389.58 466.58
  L 390.31 466.30
  L 390.81 466.09
  L 391.32 466.03
  L 403.98 466.03
  L 404.71 465.73
  L 405.01 465.00
  L 405.01 390.30
  L 404.63 389.38
  L 403.71 389.00
  L 341.72 389.00
  L 340.66 389.30
  L 339.91 390.12
  L 333.31 403.33
  L 333.31 403.76
  L 333.64 404.03
  L 333.75 404.04
  L 387.44 404.04
  Z
  M 373.00 481.30
  L 373.00 420.86
  L 372.74 420.24
  L 372.12 419.98
  L 326.79 419.98
  L 325.99 420.09
  L 325.25 420.42
  L 324.63 420.94
  L 324.17 421.61
  L 318.07 433.81
  L 318.06 434.54
  L 318.63 435.01
  L 318.82 435.03
  L 355.18 435.03
  L 355.87 435.17
  L 356.45 435.55
  L 356.84 436.13
  L 356.98 436.82
  L 356.98 481.23
  L 356.73 481.82
  L 356.13 482.07
  L 344.21 482.07
  L 343.73 482.13
  L 343.30 482.32
  L 342.45 482.59
  L 341.89 482.44
  L 341.43 482.09
  L 341.12 481.58
  L 341.01 480.99
  L 340.98 451.79
  L 340.74 451.20
  L 340.15 450.95
  L 340.15 450.95
  L 340.15 450.95
  L 310.80 450.95
  L 309.69 451.27
  L 308.91 452.12
  L 302.03 465.90
  L 301.97 466.07
  L 302.12 466.72
  L 302.72 467.01
  L 324.49 467.01
  L 324.84 467.16
  L 324.99 467.51
  L 324.99 496.99
  L 325.29 497.70
  L 326.00 498.00
  L 502.26 498.00
  L 502.78 498.22
  L 503.00 498.74
  L 503.00 587.85
  L 503.06 588.53
  L 503.25 588.81
  L 503.55 588.68
  L 503.98 588.15
  L 510.74 578.32
  L 516.75 570.00
  L 518.18 567.78
  L 518.71 566.19
  L 519.00 559.01
  L 518.98 483.19
  L 518.62 482.35
  L 517.78 482.00
  L 373.70 482.00
  L 373.18 481.83
  L 373.00 481.30
  Z
  M 598.02 454.63
  L 598.11 454.98
  L 598.39 454.74
  L 613.39 434.25
  L 614.46 432.39
  L 614.94 430.48
  L 615.14 425.93
  L 614.90 420.75
  L 614.63 420.21
  L 614.06 419.99
  L 598.82 419.99
  L 598.25 420.22
  L 598.02 420.78
  L 598.02 420.78
  L 598.02 454.63
  Z
  M 286.28 497.41
  L 286.25 497.50
  L 286.33 497.86
  L 286.66 498.02
  L 309.23 498.02
  L 309.77 497.79
  L 310.00 497.25
  L 310.00 482.73
  L 309.77 482.16
  L 309.20 481.93
  L 295.69 481.93
  L 294.95 482.03
  L 294.26 482.34
  L 293.68 482.81
  L 293.26 483.43
  L 286.28 497.41
  Z
  M 486.87 612.11
  L 486.97 611.82
  L 486.97 540.57
  L 486.81 540.20
  L 486.45 540.07
  L 486.00 540.38
  L 471.08 578.44
  L 471.05 578.62
  L 471.05 631.98
  L 471.32 632.43
  L 471.85 632.39
  L 471.95 632.28
  L 486.87 612.11
  Z
  M 454.85 618.98
  L 454.90 618.62
  L 454.84 618.40
  L 454.50 618.23
  L 454.19 618.46
  L 417.09 707.41
  L 417.22 707.79
  L 417.34 707.83
  L 417.54 707.79
  L 417.73 707.56
  L 418.54 706.22
  L 419.89 704.52
  L 421.43 702.52
  L 424.68 697.64
  L 428.35 692.59
  L 435.60 682.93
  L 453.70 657.75
  L 454.47 656.40
  L 454.88 654.91
  L 455.02 653.03
  L 454.99 620.82
  L 454.90 620.10
  L 454.85 618.98
  Z"
/>
<rect fill="#000000" x="474.01" y="136.99" width="112.02" height="15.00" rx="0.86"/>
<rect fill="#000000" x="475.02" y="168.00" width="93.98" height="14.98" rx="0.84"/>
<path fill="#000000" d="
  M 773.88 848.65
  L 770.06 865.60
  L 768.06 873.23
  L 766.01 880.30
  L 763.92 885.95
  L 761.00 892.03
  L 759.22 894.86
  L 757.10 897.38
  L 754.57 899.67
  L 751.76 901.61
  L 748.59 903.26
  L 745.23 904.53
  L 741.64 905.42
  L 737.98 905.89
  L 731.29 906.20
  L 724.98 906.19
  L 719.07 905.84
  L 713.55 905.16
  L 710.51 904.47
  L 707.92 903.47
  L 705.64 902.10
  L 703.78 900.44
  L 702.37 898.60
  L 701.30 896.56
  L 700.52 894.29
  L 700.01 891.65
  L 699.80 888.85
  L 699.87 885.73
  L 700.24 882.31
  L 700.90 878.64
  L 704.67 861.60
  L 708.40 846.39
  L 709.98 841.37
  L 711.98 836.72
  L 714.29 832.72
  L 716.91 829.36
  L 719.11 827.20
  L 721.51 825.32
  L 721.51 825.32
  L 724.24 823.66
  L 727.18 822.30
  L 730.34 821.25
  L 733.72 820.52
  L 738.45 819.97
  L 743.88 819.77
  L 750.01 819.91
  L 756.98 820.39
  L 760.21 820.80
  L 763.05 821.42
  L 765.43 822.24
  L 767.39 823.26
  L 770.27 825.51
  L 771.48 826.82
  L 772.49 828.21
  L 773.53 830.10
  L 774.28 832.10
  L 774.79 834.23
  L 775.08 836.65
  L 775.13 839.17
  L 774.95 841.96
  L 773.88 848.65
  Z
  M 753.93 853.70
  L 754.62 849.86
  L 754.99 846.21
  L 755.06 842.76
  L 754.81 839.51
  L 754.34 838.64
  L 752.81 837.70
  L 751.38 837.34
  L 744.87 836.87
  L 738.43 836.93
  L 735.88 837.32
  L 733.61 838.23
  L 733.61 838.23
  L 732.37 839.04
  L 731.23 840.04
  L 730.19 841.23
  L 729.26 842.62
  L 728.16 844.72
  L 727.15 847.14
  L 725.43 852.97
  L 720.09 875.86
  L 719.29 879.81
  L 719.08 882.70
  L 719.43 884.97
  L 720.36 886.69
  L 721.32 887.59
  L 722.61 888.29
  L 724.16 888.75
  L 726.07 888.99
  L 731.51 889.14
  L 736.76 888.88
  L 738.55 888.61
  L 740.17 888.12
  L 741.61 887.44
  L 742.87 886.54
  L 742.87 886.54
  L 742.87 886.54
  L 744.12 885.25
  L 745.13 883.68
  L 745.74 882.53
  L 747.21 879.50
  L 747.66 878.24
  L 750.74 867.37
  L 753.93 853.70
  Z"
/>
<path fill="#000000" d="
  M 878.15 885.84
  L 879.34 883.48
  L 880.21 881.02
  L 880.21 881.02
  L 880.89 877.83
  L 881.08 874.50
  L 880.77 872.50
  L 879.89 871.09
  L 879.89 871.09
  L 878.47 870.29
  L 876.50 870.06
  L 868.31 870.10
  L 861.52 869.72
  L 858.94 869.34
  L 856.04 868.58
  L 855.91 868.54
  L 854.60 867.98
  L 853.40 867.26
  L 851.37 865.38
  L 849.87 862.98
  L 849.07 860.27
  L 848.80 857.63
  L 848.78 854.84
  L 848.99 851.91
  L 849.44 848.84
  L 850.96 841.55
  L 852.68 835.69
  L 853.89 832.84
  L 855.49 829.88
  L 857.04 827.61
  L 858.53 826.02
  L 860.83 824.31
  L 863.16 822.97
  L 865.51 821.98
  L 868.14 821.21
  L 870.98 820.68
  L 874.26 820.34
  L 880.71 819.99
  L 887.19 819.90
  L 893.71 820.06
  L 900.27 820.49
  L 903.77 820.53
  L 906.04 820.57
  L 907.13 820.78
  L 907.55 820.84
  L 908.05 820.76
  L 908.95 820.49
  L 909.57 820.40
  L 909.97 820.54
  L 909.97 820.54
  L 910.13 820.93
  L 910.07 821.55
  L 906.50 836.74
  L 906.06 837.09
  L 877.02 836.96
  L 874.60 837.27
  L 872.58 838.17
  L 871.18 839.40
  L 870.06 841.04
  L 868.51 846.01
  L 868.03 848.92
  L 868.08 850.09
  L 868.32 851.07
  L 869.19 852.70
  L 870.38 853.86
  L 870.38 853.86
  L 870.38 853.86
  L 871.59 854.48
  L 873.02 854.78
  L 878.34 855.02
  L 887.75 855.10
  L 891.07 855.32
  L 893.85 855.98
  L 896.52 857.22
  L 897.66 858.07
  L 898.60 859.15
  L 899.43 860.54
  L 900.07 862.08
  L 900.56 863.90
  L 900.88 865.96
  L 900.97 867.98
  L 900.85 870.02
  L 899.57 877.67
  L 897.58 885.09
  L 897.58 885.09
  L 895.07 891.83
  L 893.80 894.40
  L 892.25 896.78
  L 892.25 896.78
  L 889.89 899.53
  L 888.22 900.96
  L 886.31 902.17
  L 884.11 903.23
  L 881.57 904.14
  L 878.78 904.88
  L 875.74 905.43
  L 872.42 905.82
  L 869.00 906.00
  L 855.20 906.12
  L 838.35 905.88
  L 837.87 905.77
  L 837.49 905.47
  L 837.25 905.05
  L 837.21 904.56
  L 837.23 904.44
  L 840.52 890.41
  L 840.76 889.84
  L 841.17 889.39
  L 841.71 889.09
  L 842.31 888.99
  L 871.77 888.97
  L 874.38 888.71
  L 876.30 887.91
  L 877.29 887.05
  L 878.15 885.84
  Z"
/>
<path fill="#000000" d="
  M 550.24 838.68
  L 550.25 838.10
  L 550.02 837.57
  L 549.60 837.18
  L 549.06 837.00
  L 549.06 837.00
  L 548.90 836.99
  L 528.91 836.99
  L 528.53 836.86
  L 528.49 836.47
  L 531.38 822.39
  L 531.72 821.18
  L 532.37 820.38
  L 532.37 820.38
  L 533.08 820.05
  L 533.98 819.97
  L 535.01 820.02
  L 561.73 820.01
  L 585.92 820.62
  L 590.02 820.31
  L 593.22 820.02
  L 593.69 820.12
  L 594.09 820.41
  L 594.33 820.83
  L 594.37 821.31
  L 594.35 821.44
  L 590.86 836.32
  L 590.56 836.80
  L 590.03 836.98
  L 570.42 836.98
  L 569.38 837.34
  L 568.79 838.27
  L 553.09 905.18
  L 552.69 905.81
  L 552.00 906.05
  L 535.76 906.05
  L 535.20 905.97
  L 534.84 905.73
  L 534.84 905.73
  L 534.68 905.32
  L 534.73 904.75
  L 550.24 838.68
  Z"
/>
<path fill="#000000" d="
  M 163.16 820.41
  L 164.55 820.17
  L 164.58 820.18
  L 165.08 820.51
  L 165.18 821.10
  L 145.48 905.03
  L 145.02 905.76
  L 144.21 906.04
  L 127.85 906.04
  L 127.33 905.97
  L 127.01 905.74
  L 126.86 905.37
  L 126.91 904.85
  L 146.43 821.67
  L 146.76 820.93
  L 147.34 820.36
  L 148.09 820.05
  L 148.90 820.04
  L 154.59 820.72
  L 159.41 820.58
  L 162.20 820.53
  L 163.16 820.41
  Z"
/>
<path fill="#000000" d="
  M 213.79 871.67
  L 214.58 869.90
  L 215.03 867.86
  L 215.52 864.11
  L 224.99 821.70
  L 225.20 821.12
  L 225.55 820.74
  L 225.55 820.74
  L 225.55 820.74
  L 226.03 820.54
  L 226.64 820.53
  L 232.58 820.96
  L 238.48 820.78
  L 238.48 820.78
  L 242.25 820.35
  L 242.82 820.46
  L 243.00 821.02
  L 242.79 823.29
  L 242.31 825.80
  L 237.32 847.44
  L 232.78 866.92
  L 228.42 884.69
  L 224.11 903.92
  L 223.77 904.76
  L 223.18 905.44
  L 222.39 905.88
  L 221.50 906.03
  L 206.97 906.03
  L 206.33 905.82
  L 205.95 905.26
  L 191.10 855.00
  L 190.92 853.55
  L 190.93 852.58
  L 190.90 852.45
  L 190.71 852.34
  L 190.51 852.46
  L 189.45 854.98
  L 178.11 905.06
  L 177.67 905.76
  L 176.89 906.03
  L 161.67 906.03
  L 161.54 906.02
  L 161.09 905.87
  L 160.74 905.54
  L 160.56 904.62
  L 179.82 822.56
  L 180.09 821.91
  L 180.56 821.39
  L 181.18 821.05
  L 181.88 820.93
  L 187.83 820.84
  L 192.19 820.56
  L 194.32 820.62
  L 196.37 820.87
  L 197.55 821.19
  L 198.22 822.18
  L 205.42 844.54
  L 211.07 862.85
  L 213.36 871.59
  L 213.53 871.91
  L 213.79 871.67
  Z"
/>
<path fill="#000000" d="
  M 493.28 872.42
  L 504.42 821.95
  L 504.67 821.35
  L 505.12 820.87
  L 505.71 820.59
  L 506.37 820.53
  L 509.29 820.75
  L 509.29 820.75
  L 515.85 820.84
  L 522.44 820.38
  L 522.54 820.38
  L 522.95 820.60
  L 523.05 821.07
  L 503.40 904.77
  L 502.82 905.68
  L 501.80 906.04
  L 486.33 906.04
  L 485.74 905.85
  L 485.38 905.34
  L 469.71 852.57
  L 469.60 852.37
  L 469.49 852.58
  L 457.17 905.09
  L 456.74 905.76
  L 455.99 906.02
  L 440.78 906.02
  L 440.25 905.80
  L 440.04 905.26
  L 440.04 905.24
  L 440.43 902.07
  L 442.63 891.88
  L 448.02 869.64
  L 452.60 850.18
  L 458.64 825.30
  L 459.40 821.78
  L 459.80 821.02
  L 460.62 820.77
  L 476.10 820.77
  L 476.51 820.99
  L 477.88 823.55
  L 478.97 826.52
  L 493.15 872.43
  L 493.22 872.55
  L 493.28 872.42
  Z"
/>
<path fill="#000000" d="
  M 642.56 820.35
  L 646.52 820.74
  L 649.84 820.87
  L 677.80 821.02
  L 683.16 821.41
  L 685.26 821.85
  L 686.98 822.46
  L 688.81 823.42
  L 690.44 824.53
  L 691.87 825.79
  L 693.09 827.20
  L 693.09 827.20
  L 694.52 829.54
  L 695.52 832.20
  L 696.10 835.19
  L 696.24 838.50
  L 695.70 846.42
  L 694.38 854.39
  L 691.80 865.83
  L 689.34 875.37
  L 686.85 882.92
  L 685.46 886.21
  L 683.97 889.19
  L 682.15 892.18
  L 680.11 894.87
  L 677.84 897.26
  L 675.35 899.35
  L 675.35 899.35
  L 675.35 899.35
  L 675.35 899.35
  L 673.10 900.86
  L 670.70 902.16
  L 668.15 903.25
  L 665.44 904.14
  L 662.41 904.86
  L 659.12 905.41
  L 651.75 905.96
  L 637.76 906.13
  L 620.82 905.96
  L 620.22 905.68
  L 620.02 905.04
  L 620.02 905.04
  L 620.04 904.95
  L 639.36 823.73
  L 639.56 822.69
  L 639.96 821.49
  L 640.65 820.71
  L 640.65 820.71
  L 641.49 820.37
  L 642.56 820.35
  Z
  M 655.28 837.33
  L 654.71 837.60
  L 654.39 838.14
  L 642.59 888.42
  L 642.62 888.72
  L 642.90 888.83
  L 652.96 889.14
  L 656.50 888.97
  L 659.04 888.59
  L 661.00 887.98
  L 662.74 887.13
  L 664.11 886.19
  L 665.34 885.10
  L 667.53 882.35
  L 669.41 878.73
  L 671.07 874.12
  L 672.62 868.69
  L 674.08 862.78
  L 676.74 849.50
  L 677.03 845.83
  L 676.64 842.46
  L 676.24 841.19
  L 675.66 840.08
  L 674.97 839.23
  L 674.10 838.60
  L 673.22 838.25
  L 671.47 837.83
  L 671.47 837.83
  L 671.47 837.83
  L 667.54 837.16
  L 663.53 836.86
  L 659.45 836.91
  L 655.28 837.33
  Z"
/>
<path fill="#000000" d="
  M 796.97 882.55
  L 797.08 884.34
  L 797.39 885.75
  L 797.91 886.90
  L 798.69 887.82
  L 800.00 888.55
  L 801.79 888.85
  L 814.94 889.08
  L 830.15 888.96
  L 830.24 888.96
  L 830.79 889.28
  L 830.92 889.91
  L 827.44 904.73
  L 826.90 905.58
  L 825.96 905.92
  L 811.78 906.10
  L 799.32 906.04
  L 795.80 905.89
  L 792.64 905.57
  L 789.86 905.06
  L 787.42 904.37
  L 785.18 903.45
  L 783.31 902.38
  L 781.69 901.09
  L 780.30 899.54
  L 779.23 897.83
  L 778.41 895.86
  L 777.90 893.71
  L 777.65 891.29
  L 777.75 885.28
  L 777.95 882.00
  L 778.34 879.28
  L 782.04 862.01
  L 785.80 846.06
  L 787.51 840.69
  L 789.29 836.77
  L 791.47 833.01
  L 792.93 830.95
  L 794.48 829.12
  L 796.19 827.43
  L 797.99 825.95
  L 800.72 824.19
  L 803.79 822.72
  L 807.06 821.62
  L 810.67 820.81
  L 814.60 820.32
  L 818.94 820.10
  L 823.79 820.15
  L 830.00 820.47
  L 837.98 820.70
  L 845.81 820.36
  L 845.92 820.36
  L 846.43 820.64
  L 846.55 821.22
  L 843.03 836.20
  L 842.60 836.88
  L 841.83 837.13
  L 819.76 836.95
  L 816.26 837.19
  L 813.29 837.81
  L 810.99 838.78
  L 809.23 840.14
  L 806.79 843.19
  L 804.98 846.52
  L 804.98 846.52
  L 804.01 849.26
  L 800.55 862.62
  L 797.44 876.64
  L 797.08 879.28
  L 796.97 882.55
  Z"
/>
<path fill="#000000" d="
  M 411.93 888.99
  L 411.62 888.29
  L 410.91 888.05
  L 386.78 887.92
  L 385.30 888.04
  L 384.27 888.43
  L 383.30 889.43
  L 379.56 895.81
  L 375.15 904.80
  L 375.02 905.07
  L 374.43 905.78
  L 373.53 906.02
  L 357.07 906.02
  L 356.51 905.94
  L 356.13 905.69
  L 356.13 905.69
  L 355.93 905.29
  L 355.92 904.72
  L 356.59 903.07
  L 384.77 852.53
  L 389.34 844.18
  L 392.90 837.30
  L 401.06 821.97
  L 401.89 821.12
  L 403.03 820.81
  L 423.38 820.81
  L 423.72 820.94
  L 423.88 821.26
  L 432.18 904.74
  L 432.18 904.80
  L 431.87 905.64
  L 431.05 905.99
  L 414.94 905.99
  L 413.96 905.61
  L 413.49 904.67
  L 411.93 888.99
  Z
  M 408.95 841.49
  L 408.87 840.42
  L 408.65 840.00
  L 408.39 840.34
  L 403.37 851.39
  L 397.58 862.40
  L 394.13 868.75
  L 392.30 872.64
  L 392.28 872.69
  L 392.36 872.95
  L 392.60 873.06
  L 409.72 873.06
  L 410.22 872.96
  L 410.63 872.66
  L 410.88 872.23
  L 410.94 871.73
  L 410.93 871.62
  L 410.20 866.25
  L 409.98 860.73
  L 409.56 855.48
  L 409.16 848.49
  L 408.95 841.49
  Z"
/>
<path fill="#000000" d="
  M 276.81 854.32
  L 276.92 854.27
  L 277.19 854.19
  L 277.59 854.12
  L 285.44 854.48
  L 292.21 855.38
  L 294.83 856.21
  L 296.92 857.61
  L 296.92 857.61
  L 298.35 859.35
  L 299.35 861.56
  L 299.91 863.71
  L 300.18 865.88
  L 300.20 867.34
  L 299.81 873.05
  L 298.95 878.56
  L 297.62 883.89
  L 295.82 889.03
  L 295.82 889.03
  L 294.27 892.55
  L 293.07 894.76
  L 291.74 896.73
  L 290.23 898.52
  L 288.58 900.08
  L 286.63 901.54
  L 284.55 902.74
  L 282.21 903.77
  L 279.75 904.57
  L 277.08 905.19
  L 274.09 905.64
  L 267.00 906.06
  L 253.19 906.11
  L 237.83 905.92
  L 237.29 905.83
  L 236.94 905.59
  L 236.79 905.19
  L 236.84 904.64
  L 240.07 890.86
  L 240.39 890.10
  L 240.95 889.48
  L 241.67 889.09
  L 242.49 888.96
  L 269.16 889.01
  L 271.60 888.88
  L 273.55 888.55
  L 275.16 887.98
  L 276.55 887.12
  L 278.06 885.42
  L 279.20 882.98
  L 280.40 878.70
  L 281.06 874.51
  L 280.98 873.39
  L 280.56 872.00
  L 280.30 871.58
  L 279.91 871.29
  L 277.60 870.37
  L 275.84 870.10
  L 268.55 870.11
  L 260.33 869.69
  L 257.52 869.30
  L 255.06 868.56
  L 252.96 867.48
  L 251.21 866.05
  L 251.21 866.05
  L 249.99 864.55
  L 249.04 862.81
  L 248.34 860.80
  L 247.90 858.55
  L 247.79 856.64
  L 247.91 854.27
  L 248.82 848.14
  L 250.29 841.37
  L 251.84 836.19
  L 253.66 831.87
  L 255.83 828.35
  L 257.19 826.75
  L 258.71 825.34
  L 258.71 825.34
  L 261.61 823.42
  L 264.96 822.05
  L 268.75 821.23
  L 272.99 820.95
  L 309.27 821.05
  L 309.56 821.16
  L 309.60 821.47
  L 306.35 835.32
  L 306.03 836.14
  L 305.53 836.72
  L 305.53 836.72
  L 304.84 837.07
  L 303.97 837.17
  L 287.18 836.97
  L 275.12 837.06
  L 273.52 837.31
  L 271.89 837.98
  L 270.59 838.96
  L 269.81 840.06
  L 268.62 843.00
  L 267.82 845.69
  L 267.42 848.13
  L 267.41 850.33
  L 267.77 851.89
  L 268.54 853.03
  L 268.54 853.03
  L 269.90 853.80
  L 271.78 854.03
  L 274.15 854.08
  L 276.21 854.32
  L 276.81 854.32
  Z"
/>
<path fill="#000000" d="
  M 336.00 838.80
  L 336.07 838.02
  L 335.86 837.47
  L 335.86 837.47
  L 335.86 837.47
  L 335.36 837.13
  L 334.59 837.02
  L 314.74 837.02
  L 314.34 836.88
  L 314.30 836.45
  L 317.58 822.47
  L 317.82 821.88
  L 318.25 821.41
  L 318.80 821.11
  L 319.43 821.00
  L 379.22 821.00
  L 379.31 821.01
  L 379.83 821.32
  L 379.95 821.93
  L 376.82 835.27
  L 376.53 835.96
  L 376.03 836.51
  L 375.38 836.87
  L 374.64 836.99
  L 356.07 836.99
  L 355.15 837.31
  L 354.63 838.14
  L 339.21 903.82
  L 338.84 904.80
  L 338.24 905.49
  L 338.24 905.49
  L 337.44 905.90
  L 336.42 906.04
  L 322.45 906.04
  L 321.50 905.90
  L 320.89 905.49
  L 320.64 904.83
  L 320.72 903.90
  L 336.00 838.80
  Z"
/>
</svg>
