<svg xmlns="http://www.w3.org/2000/svg" id="jZ209imyih" viewBox="-10 -10 390 133">
    <style>
        #jZ209imyih{
        --primary: #1e1e1e;
        --secondary: #f1f1f1;
        background: yellow;
        }
    </style>
    <g featurekey="pencil"
        transform="matrix(1.3002423499458846,0,0,1.3002423499458846,253.4579747349062,-8.776635862134722)"
        fill="var(--primary)">
        <polygon points="80.074,64.18 77.865,65.76 59.165,39.51 61.375,37.94 "></polygon>
        <polygon points="85.145,60.58 82.935,62.16 64.225,35.91 66.435,34.33 "></polygon>
        <polygon points="63.445,32.16 58.085,35.98 57.205,29.07 "></polygon>
        <path
            d="M89.515,68.25c-0.17,0.82-0.66,1.55-1.38,2.06l-2.04,1.45c-0.72,0.52-1.57,0.74-2.4,0.64c-0.77-0.09-1.42-0.46-1.84-1.04  l-1.96-2.75l3.64-2.59l3.64-2.59l1.96,2.75C89.545,66.75,89.685,67.49,89.515,68.25z"></path>
    </g>
    <g id="SvgjsG2309" featurekey="4yrtKO-0"
        transform="matrix(1.3002423499458846,0,0,1.3002423499458846,253.4579747349062,-8.776635862134722)"
        fill="var(--primary)">
        <path
            d="M61.304,71.54v2.5c0,3.64-2.96,6.61-6.6,6.61h-25.08c-3.64,0-6.61-2.97-6.61-6.61V25.96c0-3.64,2.97-6.61,6.61-6.61h2.5  v42.08c0,5.58,4.53,10.11,10.1,10.11H61.304z"></path>
        <path
            d="M48.705,84.15v2.49c0,3.65-2.97,6.61-6.61,6.61h-25.07c-3.65,0-6.61-2.96-6.61-6.61V38.57c0-3.65,2.96-6.61,6.61-6.61h2.49  v42.08c0,5.57,4.54,10.11,10.11,10.11H48.705z"></path>
        <polygon points="71.435,14.95 65.715,14.95 65.715,9.23 "></polygon>
        <path
            d="M54.045,24.63c0.52-0.37,1.21-0.42,1.79-0.14l11.79,5.83c0.01,0,0.01,0,0.01,0.01c0.01,0.01,0.01,0.01,0.01,0.01  c0.25,0.12,0.46,0.3,0.62,0.53l5.65,7.93V18.45h-9.95c-0.97,0-1.75-0.78-1.75-1.75V6.75h-19.99c-3.64,0-6.6,2.96-6.6,6.61v48.07  c0,3.65,2.96,6.61,6.6,6.61h25.08c2.31,0,4.43-1.21,5.64-3.16l-17.65-24.76c-0.17-0.24-0.28-0.52-0.31-0.8l-0.01-0.08l-1.65-12.96  C53.245,25.64,53.515,25.01,54.045,24.63z M58.475,51.18v9.19c0,0.97-0.79,1.75-1.75,1.75h-15.75c-0.97,0-1.75-0.78-1.75-1.75v-9.19  c0-0.97,0.78-1.75,1.75-1.75h15.75C57.685,49.43,58.475,50.21,58.475,51.18z M53.824,42.22c0.97,0,1.75,0.78,1.75,1.75  c0,0.97-0.78,1.75-1.75,1.75h-12.85c-0.97,0-1.75-0.78-1.75-1.75c0-0.97,0.78-1.75,1.75-1.75H53.824z M40.975,19.35  c-0.97,0-1.75-0.78-1.75-1.75c0-0.96,0.78-1.75,1.75-1.75h12.85c0.97,0,1.75,0.79,1.75,1.75c0,0.97-0.78,1.75-1.75,1.75H40.975z"></path>
        <rect x="42.725" y="52.93" width="12.25" height="5.69"></rect>
    </g>
    <g id="SvgjsG2310" featurekey="Gem1BN-0"
        transform="matrix(2.4176889314322207,0,0,2.4176889314322207,-1.8857967209245372,-10.714976901465516)"
        fill="var(--primary)">
        <path
            d="M0.78 20 l0 -2.32 l1.44 0 l0 -8.58 l-1.44 0 l0 -2.32 l6.24 0 l0 2.32 l-1.44 0 l0 8.58 l1.44 0 l0 2.32 l-6.24 0 z M10.517999999999999 20 l0 -2.32 l1.44 0 l0 -8.58 l-1.44 0 l0 -2.32 l4.7 0 l5.44 8.04 l0 -5.72 l-1.44 0 l0 -2.32 l6.08 0 l0 2.32 l-1.44 0 l0 10.9 l-3.28 0 l-5.42 -7.92 l0 5.6 l1.44 0 l0 2.32 l-6.08 0 z M28.296 16.34 l3.3 -0.68 c0.02 1.4 1.1 1.84 2.2 1.84 c1.04 0 1.64 -0.38 1.64 -1 c0 -2.1 -6.78 -1.14 -6.78 -5.94 c0 -2.64 2.04 -4.06 5.1 -4.06 c3 0 4.92 1.4 4.92 3.42 l0 0.16 l-3.3 0.68 c-0.02 -0.54 -0.14 -1.48 -1.7 -1.48 c-1.08 0 -1.62 0.44 -1.62 1.04 c0 2.18 6.78 1.04 6.78 5.82 c0 2.4 -1.7 4.14 -5.08 4.14 c-3.5 0 -5.46 -1.84 -5.46 -3.76 l0 -0.18 z  M44.814 20 l0 -2.32 l1.44 0 l0 -8.38 l-2.02 0 l0 2.04 l-2.52 0 l0 -4.56 l12.44 0 l0 4.56 l-2.52 0 l0 -2.04 l-2.02 0 l0 8.38 l1.44 0 l0 2.32 l-6.24 0 z M56.711999999999996 20 l0 -2.32 l1.02 0 l3.92 -10.9 l3.08 0 l4.34 10.9 l1.04 0 l0 2.32 l-5.52 0 l0 -2.32 l1.24 0 l-0.5 -1.32 l-4.24 0 l-0.44 1.32 l1.26 0 l0 2.32 l-5.2 0 z M61.832 14.04 l2.66 0 l-1.42 -4.02 z M72.93 20 l0 -2.32 l1.44 0 l0 -8.58 l-1.44 0 l0 -2.32 l4.7 0 l5.44 8.04 l0 -5.72 l-1.44 0 l0 -2.32 l6.08 0 l0 2.32 l-1.44 0 l0 10.9 l-3.28 0 l-5.42 -7.92 l0 5.6 l1.44 0 l0 2.32 l-6.08 0 z M93.628 20 l0 -2.32 l1.44 0 l0 -8.38 l-2.02 0 l0 2.04 l-2.52 0 l0 -4.56 l12.44 0 l0 4.56 l-2.52 0 l0 -2.04 l-2.02 0 l0 8.38 l1.44 0 l0 2.32 l-6.24 0 z"></path>
    </g>
    <g id="SvgjsG2311" featurekey="Gem1BN-1"
        transform="matrix(4.227997662330699,0,0,4.227997662330699,-3.297838055653962,20.518019226983238)"
        fill="var(--primary)">
        <path
            d="M0.78 20 l0 -2.32 l1.44 0 l0 -8.58 l-1.44 0 l0 -2.32 l6.86 0 c4.34 0 6.46 2.66 6.46 6.36 c0 3.56 -1.98 6.86 -6.44 6.86 l-6.88 0 z M5.58 17.48 l2 0 c1.98 0 2.98 -1.42 2.98 -4.2 c0 -2.72 -0.96 -3.98 -3.1 -3.98 l-1.88 0 l0 8.18 z M23.798000000000002 20.28 c-4.3 0 -6.52 -2.92 -6.52 -6.92 c0 -4.1 2.32 -6.86 6.64 -6.86 c4.08 0 6.54 2.46 6.54 6.7 c0 4.1 -2.32 7.08 -6.66 7.08 z M23.858 17.5 c1.88 0 3.06 -1.24 3.06 -4.16 c0 -2.88 -1.14 -4.06 -3.02 -4.06 c-1.94 0 -3.08 1.26 -3.08 4.1 c0 2.88 1.16 4.12 3.04 4.12 z M42.79600000000001 15.36 l3.06 0.86 c-0.38 2.3 -2.1 4.06 -5.62 4.06 c-4.64 0 -6.58 -3.04 -6.58 -7 c0 -4.26 2.3 -6.78 6.6 -6.78 c3.44 0 5.44 1.6 5.44 3.96 c0 0.12 -0.02 0.22 -0.02 0.34 l-3.3 0.74 l0 -0.28 c0 -1.24 -0.54 -1.98 -2.2 -1.98 c-2.3 0 -2.98 1.34 -2.98 3.98 c0 2.92 0.9 4.24 2.96 4.24 c1.3 0 2.62 -0.56 2.64 -2.14 z M48.67400000000001 16.34 l3.3 -0.68 c0.02 1.4 1.1 1.84 2.2 1.84 c1.04 0 1.64 -0.38 1.64 -1 c0 -2.1 -6.78 -1.14 -6.78 -5.94 c0 -2.64 2.04 -4.06 5.1 -4.06 c3 0 4.92 1.4 4.92 3.42 l0 0.16 l-3.3 0.68 c-0.02 -0.54 -0.14 -1.48 -1.7 -1.48 c-1.08 0 -1.62 0.44 -1.62 1.04 c0 2.18 6.78 1.04 6.78 5.82 c0 2.4 -1.7 4.14 -5.08 4.14 c-3.5 0 -5.46 -1.84 -5.46 -3.76 l0 -0.18 z "></path>
    </g>
</svg>